<?xml version="1.0" encoding="UTF-8"?>
<svg width="39px" height="32px" viewBox="0 0 39 32" version="1.1" xmlns="http://www.w3.org/2000/svg" xmlns:xlink="http://www.w3.org/1999/xlink">
    <title>编组</title>
    <g id="落地页" stroke="none" stroke-width="1" fill="none" fill-rule="evenodd">
        <g id="编组" fill="#000000">
            <path d="M8.54325601,0.605077548 L13.5384615,9.06646154 L13.5384615,9.06646154 L13.5384615,22.9335385 L8.54325601,31.3949225 C8.32188422,31.7699044 7.91884643,32 7.4833962,32 L2.15580275,32 C1.47606767,32 0.925033516,31.4489658 0.925033516,30.7692308 C0.925033516,30.5491411 0.98405066,30.3330778 1.09593674,30.1435496 L8.70670916,17.2513624 C9.16245108,16.4793632 9.16245108,15.5206368 8.70670916,14.7486376 L1.09593674,1.85645042 C0.750382562,1.27110258 0.944773729,0.5164574 1.53012156,0.170903223 C1.7196498,0.0590171444 1.93571311,4.8451902e-16 2.15580275,0 L7.4833962,0 C7.91884643,9.72900401e-16 8.32188422,0.230095639 8.54325601,0.605077548 Z" id="路径" opacity="0.5"></path>
            <path d="M22.1538462,0 C30.9904022,0 38.1538462,7.163444 38.1538462,16 C38.1538462,24.836556 30.9904022,32 22.1538462,32 L16,32 C14.6405298,32 13.5384615,30.8979317 13.5384615,29.5384615 L13.5384615,2.46153846 C13.5384615,1.10206831 14.6405298,-1.94358594e-16 16,0 L22.1538462,0 L22.1538462,0 Z M22.1538462,7.38461538 C21.4741111,7.38461538 20.9230769,7.93564954 20.9230769,8.61538462 L20.9230769,23.3846154 C20.9230769,24.0643505 21.4741111,24.6153846 22.1538462,24.6153846 L22.1538462,24.6153846 L22.1538462,24.6153846 C26.9119917,24.6153846 30.7692308,20.7581455 30.7692308,16 C30.7692308,11.2418545 26.9119917,7.38461538 22.1538462,7.38461538 Z" id="路径"></path>
        </g>
    </g>
</svg>