<?xml version="1.0" encoding="UTF-8"?>
<svg width="691px" height="251px" viewBox="0 0 691 251" version="1.1" xmlns="http://www.w3.org/2000/svg" xmlns:xlink="http://www.w3.org/1999/xlink">
    <title>编组 6</title>
    <g id="白色版本" stroke="none" stroke-width="1" fill="none" fill-rule="evenodd">
        <g id="Apple-TV备份" transform="translate(-623, -1374)">
            <g id="编组-12" transform="translate(498, 1082)">
                <g id="编组-6" transform="translate(125.4386, 292)">
                    <path d="M78.4983855,0.5 C84.3897002,0.5 89.8125519,2.90819414 93.7466484,6.82436369 C97.6289454,10.6889698 100.061423,16.0229763 100.061423,21.9625 L100.061423,228.148997 C100.061423,234.321056 97.5597015,239.908807 93.5149656,243.953543 C89.4702296,247.998279 83.8824789,250.5 77.7104199,250.5 C71.5383609,250.5 65.9506101,247.998279 61.9058742,243.953543 C57.8611382,239.908807 55.359417,234.321056 55.359417,228.148997 L55.359417,62.7934498 L38.432275,79.808664 C34.0545231,84.1639692 28.3603469,86.3353753 22.6802462,86.3353753 C16.9895154,86.3353753 11.3132271,84.1558156 6.99039078,79.8104901 C2.64849253,75.4460034 0.486150263,69.7349681 0.500066753,64.0292407 C0.513983243,58.3235134 2.70415849,52.623094 7.06729526,48.2798393 L47.0189786,8.5102085 C52.1725718,3.38009932 59.148264,0.5 66.4199587,0.5 Z M204.6547,0.5 C218.555643,1.58208297 231.463196,6.54851296 242.245091,14.3066173 C253.268344,22.2383895 262.070084,33.0881964 267.440061,45.6911358 C271.188614,54.4154017 273.061423,64.0746146 273.061423,74.045 C273.061423,84.0134932 271.189003,93.6708942 267.128838,102.705036 C263.685766,111.133821 258.686893,118.611433 252.439231,125.15471 C258.686893,132.388567 263.685766,139.866179 267.12202,148.279063 C271.190909,157.021782 273.061423,166.988836 273.061423,176.955 C273.061423,186.924197 271.189316,196.893949 267.125217,205.937042 C261.586945,218.879256 252.361669,229.902546 240.749173,237.752511 C229.434276,245.401301 215.852773,250.037152 201.206119,250.5 L162.151423,250.5 C156.051438,250.5 150.528938,248.027493 146.531434,244.029989 C142.53393,240.032485 140.061423,234.509985 140.061423,228.41 C140.061423,222.310015 142.53393,216.787515 146.531434,212.790011 C150.528938,208.792507 156.051438,206.32 162.151423,206.32 L199.326681,206.32 C207.346037,206.32 214.642342,203.033683 219.926316,197.705297 C225.185466,192.401944 228.451094,185.075753 228.451094,176.955 C228.451094,168.932845 225.216435,161.555929 219.966596,156.203143 C214.77047,150.905124 207.601298,147.59 199.641235,147.59 L179.375619,147.59 C173.275633,147.59 167.753133,145.117493 163.75563,141.119989 C159.758126,137.122485 157.285619,131.599985 157.285619,125.5 C157.285619,119.400015 159.758126,113.877515 163.75563,109.880011 C167.753133,105.882507 173.275633,103.41 179.375619,103.41 L201.528559,103.41 C208.696883,103.41 215.396521,99.9473836 220.320646,94.5680793 C225.29416,89.1348206 228.451094,81.7508674 228.451094,74.045 C228.451094,66.0637428 225.171161,58.8003439 219.889876,53.532557 C214.609055,48.2652342 207.327748,44.99375 199.326681,44.99375 L162.308298,44.99375 C156.164993,44.99375 150.603274,42.5036837 146.577382,38.4777912 C142.551489,34.4518986 140.061423,28.8901799 140.061423,22.746875 C140.061423,16.6035701 142.551489,11.0418514 146.577382,7.01595883 C150.603274,2.9900663 156.164993,0.5 162.308298,0.5 Z M387.061423,0.5 C409.00546,0.5 430.953149,8.34440125 446.613242,24.0470027 C460.213322,37.6840003 469.061423,57.246374 469.061423,82.7239437 L469.061423,168.511737 C469.061423,193.916075 460.213475,213.422202 446.613746,227.019997 C430.95352,242.677994 409.005624,250.5 387.061423,250.5 C365.117222,250.5 343.169325,242.677994 327.5091,227.019997 C313.90937,213.422202 305.061423,193.916075 305.061423,168.511737 L305.061423,82.7239437 C305.061423,57.246374 313.909523,37.6840003 327.509604,24.0470027 C343.169697,8.34440125 365.117385,0.5 387.061423,0.5 Z M387.061423,45.5 C377.161882,45.5 367.265951,49.0568264 360.203141,56.1568483 C354.068407,62.3239045 350.061423,71.1656473 350.061423,82.6923077 L350.061423,168.307692 C350.061423,179.834353 354.068407,188.676095 360.203141,194.843152 C367.265951,201.943174 377.161882,205.5 387.061423,205.5 C396.960964,205.5 406.856895,201.943174 413.919705,194.843152 C420.054439,188.676095 424.061423,179.834353 424.061423,168.307692 L424.061423,82.6923077 C424.061423,71.1656473 420.054439,62.3239045 413.919705,56.1568483 C406.856895,49.0568264 396.960964,45.5 387.061423,45.5 Z M584.061423,0.5 C606.00546,0.5 627.953149,8.34440125 643.613242,24.0470027 C657.213322,37.6840003 666.061423,57.246374 666.061423,82.7239437 L666.061423,168.511737 C666.061423,193.916075 657.213475,213.422202 643.613746,227.019997 C627.95352,242.677994 606.005624,250.5 584.061423,250.5 C562.117222,250.5 540.169325,242.677994 524.5091,227.019997 C510.90937,213.422202 502.061423,193.916075 502.061423,168.511737 L502.061423,82.7239437 C502.061423,57.246374 510.909523,37.6840003 524.509604,24.0470027 C540.169697,8.34440125 562.117385,0.5 584.061423,0.5 Z M584.061423,45.5 C574.161882,45.5 564.265951,49.0568264 557.203141,56.1568483 C551.068407,62.3239045 547.061423,71.1656473 547.061423,82.6923077 L547.061423,168.307692 C547.061423,179.834353 551.068407,188.676095 557.203141,194.843152 C564.265951,201.943174 574.161882,205.5 584.061423,205.5 C593.960964,205.5 603.856895,201.943174 610.919705,194.843152 C617.054439,188.676095 621.061423,179.834353 621.061423,168.307692 L621.061423,82.6923077 C621.061423,71.1656473 617.054439,62.3239045 610.919705,56.1568483 C603.856895,49.0568264 593.960964,45.5 584.061423,45.5 Z" id="形状结合" stroke-opacity="0.08" stroke="#000000" fill-opacity="0.08" fill="#000000" fill-rule="nonzero"></path>
                    <path d="M672.389678,41.7396122 L672.389678,54.1717452 C672.389678,57.3906014 669.780279,60 666.561423,60 C663.342566,60 660.733168,57.3906014 660.733168,54.1717452 L660.733168,41.7396122 L660.733168,41.7396122 L648.345356,41.7396122 C645.150978,41.7396122 642.561423,39.1500569 642.561423,35.9556787 C642.561423,32.7613004 645.150978,30.1717452 648.345356,30.1717452 L660.733168,30.1717452 L660.733168,30.1717452 L660.733168,17.8282548 C660.733168,14.6093986 663.342566,12 666.561423,12 C669.780279,12 672.389678,14.6093986 672.389678,17.8282548 L672.389678,30.1717452 L672.389678,30.1717452 L684.777489,30.1717452 C687.971867,30.1717452 690.561423,32.7613004 690.561423,35.9556787 C690.561423,39.1500569 687.971867,41.7396122 684.777489,41.7396122 L672.389678,41.7396122 L672.389678,41.7396122 Z" id="路径" fill="#007873"></path>
                </g>
            </g>
        </g>
    </g>
</svg>