<?xml version="1.0" encoding="UTF-8"?>
<svg width="64px" height="64px" viewBox="0 0 64 64" version="1.1" xmlns="http://www.w3.org/2000/svg" xmlns:xlink="http://www.w3.org/1999/xlink">
    <title>card-svg</title>
    <g id="白色版本" stroke="none" stroke-width="1" fill="none" fill-rule="evenodd">
        <g id="Apple-TV备份" transform="translate(-318, -680)">
            <g id="编组-11" transform="translate(240, 562)">
                <g id="card-svg" transform="translate(78, 118)">
                    <rect id="矩形" fill-opacity="0" fill="#D8D8D8" x="1.13686838e-13" y="0" width="64" height="64"></rect>
                    <g id="1797827" transform="translate(0, 0)">
                        <g id="编组" transform="translate(4.318, 4.299)" stroke-width="0.1">
                            <path d="M0.0271743417,27.6898224 C0.0306101781,27.7098196 0.0273305161,27.7280983 0.0173353559,27.7446584 C0.0101513346,27.7565318 0.00671549825,27.7694987 0.0070083252,27.7835592 C0.0669988081,30.394131 1.98138433,32.4094737 4.54982815,32.7380214 C4.55794922,32.7392713 4.56216592,32.74802 4.56247827,32.7642678" id="路径" stroke="#130D05"></path>
                            <path d="M4.56247827,32.7642678 C2.07415191,36.0469329 2.33418225,40.5987953 5.19311041,43.5660359 C5.65038899,44.0406569 6.16592061,44.4382574 6.73970527,44.7588375" id="路径" stroke="#808080"></path>
                            <path d="M6.73970527,44.7588375 C7.48981081,48.1183669 11.1780249,49.7400147 14.1746989,48.1038377 C14.1885212,48.0963399 14.1989283,48.0837463 14.2037473,48.0686863 C14.2109313,48.0461895 14.2210827,48.0336913 14.2342013,48.0311916" id="路径" stroke="#130D05"></path>
                            <path d="M14.2342013,48.0311916 C14.6408794,48.9107559 14.6919484,49.7889141 14.3874084,50.6656663 C13.7605244,52.4691637 11.7655529,53.4224676 9.96782966,52.7588106 C8.63862953,52.2680981 7.73953364,51.0153048 7.71751305,49.5928478 C7.71700061,49.5561993 7.68715379,49.5267598 7.65051425,49.5267633 L2.9104657,49.5417612 C2.88303734,49.5417612 2.86080225,49.564004 2.86080225,49.5914418 C2.89500444,54.6612003 7.42000086,58.4992564 12.4275761,57.7315515 C16.1359367,57.1630374 19.0417172,54.0917489 19.3987318,50.3539912 C19.6428324,47.7949747 18.7292123,45.3367253 16.8883849,43.5529127" id="路径" stroke="#808080"></path>
                            <line x1="16.8883849" y1="43.5529127" x2="21.4115072" y2="39.0244846" id="路径" stroke="#130D05"></line>
                            <line x1="21.4115072" y1="39.0244846" x2="23.1675319" y2="47.5137641" id="路径" stroke="#808080"></line>
                            <path d="M23.1677786,47.5137641 C23.1627719,47.6071885 23.1959411,47.6981133 23.2672861,47.7865384" id="路径" stroke="#130D05"></path>
                            <line x1="23.2304823" y1="47.7865384" x2="23.2804823" y2="47.8865384" id="路径" stroke="#808080"></line>
                            <path d="M23.2406215,47.8615279 C22.9120306,48.478004 22.7116589,49.1321311 22.6395063,49.8239092 C22.4689639,51.4596176 23.1328612,53.026898 24.3421194,54.1217447 C24.4091182,54.1822049 24.4953265,54.2225118 24.5684161,54.2867215" id="路径" stroke="#130D05"></path>
                            <path d="M24.5684161,54.2867215 L25.296501,57.8023228 C25.299846,57.8191557 25.3147343,57.8313056 25.3321088,57.8313812 L30.1147929,57.8384115 C30.1447784,57.8384115 30.1627385,57.8238823 30.1686731,57.7948239 L30.6578112,55.4481214" id="路径" stroke="#808080"></path>
                            <path d="M30.6578112,55.4481214 C30.7213771,55.3240762 30.7547105,55.1947193 30.7578112,55.0600507" id="路径" stroke="#130D05"></path>
                            <line x1="30.7383972" y1="55.0600507" x2="30.8383972" y2="54.8088359" id="路径" stroke="#808080"></line>
                            <path d="M30.7960256,54.8088359 C30.868394,54.6913524 30.9014835,54.578087 30.8952941,54.4690398" id="路径" stroke="#130D05"></path>
                            <line x1="30.8611503" y1="54.4690398" x2="30.9611503" y2="54.2393844" id="路径" stroke="#808080"></line>
                            <path d="M30.9089396,54.2393844 C30.9211212,54.2421965 30.9270559,54.2354787 30.9267435,54.219231 C30.9264312,54.208295 30.9303355,54.19939 30.9384566,54.192516 C32.6612162,52.7039745 33.2079827,50.392892 32.3309073,48.288968 C32.2943625,48.2014802 32.2601604,48.1341459 32.2283008,48.086965 C32.2201797,48.0747792 32.2158068,48.0613436 32.2151821,48.0466582 L32.2090913,47.9346426" id="路径" stroke="#130D05"></path>
                            <line x1="32.2173292" y1="47.9346426" x2="32.2863292" y2="47.8127847" id="路径" stroke="#808080"></line>
                            <path d="M32.2414194,47.8127847 C32.3051386,47.6406213 32.3441822,47.4631462 32.3585502,47.2803593" id="路径" stroke="#130D05"></path>
                            <line x1="32.3667881" y1="47.2803593" x2="32.4357881" y2="47.1167884" id="路径" stroke="#808080"></line>
                            <path d="M32.3908783,47.1167884 C32.468903,47.0258637 32.5012688,46.924003 32.4879757,46.8112063" id="路径" stroke="#130D05"></path>
                            <line x1="32.4433529" y1="46.8112063" x2="33.6216886" y2="41.1546549" id="路径" stroke="#808080"></line>
                            <path d="M33.6216886,41.1546549 C33.6918184,41.0356091 33.7250618,40.9140636 33.7214187,40.7900185" id="路径" stroke="#130D05"></path>
                            <line x1="33.690093" y1="40.7900185" x2="33.790093" y2="40.4872484" id="路径" stroke="#808080"></line>
                            <path d="M33.7669307,40.4872484 C33.7900446,40.4066347 33.8084731,40.3250836 33.8222165,40.2425952 C33.8550131,40.0504346 33.9168582,39.8643669 33.9243545,39.6628326" id="路径" stroke="#130D05"></path>
                            <line x1="33.9243545" y1="39.6628326" x2="34.0243545" y2="39.3600625" id="路径" stroke="#808080"></line>
                            <path d="M33.9861996,39.3600625 L34.0536669,39.1702454 C34.0605386,39.1502482 34.0714708,39.1477485 34.0864635,39.1627464 L36.0322401,41.1016936" id="路径" stroke="#130D05"></path>
                            <path d="M36.0322401,41.1016936 C36.0331771,43.8569326 36.0336457,46.6265446 36.0336457,49.4105296 C36.0336457,49.7979754 36.0458273,50.1099629 36.0701905,50.3464923 C36.4309533,53.8536572 38.9413002,56.7805909 42.3924416,57.6050067 C47.4440581,58.8114002 52.2051901,55.1748784 52.5940643,50.1041825 C52.6106188,49.8879627 52.6188961,49.5755065 52.6188961,49.1668138 C52.6204578,46.5346825 52.6199893,43.9009889 52.6174905,41.2657331 C52.6174905,41.2488605 52.6090571,41.2404241 52.5921902,41.2404241 L48.0728161,41.236206" id="路径" stroke="#808080"></path>
                            <path d="M48.0728161,41.236206 C47.9616199,40.9728054 47.7960751,40.7128418 47.5761816,40.4563152 C46.5557382,39.2667944 45.2612088,38.6517243 43.6925933,38.611105 C43.6769759,38.6107925 43.6637011,38.6051683 43.6527689,38.5942323 L41.2787621,36.2203461" id="路径" stroke="#130D05"></path>
                            <path d="M41.2787621,36.2203461 C42.2111232,34.4454385 44.4708103,33.8131833 46.1706122,34.9188097 C47.1610701,35.5630944 47.6922191,36.5151486 47.7640594,37.7749721 C47.7649964,37.7927821 47.774523,37.8016871 47.7926393,37.8016871 L52.5837568,37.8016871 C52.5996866,37.8016871 52.6076611,37.7937195 52.6076611,37.7777842 C52.6104627,35.9456971 51.9957603,34.1825066 50.8802067,32.7328659" id="路径" stroke="#808080"></path>
                            <path d="M50.8802067,32.7328659 C53.4111687,32.3658861 55.2712055,30.40163 55.3602249,27.8323024 C55.3616305,27.7807471 55.3452322,27.7404403 55.3363302,27.6898224" id="路径" stroke="#130D05"></path>
                            <path d="M55.3363302,27.6898224 C55.3453884,27.6916971 55.35226,27.6904473 55.3569453,27.6860729 C55.3603811,27.6829483 55.362099,27.6771679 55.362099,27.6687316 C55.3129041,23.1923274 49.9539365,20.9313941 46.7309659,24.0884519 C46.720346,24.0990754 46.7075397,24.1043871 46.692547,24.1043871 L36.394877,24.1043871 C36.3530223,24.1043871 36.3469315,24.0895455 36.3766046,24.0598621 L43.6560485,16.7779135 C43.6679178,16.7657277 43.682442,16.7594786 43.6996212,16.7591661 C44.8877958,16.7413561 45.9230758,16.3801567 46.805461,15.6755679 C49.4797911,13.5393047 49.3635973,9.42238137 46.5177878,7.50124424 C43.1411416,5.22250096 38.6583123,7.61747796 38.6086488,11.6659733 C38.6086488,11.6831584 38.602558,11.6978439 38.5903764,11.7100297 L31.2861008,19.0158812 C31.2827477,19.0193647 31.2775997,19.0204297 31.2731404,19.0185624 C31.2686811,19.0166951 31.2658267,19.0122791 31.2659543,19.0074449 L31.2659543,8.67389247 C31.2659543,8.65983194 31.2707957,8.64780238 31.2804785,8.63780378 C33.7191414,6.10925174 33.0154196,1.95436503 29.8163437,0.468635657 C27.8911821,-0.425614072 25.5860483,-0.0159839549 24.0928651,1.49177358 C22.1138234,3.48977494 22.1395921,6.6224611 24.0825576,8.63639773 C24.0925527,8.64670878 24.0975503,8.6590508 24.0975503,8.67342379 L24.0975503,18.9971338 C24.0975503,19.0221303 24.0888046,19.0257236 24.071313,19.0079136 L16.7768764,11.7137791 C16.7665689,11.7034681 16.7612589,11.6911261 16.7609466,11.6767531 C16.6939478,8.64155325 14.2014047,6.37358971 11.1738082,6.65386295 C8.77918647,6.87555064 6.88447892,8.82527752 6.64834326,11.1930708 C6.35645335,14.1260975 8.67330025,16.7676024 11.6643519,16.7568227 C11.6787229,16.7568361 11.6924084,16.7625826 11.7023023,16.7727579 L18.996739,24.0697045 C19.0201651,24.0928263 19.0154799,24.1043871 18.9826833,24.1043871 L8.68220219,24.1043871 C8.66626627,24.1044055 8.65083257,24.0981964 8.63909806,24.0870458 C5.38848456,20.936081 0.0674673312,23.1852971 0,27.6692003 C0,27.6798238 0.00499758009,27.686854 0.0149927403,27.6902911 C0.0190532741,27.6915409 0.0231138079,27.6911243 0.0271743417,27.6898224" id="路径" stroke="#80591E"></path>
                            <line x1="55.3363302" y1="27.7163882" x2="0.0271743417" y2="27.7163882" id="路径" stroke="#936622"></line>
                            <path d="M50.8802067,32.7328659 C48.0254953,29.1122794 42.8637759,28.4237821 39.2008621,31.2799445" id="路径" stroke="#938D84"></path>
                            <path d="M39.2008621,31.2799445 L36.3920659,31.276195 C36.3548964,31.276195 36.3494303,31.2893181 36.3756676,31.3155645 C36.7823456,31.7258195 37.1990189,32.1421674 37.6256873,32.5646082 C37.6653556,32.6039777 37.7098653,32.6602198 37.7592164,32.7333346" id="路径" stroke="#130D05"></path>
                            <path d="M37.7592164,32.7333346 C36.5757269,34.2860858 36.0327086,36.0211553 36.0331771,37.9657266 C36.0334895,38.9990194 36.0331771,40.0443417 36.0322401,41.1016936 M33.9861996,39.3600625 L36.0242752,29.5528426 C36.0305222,29.521597 36.0177159,29.5059742 35.9858563,29.5059742 L31.1863053,29.5059742 C31.1761576,29.5059742 31.1674943,29.5130828 31.1656903,29.5228468 L27.7417233,46.0678729 C27.7417233,46.0704614 27.7396256,46.0725597 27.737038,46.0725597 C27.7344504,46.0725597 27.7323528,46.0704614 27.7323528,46.0678729 L24.3046375,29.5317518 C24.3008894,29.5145668 24.2902695,29.5059742 24.272778,29.5059742 L19.4708844,29.5059742 C19.4640942,29.5059742 19.4576636,29.50902 19.4533879,29.5142072 C19.4491123,29.5193944 19.4474495,29.5261872 19.4488638,29.5326892 L21.4115072,39.0244846 M16.8883849,43.5529127 C15.3539716,42.1074902 13.3833633,41.5155418 11.3298264,41.2591715 C11.0040467,41.2185522 10.652342,41.1565296 10.2747123,41.0731038 C9.47947238,40.8981283 8.85024582,40.4855299 8.38703261,39.8353085" id="形状" stroke="#938D84"></path>
                            <path d="M8.38703261,39.8353085 C9.33438639,39.0382326 10.4262015,38.6326644 11.6624778,38.6186039 C11.6784076,38.6186039 11.6919948,38.6129797 11.7032393,38.6017313 L14.1573635,36.1528556" id="路径" stroke="#130D05"></path>
                            <path d="M14.1573635,36.1528556 C14.4356663,36.6749699 14.5768479,37.2152068 14.5809084,37.773566 C14.5812208,37.7923134 14.5905912,37.8016871 14.6090198,37.8016871 L19.4118505,37.8016871 C19.4271556,37.8016871 19.4349643,37.7938757 19.4352766,37.7782529 C19.4469897,35.9147639 18.7905888,34.1084545 17.6473923,32.6545956" id="路径" stroke="#938D84"></path>
                            <path d="M17.6473923,32.6545956 L19.0122002,31.2930676 C19.0153346,31.2901161 19.0163055,31.285527 19.014635,31.2815584 C19.0129646,31.2775897 19.0090047,31.2750774 19.0047039,31.2752576 L16.4507843,31.2752576 C16.3908133,31.2752576 16.3247515,31.224171 16.2689973,31.2780697" id="路径" stroke="#130D05"></path>
                            <path d="M16.2689973,31.2780697 C12.5559515,28.4420607 7.44670668,29.0865017 4.56247827,32.7642678" id="路径" stroke="#938D84"></path>
                            <path d="M16.2689973,31.2780697 C16.7734405,31.6839504 17.2329055,32.1427923 17.6473923,32.6545956 M14.1573635,36.1528556 C14.0708429,35.9972524 14.0032194,35.8869553 13.954493,35.8219644 C13.2782579,34.9202158 12.3958727,34.4398143 11.3073373,34.3807601 C8.43294788,34.2251569 6.69097887,37.507822 8.38703261,39.8353085" id="形状" stroke="#808080"></path>
                            <path d="M14.2342013,48.0311916 C13.8109688,47.1722494 13.1400436,46.6135777 12.2214259,46.3551764 C11.7382224,46.2192579 11.3748046,46.1331762 11.1311726,46.0969313 C9.59301116,45.8668073 8.10779282,45.4988901 6.73970527,44.7588375 M41.2787621,36.2203461 C40.8144557,37.1178766 40.8941047,37.9699448 40.8941047,38.9176245 C40.8937923,41.9234535 40.8939485,44.930376 40.8945732,47.9383921" id="形状" stroke="#938D84"></path>
                            <path d="M40.8945732,47.9383921 C40.8905126,48.3942657 40.8897318,48.8506081 40.8922306,49.3074191 C40.8941047,49.714862 40.9172185,50.0257559 40.961572,50.2401009 C41.5102126,52.8989472 44.8170489,53.874748 46.7342455,51.9709522 C47.4129794,51.2969841 47.753908,50.4521025 47.7570315,49.4363073 C47.7595303,48.563617 47.7587494,47.6618683 47.7546889,46.7310612" id="路径" stroke="#808080"></path>
                            <path d="M47.7546889,46.7310612 L47.7570315,46.1208342 C47.7571574,46.1145383 47.754745,46.1084566 47.750338,46.1039599 C47.745931,46.0994632 47.7399004,46.0969301 47.7336054,46.0969313 L44.354148,46.0978687 C44.333533,46.0978687 44.3232255,46.0875576 44.3232255,46.0669355 L44.3274422,41.2690139 C44.3274422,41.2512039 44.3361879,41.2422989 44.3536795,41.2422989 L48.0728161,41.236206" id="路径" stroke="#938D84"></path>
                            <path d="M37.7592164,32.7333346 C38.1737032,32.2027839 38.6542517,31.7183205 39.2008621,31.2799445" id="路径" stroke="#808080"></path>
                            <path d="M33.9243545,39.6628326 C33.8821874,39.7846906 33.8475167,39.8765527 33.8386148,40.0124712 C33.8287758,40.1708865 33.7364767,40.3494552 33.7669307,40.4872484 M33.7216886,40.7900185 L33.6216886,41.1546549 M32.4896454,46.8112063 C32.4128777,46.923378 32.3803096,47.0252388 32.391941,47.1167884 M32.3585502,47.2803593 C32.2729667,47.4547099 32.2339231,47.632185 32.2414194,47.8127847 M32.2090913,47.9346426 L30.9089396,54.2393844 M30.8953241,54.4690398 C30.8217758,54.5805866 30.7887976,54.693852 30.7963897,54.8088359 M30.7571539,55.0600507 C30.6844908,55.1869079 30.6514271,55.3162648 30.657963,55.4481214 M24.5684161,54.2867215 L23.2406215,47.8615279 M23.2675319,47.7865384 L23.1675319,47.5137641" id="形状" stroke="#938D84"></path>
                            <path d="M47.7546889,46.7310612 C47.6453668,46.8332344 47.5441658,46.9371261 47.4510859,47.0427363 C45.9892937,48.704691 43.6396502,49.2075893 41.6156303,48.3170891 C41.3657513,48.2071045 41.1253989,48.0808721 40.8945732,47.9383921" id="路径" stroke="#130D05"></path>
                        </g>
                        <path d="M22.6016083,9.34103581 C22.6076228,9.34703257 22.6166383,9.34873744 22.6245037,9.34536541 C22.632369,9.34199339 22.6375593,9.33419823 22.6376846,9.32556923 C22.6615792,4.96211798 25.6887072,1.17936664 29.9499251,0.225125316 C33.4188704,-0.551484643 37.0789731,0.71536914 39.2964931,3.49747941 C40.6411545,5.18443059 41.3311329,7.13087667 41.3664283,9.33681765 C41.3665073,9.34244292 41.3699306,9.34747959 41.3751309,9.34962162 C41.3803312,9.35176365 41.3863073,9.35059866 41.390323,9.34666002 C45.1450674,5.63280528 51.1777712,5.74107136 54.8041403,9.56928509 C58.282456,13.2404896 58.1657938,18.9851536 54.6481221,22.5752756 C54.6407676,22.5825893 54.6385124,22.5936005 54.642399,22.6032181 C54.6462857,22.6128357 54.6555568,22.6191856 54.665926,22.619332 C59.7564298,22.6985396 63.881776,26.6856373 63.9759491,31.8364783 C63.9782918,31.9569302 64,32.0816002 64,32.1842421 C64,39.6922528 64,47.2002635 64,54.7082743 C64,59.6280539 60.3041333,63.5982789 55.3874516,63.9741638 C55.1644346,63.9910364 54.8523982,63.9994727 54.4513424,63.9994727 C39.4760936,64.0001758 24.5010011,64.0001758 9.52606467,63.9994727 C9.13281759,63.9994727 8.82046883,63.9899428 8.58901841,63.970883 C3.9408004,63.5889052 0.42125462,60.0972069 0.0300378038,55.442234 C0.0106721809,55.2119537 0.000194917229,54.89981 0.000194917229,54.5058027 C-0.000728548657,47.0196638 0.00161406701,39.533525 0.00754869337,32.0473862 C0.0117654016,26.8365537 4.14929319,22.6802609 9.35271111,22.6212067 C9.35941727,22.6213043 9.36550687,22.6173068 9.36808644,22.6111137 C9.370666,22.6049206 9.36921552,22.5977804 9.36442419,22.5930856 C5.78115927,18.9373478 5.70057329,13.0159898 9.38644478,9.37337503 C13.0887146,5.71435636 18.8548288,5.71576241 22.6016083,9.34103581 L22.6016083,9.34103581 Z M4.34513586,31.9888007 C4.3485717,32.0087979 4.34529204,32.0270766 4.33529688,32.0436368 C4.32811286,32.0555101 4.32467702,32.068477 4.32498937,32.0825376 C4.38496033,34.6931094 6.29934585,36.708452 8.86778967,37.0369998 C8.87591074,37.0382496 8.88012745,37.0469984 8.88043979,37.0632461 C6.39211343,40.3459112 6.65214377,44.8977736 9.51107193,47.8650142 C9.96835051,48.3396352 10.4838821,48.7372357 11.0576668,49.0578158 C11.8077723,52.4173452 15.4959864,54.038993 18.4926604,52.402816 C18.5064827,52.3953182 18.5168898,52.3827247 18.5217088,52.3676647 C18.5288929,52.3451678 18.5390442,52.3326696 18.5521628,52.3301699 C18.9588409,53.2097342 19.0099099,54.0878924 18.7053699,54.9646446 C18.0784859,56.768142 16.0835144,57.7214459 14.2857912,57.0577889 C12.9565911,56.5670764 12.0574952,55.3142831 12.0354746,53.8918262 C12.0349621,53.8551776 12.0051153,53.8257381 11.9684758,53.8257417 L7.22842723,53.8407396 C7.20099886,53.8407396 7.17876377,53.8629823 7.17876377,53.8904201 C7.21296596,58.9601787 11.7379624,62.7982348 16.7455376,62.0305298 C20.4538982,61.4620157 23.3596787,58.3907272 23.7166933,54.6529695 C23.9607939,52.093953 23.0471738,49.6357036 21.2063464,47.851891 L25.7294687,43.3234629 L27.4854934,51.8127424 C27.4829946,51.9061668 27.4995491,51.9970916 27.5351569,52.0855167 L27.558583,52.1605062 C27.2299921,52.7769823 27.0296204,53.4311095 26.9574679,54.1228875 C26.7869254,55.7585959 27.4508227,57.3258764 28.6600809,58.420723 C28.7270797,58.4811833 28.813288,58.5214901 28.8863776,58.5856999 L29.6144625,62.1013011 C29.6178075,62.118134 29.6326958,62.1302839 29.6500703,62.1303596 L34.4327544,62.1373898 C34.4627399,62.1373898 34.4807,62.1228606 34.4866346,62.0938022 L34.9757728,59.7470997 C35.026998,59.6230546 35.0538599,59.4936977 35.0563587,59.359029 L35.1139871,59.1078142 C35.1614641,58.9903307 35.1831723,58.8770653 35.1791118,58.7680181 L35.2269012,58.5383628 C35.2390828,58.5411749 35.2450174,58.534457 35.244705,58.5182093 C35.2443927,58.5072734 35.248297,58.4983684 35.2564181,58.4914943 C36.9791777,57.0029528 37.5259442,54.6918703 36.6488689,52.5879463 C36.6123241,52.5004586 36.5781219,52.4331243 36.5462623,52.3859434 C36.5381412,52.3737576 36.5337683,52.360322 36.5331437,52.3456365 L36.5270529,52.233621 L36.5593809,52.111763 C36.6231001,51.9395996 36.6621437,51.7621245 36.6765117,51.5793376 L36.7088398,51.4157668 C36.7510069,51.324842 36.7684984,51.2229813 36.7613144,51.1101846 L37.9396501,45.4536332 C37.9877518,45.3345874 38.0105533,45.2130419 38.0080545,45.0889968 L38.0848923,44.7862267 C38.1080061,44.705613 38.1264347,44.6240619 38.140178,44.5415735 C38.1729746,44.3494129 38.2348197,44.1633452 38.242316,43.961811 L38.3041611,43.6590409 L38.3716284,43.4692237 C38.3785001,43.4492265 38.3894323,43.4467269 38.404425,43.4617248 L40.3502016,45.4006719 C40.3511387,48.1559109 40.3516072,50.9255229 40.3516072,53.709508 C40.3516072,54.0969537 40.3637888,54.4089412 40.388152,54.6454706 C40.7489148,58.1526355 43.2592618,61.0795693 46.7104032,61.903985 C51.7620196,63.1103785 56.5231517,59.4738567 56.9120259,54.4031608 C56.9285803,54.1869411 56.9368576,53.8744848 56.9368576,53.4657921 C56.9384193,50.8336608 56.9379508,48.1999673 56.935452,45.5647114 C56.935452,45.5478388 56.9270186,45.5394025 56.9101518,45.5394025 L52.3907776,45.5351843 C52.2795815,45.2717837 52.1140366,45.0118201 51.8941431,44.7552936 C50.8736997,43.5657727 49.5791703,42.9507026 48.0105549,42.9100833 C47.9949374,42.9097708 47.9816626,42.9041466 47.9707304,42.8932107 L45.5967237,40.5193244 C46.5290847,38.7444168 48.7887718,38.1121617 50.4885737,39.217788 C51.4790316,39.8620728 52.0101807,40.8141269 52.0820209,42.0739504 C52.0829579,42.0917604 52.0924846,42.1006654 52.1106008,42.1006654 L56.9017184,42.1006654 C56.9176481,42.1006654 56.925613,42.0926978 56.925613,42.0767625 C56.9284242,40.2446754 56.3137218,38.4814849 55.1981682,37.0318442 C57.7291302,36.6648644 59.589167,34.7006083 59.6781864,32.1312807 C59.6800605,32.0797255 59.6631937,32.0394186 59.6542918,31.9888007 C59.6633499,31.9906754 59.6702215,31.9894256 59.6749068,31.9850512 C59.6783426,31.9819267 59.6800605,31.9761462 59.6800605,31.9677099 C59.6308656,27.4913057 54.271898,25.2303725 51.0489274,28.3874302 C51.0383075,28.3980537 51.0255012,28.4033655 51.0105085,28.4033655 L40.7128385,28.4033655 C40.6709838,28.4033655 40.664893,28.3885238 40.6945661,28.3588405 L47.97401,21.0768918 C47.9858793,21.064706 48.0004035,21.0584569 48.0175827,21.0581444 C49.2057574,21.0403344 50.2410373,20.679135 51.1234225,19.9745462 C53.7977526,17.838283 53.6815589,13.7213597 50.8357493,11.8002226 C47.4591031,9.52147928 42.9762738,11.9164563 42.9266103,15.9649517 C42.9266103,15.9821367 42.9205195,15.9968222 42.9083379,16.009008 L35.6040623,23.3148595 C35.6007092,23.3183431 35.5955612,23.3194081 35.5911019,23.3175407 C35.5866426,23.3156734 35.5837882,23.3112574 35.5839158,23.3064232 L35.5839158,12.9728708 C35.5839158,12.9588103 35.5887572,12.9467807 35.59844,12.9367821 C38.0371029,10.4082301 37.3333812,6.25334335 34.1343052,4.76761398 C32.2091437,3.87336425 29.9040098,4.28299437 28.4108266,5.7907519 C26.4317849,7.78875326 26.4575537,10.9214394 28.4005191,12.935376 C28.4105143,12.9456871 28.4155118,12.9580291 28.4155118,12.9724021 L28.4155118,23.2961122 C28.4155118,23.3211087 28.4067661,23.3247019 28.3892745,23.3068919 L21.0948379,16.0127575 C21.0845304,16.0024464 21.0792204,15.9901044 21.0789081,15.9757314 C21.0119093,12.9405316 18.5193662,10.672568 15.4917697,10.9528413 C13.097148,11.174529 11.2024404,13.1242558 10.9663048,15.4920491 C10.6744149,18.4250758 12.9912618,21.0665807 15.9823135,21.055801 C15.9966844,21.0558144 16.0103699,21.0615609 16.0202638,21.0717363 L23.3147005,28.3686828 C23.3381266,28.3918046 23.3334414,28.4033655 23.3006448,28.4033655 L13.0001637,28.4033655 C12.9842278,28.4033839 12.9687941,28.3971747 12.9570596,28.3860241 C9.70644608,25.2350593 4.38542885,27.4842755 4.31796152,31.9681786 C4.31796152,31.9788021 4.3229591,31.9858324 4.33295426,31.9892694 C4.33701479,31.9905192 4.34107533,31.990363 4.34513586,31.9888007 Z" id="形状" fill="#000000" fill-rule="nonzero"></path>
                        <path d="M59.6542918,31.9888007 L4.34513586,31.9888007 C4.34107533,31.9901026 4.33701479,31.9905192 4.33295426,31.9892694 C4.3229591,31.9858324 4.31796152,31.9788021 4.31796152,31.9681786 C4.38542885,27.4842755 9.70644608,25.2350593 12.9570596,28.3860241 C12.9687941,28.3971747 12.9842278,28.4033839 13.0001637,28.4033655 L23.3006448,28.4033655 C23.3334414,28.4033655 23.3381266,28.3918046 23.3147005,28.3686828 L16.0202638,21.0717363 C16.0103699,21.0615609 15.9966844,21.0558144 15.9823135,21.055801 C12.9912618,21.0665807 10.6744149,18.4250758 10.9663048,15.4920491 C11.2024404,13.1242558 13.097148,11.174529 15.4917697,10.9528413 C18.5193662,10.672568 21.0119093,12.9405316 21.0789081,15.9757314 C21.0792204,15.9901044 21.0845304,16.0024464 21.0948379,16.0127575 L28.3892745,23.3068919 C28.4067661,23.3247019 28.4155118,23.3211087 28.4155118,23.2961122 L28.4155118,12.9724021 C28.4155118,12.9580291 28.4105143,12.9456871 28.4005191,12.935376 C26.4575537,10.9214394 26.4317849,7.78875326 28.4108266,5.7907519 C29.9040098,4.28299437 32.2091437,3.87336425 34.1343052,4.76761398 C37.3333812,6.25334335 38.0371029,10.4082301 35.59844,12.9367821 C35.5887572,12.9467807 35.5839158,12.9588103 35.5839158,12.9728708 L35.5839158,23.3064232 C35.5837882,23.3112574 35.5866426,23.3156734 35.5911019,23.3175407 C35.5955612,23.3194081 35.6007092,23.3183431 35.6040623,23.3148595 L42.9083379,16.009008 C42.9205195,15.9968222 42.9266103,15.9821367 42.9266103,15.9649517 C42.9762738,11.9164563 47.4591031,9.52147928 50.8357493,11.8002226 C53.6815589,13.7213597 53.7977526,17.838283 51.1234225,19.9745462 C50.2410373,20.679135 49.2057574,21.0403344 48.0175827,21.0581444 C48.0004035,21.0584569 47.9858793,21.064706 47.97401,21.0768918 L40.6945661,28.3588405 C40.664893,28.3885238 40.6709838,28.4033655 40.7128385,28.4033655 L51.0105085,28.4033655 C51.0255012,28.4033655 51.0383075,28.3980537 51.0489274,28.3874302 C54.271898,25.2303725 59.6308656,27.4913057 59.6800605,31.9677099 C59.6800605,31.9761462 59.6783426,31.9819267 59.6749068,31.9850512 C59.6702215,31.9894256 59.6633499,31.9906754 59.6542918,31.9888007 Z" id="路径" fill="#FFB13B" fill-rule="nonzero"></path>
                        <path d="M4.34513586,31.9888007 L59.6542918,31.9888007 C59.6631937,32.0394186 59.679592,32.0797255 59.6782713,32.1312807 C59.589167,34.7006083 57.7291302,36.6648644 55.1981682,37.0318442 C52.3434568,33.4112577 47.1817374,32.7227604 43.5188236,35.5789228 L40.7100274,35.5751733 C40.6728579,35.5751733 40.6673918,35.5882965 40.6936291,35.6145428 C41.1003072,36.0247978 41.5169804,36.4411457 41.9436488,36.8635866 C41.9833171,36.902956 42.0278268,36.9591982 42.0771779,37.0323129 C40.8936885,38.5850642 40.3506701,40.3201336 40.3511387,42.2647049 C40.351451,43.2979977 40.3511387,44.34332 40.3502016,45.4006719 L38.404425,43.4617248 C38.3894323,43.4467269 38.3785001,43.4492265 38.3716284,43.4692237 L38.3041611,43.6590409 L40.3422367,33.851821 C40.3484837,33.8205753 40.3356774,33.8049525 40.3038178,33.8049525 L35.5042669,33.8049525 C35.4941192,33.8049705 35.4854558,33.8120611 35.4836518,33.8218252 L32.0596848,50.3668512 C32.0596848,50.3694397 32.0575871,50.3715381 32.0549995,50.3715381 C32.052412,50.3715381 32.0503143,50.3694397 32.0503143,50.3668512 L28.6225991,33.8307302 C28.6188509,33.8135451 28.608231,33.8049525 28.5907395,33.8049525 L23.7888459,33.8049525 C23.7820557,33.8049725 23.7756251,33.8079984 23.7713495,33.8131855 C23.7670738,33.8183727 23.765411,33.8251655 23.7668253,33.8316675 L25.7294687,43.3234629 L21.2063464,47.851891 C19.6719331,46.4064685 17.7013248,45.8145202 15.6477879,45.5581498 C15.3220082,45.5175305 14.9703035,45.455508 14.5926738,45.3720821 C13.7974339,45.1971067 13.1682073,44.7845082 12.7049941,44.1342868 C13.6523479,43.337211 14.744163,42.9316428 15.9804394,42.9175822 C15.9963691,42.9175822 16.0099563,42.911958 16.0212009,42.9007096 L18.475325,40.4518339 C18.7536278,40.9739483 18.8948094,41.5141851 18.89887,42.0725444 C18.8991823,42.0912917 18.9085528,42.1006654 18.9269813,42.1006654 L23.729812,42.1006654 C23.7451171,42.1006654 23.7529258,42.092854 23.7532381,42.0772312 C23.7649512,40.2137423 23.1085503,38.4074328 21.9653539,36.953574 L23.3301618,35.5920459 C23.3332961,35.5890945 23.334267,35.5845053 23.3325966,35.5805367 C23.3309261,35.576568 23.3269662,35.5740557 23.3226654,35.5742359 L20.7687458,35.5742359 C20.7087748,35.5742359 20.6427131,35.5231493 20.5869588,35.577048 C16.873913,32.7410391 11.7646682,33.38548 8.88043979,37.0632461 C8.88012745,37.0469984 8.87591074,37.0382496 8.86778967,37.0369998 C6.29934585,36.708452 4.38496033,34.6931094 4.32496985,32.0825376 C4.32496985,32.068477 4.32811286,32.0555101 4.33529688,32.0436368 C4.34529204,32.0270766 4.3485717,32.0087979 4.34513586,31.9888007 Z" id="路径" fill="#261A09" fill-rule="nonzero"></path>
                        <path d="M38.3041611,43.6590409 L38.242316,43.961811 C38.200149,44.0836689 38.1654782,44.175531 38.1565763,44.3114495 C38.1467373,44.4698648 38.0544383,44.6484335 38.0848923,44.7862267 L38.0080545,45.0889968 L37.9396501,45.4536332 L36.7613144,51.1101846 C36.7200844,51.2223564 36.7025929,51.3242171 36.7088398,51.4157668 L36.6765117,51.5793376 C36.5909282,51.7536882 36.5518846,51.9311633 36.5593809,52.111763 L36.5270529,52.233621 L35.2269012,58.5383628 L35.1791118,58.7680181 C35.1306977,58.879565 35.1089895,58.9928303 35.1139871,59.1078142 L35.0563587,59.359029 C34.9973248,59.4858863 34.9704628,59.6152431 34.9757728,59.7470997 L34.4866346,62.0938022 C34.4807,62.1228606 34.4627399,62.1373898 34.4327544,62.1373898 L29.6500703,62.1303596 C29.6326958,62.1302839 29.6178075,62.118134 29.6144625,62.1013011 L28.8863776,58.5856999 L27.558583,52.1605062 L27.5351569,52.0855167 L27.4854934,51.8127424 L25.7294687,43.3234629 L23.7668253,33.8316675 C23.765411,33.8251655 23.7670738,33.8183727 23.7713495,33.8131855 C23.7756251,33.8079984 23.7820557,33.8049525 23.7888459,33.8049525 L28.5907395,33.8049525 C28.608231,33.8049525 28.6188509,33.8135451 28.6225991,33.8307302 L32.0503143,50.3668512 C32.0503143,50.3694397 32.052412,50.3715381 32.0549995,50.3715381 C32.0575871,50.3715381 32.0596848,50.3694397 32.0596848,50.3668512 L35.4836518,33.8218252 C35.4854558,33.8120611 35.4941192,33.8049525 35.5042669,33.8049525 L40.3038178,33.8049525 C40.3356774,33.8049525 40.3484837,33.8205753 40.3422367,33.851821 L38.3041611,43.6590409 Z M20.5869588,35.577048 C21.091402,35.9829287 21.5508671,36.4417707 21.9653539,36.953574 C23.1085503,38.4074328 23.7649512,40.2137423 23.7532381,42.0772312 C23.7529258,42.092854 23.7451171,42.1006654 23.729812,42.1006654 L18.9269813,42.1006654 C18.9085528,42.1006654 18.8991823,42.0912917 18.89887,42.0725444 C18.8948094,41.5141851 18.7536278,40.9739483 18.475325,40.4518339 C18.3888044,40.2962307 18.3211809,40.1859337 18.2724545,40.1209428 C17.5962195,39.2191941 16.7138342,38.7387926 15.6252988,38.6797384 C12.7509094,38.5241352 11.0089404,41.8068003 12.7049941,44.1342868 C13.1682073,44.7845082 13.7974339,45.1971067 14.5926738,45.3720821 C14.9703035,45.455508 15.3220082,45.5175305 15.6477879,45.5581498 C17.7013248,45.8145202 19.6719331,46.4064685 21.2063464,47.851891 C23.0471738,49.6357036 23.9607939,52.093953 23.7166933,54.6529695 C23.3596787,58.3907272 20.4538982,61.4620157 16.7455376,62.0305298 C11.7379624,62.7982348 7.21296596,58.9601787 7.17876377,53.8904201 C7.17876377,53.8629823 7.20099886,53.8407396 7.22842723,53.8407396 L11.9684758,53.8257417 C12.0051153,53.8257381 12.0349621,53.8551776 12.0354746,53.8918262 C12.0574952,55.3142831 12.9565911,56.5670764 14.2857912,57.0577889 C16.0835144,57.7214459 18.0784859,56.768142 18.7053699,54.9646446 C19.0099099,54.0878924 18.9588409,53.2097342 18.5521628,52.3301699 C18.1289303,51.4712278 17.4580051,50.912556 16.5393875,50.6541547 C16.0561839,50.5182363 15.6927662,50.4321546 15.4491341,50.3959096 C13.9109727,50.1657856 12.4257543,49.7978684 11.0576668,49.0578158 C10.4838821,48.7372357 9.96835051,48.3396352 9.51107193,47.8650142 C6.65214377,44.8977736 6.39211343,40.3459112 8.88043979,37.0632461 C11.7646682,33.38548 16.873913,32.7410391 20.5869588,35.577048 L20.5869588,35.577048 Z M55.1981682,37.0318442 C56.3137218,38.4814849 56.9284242,40.2446754 56.925613,42.0767625 C56.925613,42.0926978 56.9176481,42.1006654 56.9017184,42.1006654 L52.1106008,42.1006654 C52.0924846,42.1006654 52.0829579,42.0917604 52.0820209,42.0739504 C52.0101807,40.8141269 51.4790316,39.8620728 50.4885737,39.217788 C48.7887718,38.1121617 46.5290847,38.7444168 45.5967237,40.5193244 C45.1324172,41.416855 45.2120662,42.2689231 45.2120662,43.2166029 C45.2117538,46.2224318 45.21191,49.2293543 45.2125347,52.2373704 C45.2084742,52.6932441 45.2076933,53.1495864 45.2101921,53.6063974 C45.2120662,54.0138403 45.23518,54.3247343 45.2795335,54.5390792 C45.8281741,57.1979255 49.1350104,58.1737263 51.052207,56.2699305 C51.7309409,55.5959624 52.0718695,54.7510808 52.074993,53.7352856 C52.0774918,52.8625953 52.076711,51.9608467 52.0726504,51.0300396 L52.074993,50.4198125 C52.0751189,50.4135166 52.0727065,50.4074349 52.0682995,50.4029382 C52.0638926,50.3984416 52.0578619,50.3959084 52.0515669,50.3959096 L48.6721095,50.396847 C48.6514945,50.396847 48.641187,50.3865359 48.641187,50.3659138 L48.6454037,45.5679922 C48.6454037,45.5501822 48.6541495,45.5412772 48.671641,45.5412772 L52.3907776,45.5351843 L56.9101518,45.5394025 C56.9270186,45.5394025 56.935452,45.5478388 56.935452,45.5647114 C56.9379508,48.1999673 56.9384193,50.8336608 56.9368576,53.4657921 C56.9368576,53.8744848 56.9285803,54.1869411 56.9120259,54.4031608 C56.5231517,59.4738567 51.7620196,63.1103785 46.7104032,61.903985 C43.2592618,61.0795693 40.7489148,58.1526355 40.388152,54.6454706 C40.3637888,54.4089412 40.3516072,54.0969537 40.3516072,53.709508 C40.3516072,50.9255229 40.3511387,48.1559109 40.3502016,45.4006719 C40.3511387,44.34332 40.351451,43.2979977 40.3511387,42.2647049 C40.3506701,40.3201336 40.8936885,38.5850642 42.0771779,37.0323129 C42.4916647,36.5017622 42.9722132,36.0172989 43.5188236,35.5789228 C47.1817374,32.7227604 52.3434568,33.4112577 55.1981682,37.0318442 Z" id="形状" fill="#FFFFFF" fill-rule="nonzero"></path>
                        <path d="M21.9653539,36.953574 C21.5508671,36.4417707 21.091402,35.9829287 20.5869588,35.577048 C20.6427131,35.5231493 20.7087748,35.5742359 20.7687458,35.5742359 L23.3226654,35.5742359 C23.3269662,35.5740557 23.3309261,35.576568 23.3325966,35.5805367 C23.334267,35.5845053 23.3332961,35.5890945 23.3301618,35.5920459 L21.9653539,36.953574 L21.9653539,36.953574 Z M43.5188236,35.5789228 C42.9722132,36.0172989 42.4916647,36.5017622 42.0771779,37.0323129 C42.0278268,36.9591982 41.9833171,36.902956 41.9436488,36.8635866 C41.5169804,36.4411457 41.1003072,36.0247978 40.6936291,35.6145428 C40.6673918,35.5882965 40.6728579,35.5751733 40.7100274,35.5751733 L43.5188236,35.5789228 L43.5188236,35.5789228 Z M18.475325,40.4518339 L16.0212009,42.9007096 C16.0099563,42.911958 15.9963691,42.9175822 15.9804394,42.9175822 C14.744163,42.9316428 13.6523479,43.337211 12.7049941,44.1342868 C11.0089404,41.8068003 12.7509094,38.5241352 15.6252988,38.6797384 C16.7138342,38.7387926 17.5962195,39.2191941 18.2724545,40.1209428 C18.3211809,40.1859337 18.3888044,40.2962307 18.475325,40.4518339 L18.475325,40.4518339 Z" id="形状" fill="#000000" fill-rule="nonzero"></path>
                        <path d="M45.5967237,40.5193244 L47.9707304,42.8932107 C47.9816626,42.9041466 47.9949374,42.9097708 48.0105549,42.9100833 C49.5791703,42.9507026 50.8736997,43.5657727 51.8941431,44.7552936 C52.1140366,45.0118201 52.2795815,45.2717837 52.3907776,45.5351843 L48.671641,45.5412772 C48.6541495,45.5412772 48.6454037,45.5501822 48.6454037,45.5679922 L48.641187,50.3659138 C48.641187,50.3865359 48.6514945,50.396847 48.6721095,50.396847 L52.0515669,50.3959096 C52.0578619,50.3959084 52.0638926,50.3984416 52.0682995,50.4029382 C52.0727065,50.4074349 52.0751189,50.4135166 52.074993,50.4198125 L52.0726504,51.0300396 C51.9633284,51.1322127 51.8621274,51.2361044 51.7690474,51.3417146 C50.3072553,53.0036693 47.9576117,53.5065676 45.9335918,52.6160674 C45.6837128,52.5060828 45.4433604,52.3798505 45.2125347,52.2373704 C45.21191,49.2293543 45.2117538,46.2224318 45.2120662,43.2166029 C45.2120662,42.2689231 45.1324172,41.416855 45.5967237,40.5193244 L45.5967237,40.5193244 Z M38.242316,43.961811 C38.2348197,44.1633452 38.1729746,44.3494129 38.140178,44.5415735 C38.1264347,44.6240619 38.1080061,44.705613 38.0848923,44.7862267 C38.0544383,44.6484335 38.1467373,44.4698648 38.1565763,44.3114495 C38.1654782,44.175531 38.200149,44.0836689 38.242316,43.961811 L38.242316,43.961811 Z M38.0393802,45.0889968 C38.0430233,45.2130419 38.00978,45.3345874 37.9396501,45.4536332 L38.0393802,45.0889968 Z M11.0576668,49.0578158 C12.4257543,49.7978684 13.9109727,50.1657856 15.4491341,50.3959096 C15.6927662,50.4321546 16.0561839,50.5182363 16.5393875,50.6541547 C17.4580051,50.912556 18.1289303,51.4712278 18.5521628,52.3301699 C18.5390442,52.3326696 18.5288929,52.3451678 18.5217088,52.3676647 C18.5168898,52.3827247 18.5064827,52.3953182 18.4926604,52.402816 C15.4959864,54.038993 11.8077723,52.4173452 11.0576668,49.0578158 L11.0576668,49.0578158 Z" id="形状" fill="#261A09" fill-rule="nonzero"></path>
                        <path d="M52.0726504,51.0300396 C52.076711,51.9608467 52.0774918,52.8625953 52.074993,53.7352856 C52.0718695,54.7510808 51.7309409,55.5959624 51.052207,56.2699305 C49.1350104,58.1737263 45.8281741,57.1979255 45.2795335,54.5390792 C45.23518,54.3247343 45.2120662,54.0138403 45.2101921,53.6063974 C45.2076933,53.1495864 45.2084742,52.6932441 45.2125347,52.2373704 C45.4433604,52.3798505 45.6837128,52.5060828 45.9335918,52.6160674 C47.9576117,53.5065676 50.3072553,53.0036693 51.7690474,51.3417146 C51.8621274,51.2361044 51.9633284,51.1322127 52.0726504,51.0300396 L52.0726504,51.0300396 Z" id="路径" fill="#000000" fill-rule="nonzero"></path>
                        <path d="M36.804769,51.1101846 C36.8177656,51.2229813 36.7861217,51.324842 36.7098374,51.4157668 C36.698536,51.3242171 36.7301799,51.2223564 36.804769,51.1101846 Z M36.6765117,51.5793376 C36.6621437,51.7621245 36.6231001,51.9395996 36.5593809,52.111763 C36.5518846,51.9311633 36.5909282,51.7536882 36.6765117,51.5793376 Z M27.4857401,51.8127424 L27.5852476,52.0855167 C27.5139026,51.9970916 27.4807334,51.9061668 27.4857401,51.8127424 Z M27.558583,52.1605062 L28.8863776,58.5856999 C28.813288,58.5214901 28.7270797,58.4811833 28.6600809,58.420723 C27.4508227,57.3258764 26.7869254,55.7585959 26.9574679,54.1228875 C27.0296204,53.4311095 27.2299921,52.7769823 27.558583,52.1605062 Z M36.5270529,52.233621 L36.5331437,52.3456365 C36.5337683,52.360322 36.5381412,52.3737576 36.5462623,52.3859434 C36.5781219,52.4331243 36.6123241,52.5004586 36.6488689,52.5879463 C37.5259442,54.6918703 36.9791777,57.0029528 35.2564181,58.4914943 C35.248297,58.4983684 35.2443927,58.5072734 35.244705,58.5182093 C35.2450174,58.534457 35.2390828,58.5411749 35.2269012,58.5383628 L36.5270529,52.233621 Z M35.2125619,58.7680181 C35.2186859,58.8770653 35.1859464,58.9903307 35.1143435,59.1078142 C35.1068064,58.9928303 35.1395458,58.879565 35.2125619,58.7680181 Z M35.0751155,59.359029 C35.0720398,59.4936977 35.0389761,59.6230546 34.9759245,59.7470997 C34.9693887,59.6152431 35.0024523,59.4858863 35.0751155,59.359029 Z" id="形状" fill="#261A09" fill-rule="nonzero"></path>
                    </g>
                </g>
            </g>
        </g>
    </g>
</svg>