<?xml version="1.0" encoding="UTF-8"?>
<svg width="64px" height="64px" viewBox="0 0 64 64" version="1.1" xmlns="http://www.w3.org/2000/svg" xmlns:xlink="http://www.w3.org/1999/xlink">
    <title>card-sketch</title>
    <g id="白色版本" stroke="none" stroke-width="1" fill="none" fill-rule="evenodd">
        <g id="Apple-TV备份" transform="translate(-562, -680)">
            <g id="编组-10" transform="translate(484, 562)">
                <g id="card-sketch" transform="translate(78, 118)">
                    <rect id="矩形" fill-opacity="0" fill="#D8D8D8" x="0" y="0" width="64" height="64"></rect>
                    <g id="编组" transform="translate(0, 3)" fill="#000000">
                        <path d="M0.317611654,20.1861416 L13.323403,2.58242116 C13.5923187,2.21926723 14.0011597,1.98464351 14.4511666,1.93522555 L31.8219709,0.00981862526 C31.9406054,-0.00327287509 32.0603263,-0.00327287509 32.1789608,0.00981862526 L49.5497651,1.93320306 C49.9997719,1.98262102 50.4086129,2.21724475 50.6775287,2.58039867 L63.6853484,20.1861416 C64.1334968,20.7948152 64.0998257,21.6316413 63.6042143,22.2025604 L32.9233659,57.5798902 C32.6921896,57.846665 32.3560824,58 32.0024942,58 C31.6489059,58 31.3127988,57.846665 31.0816225,57.5798902 L0.39468902,22.2025604 C-0.100305464,21.6311601 -0.133134166,20.7943507 0.315583302,20.1861416 L0.317611654,20.1861416 Z M36.4750098,5.21367579 L48.7404527,16.7661173 C48.9837365,16.9959306 49.3436908,17.0529522 49.6464267,16.9096357 C49.9491625,16.7663192 50.132377,16.452159 50.1075618,16.1189217 L49.5193398,7.91976241 C49.5022435,7.71190717 49.6464388,7.52516273 49.8523397,7.48850104 C50.0582405,7.45183936 50.2583447,7.57727952 50.3144537,7.77818837 L53.0040481,17.1665696 C53.1878428,17.8083723 53.6773711,18.3184311 54.312335,18.5297254 L60.0525704,20.4369299 C60.2417287,20.4989218 60.3578036,20.688635 60.3265423,20.8847105 C60.2952809,21.080786 60.1259256,21.2252544 59.9268126,21.2256996 L54.4096959,21.2256996 C53.7167276,21.2261019 53.0719193,21.5792252 52.6997953,22.1621107 L37.6615955,45.7240757 C37.4869961,45.9907769 37.1353028,46.0774724 36.8561823,45.9226174 C36.5770618,45.7677623 36.4655319,45.4240723 36.6007676,45.1355322 L47.3794287,22.9690827 C47.5625341,22.5929388 47.5385402,22.1492976 47.3159278,21.7949699 C47.0933154,21.4406421 46.703444,21.2255421 46.2841188,21.2256996 L17.7168129,21.2256996 C17.2974876,21.2255421 16.9076163,21.4406421 16.6850039,21.7949699 C16.4623915,22.1492976 16.4383975,22.5929388 16.6215029,22.9690827 L27.4001641,45.1355322 C27.5407579,45.4248027 27.4306927,45.7732071 27.1492109,45.9299089 C26.8677291,46.0866106 26.5125273,45.9972216 26.3393361,45.7260982 L11.3011363,22.1641332 C10.929107,21.5798688 10.2832921,21.2258504 9.58920746,21.2256996 L3.90373753,21.2256996 C3.70462454,21.2252544 3.53526923,21.080786 3.50400786,20.8847105 C3.47274648,20.688635 3.5888214,20.4989218 3.77797972,20.4369299 L9.67642658,18.5256804 C10.3183042,18.3171534 10.8140685,17.8038683 10.9989119,17.1564572 L13.686478,7.77818837 C13.7425869,7.57727952 13.9426912,7.45183936 14.148592,7.48850104 C14.3544929,7.52516273 14.4986882,7.71190717 14.4815919,7.91976241 L13.8933699,16.1189217 C13.8685546,16.452159 14.0517691,16.7663192 14.354505,16.9096357 C14.6572408,17.0529522 15.0171952,16.9959306 15.2604789,16.7661173 L27.5259219,5.21367579 C27.6799874,5.05856205 27.9296988,5.05333383 28.0901586,5.20186235 C28.2506184,5.35039086 28.2639265,5.59908126 28.120229,5.76379205 L19.8912059,15.862066 C19.6942372,16.1041646 19.6543034,16.4375712 19.7885533,16.7191124 C19.9228031,17.0006536 20.2073472,17.1802301 20.519995,17.180727 L43.4809367,17.180727 C43.7935845,17.1802301 44.0781286,17.0006536 44.2123784,16.7191124 C44.3466282,16.4375712 44.3066945,16.1041646 44.1097257,15.862066 L35.8807027,5.76379205 C35.7370052,5.59908126 35.7503133,5.35039086 35.9107731,5.20186235 C36.0712329,5.05333383 36.3209443,5.05856205 36.4750098,5.21367579 Z" id="形状"></path>
                    </g>
                </g>
            </g>
        </g>
    </g>
</svg>