<?xml version="1.0" encoding="UTF-8"?>
<svg width="64px" height="64px" viewBox="0 0 64 64" version="1.1" xmlns="http://www.w3.org/2000/svg" xmlns:xlink="http://www.w3.org/1999/xlink">
    <title>card-ai</title>
    <g id="白色版本" stroke="none" stroke-width="1" fill="none" fill-rule="evenodd">
        <g id="Apple-TV备份" transform="translate(-1295, -680)">
            <g id="card-ai" transform="translate(1295, 680)">
                <rect id="矩形" fill-opacity="0" fill="#D8D8D8" x="0" y="0" width="64" height="64"></rect>
                <rect id="矩形" stroke="#FF9A00" stroke-width="1.5" fill="#330000" fill-rule="nonzero" x="0.75" y="0.75" width="62.5" height="62.5" rx="14.6285715"></rect>
                <path d="M31.4419692,38.4819692 L21.6745846,38.4819692 L19.6790154,44.6523077 C19.6265846,44.8886154 19.4166154,45.0461538 19.1803077,45.0198154 L14.2439385,45.0198154 C13.9552,45.0198154 13.8764308,44.8622769 13.9552,44.5472 L22.4098462,20.2075077 C22.4886154,19.9451077 22.5673846,19.6561231 22.6722462,19.3410462 C22.7773538,18.7896615 22.8297846,18.2121846 22.8297846,17.6344615 C22.8036923,17.5032615 22.9085538,17.3718154 23.04,17.3457231 L29.8402462,17.3457231 C30.0504615,17.3457231 30.1553231,17.4244923 30.1816615,17.5556923 L39.7651692,44.5998769 C39.8439385,44.8886154 39.7651692,45.0198154 39.5027692,45.0198154 L34.0150154,45.0198154 C33.8313846,45.0461538 33.6475077,44.9149538 33.5950769,44.7310769 L31.4419692,38.4819692 Z M23.1975385,33.152 L29.8665846,33.152 C29.7090462,32.6006154 29.4990769,31.9441231 29.2627692,31.2615385 C29.0264615,30.5526154 28.7901538,29.7912615 28.5538462,29.0035692 C28.2912,28.1895385 28.0548923,27.4018462 27.7922462,26.5878154 C27.5298462,25.7740308 27.2935385,25.0124308 27.0833231,24.2510769 C26.8733538,23.5160615 26.6894769,22.8332308 26.5058462,22.2030769 L26.4531692,22.2030769 C26.2168615,23.3321846 25.9281231,24.4612923 25.5606154,25.5901538 C25.1667692,26.8504615 24.7729231,28.1632 24.3527385,29.4761846 C24.0136364,30.7154309 23.6283004,31.9415598 23.1975385,33.152 M45.6204308,21.9404308 C44.7539692,21.9667692 43.9138462,21.6253538 43.2836923,21.0215385 C42.6798769,20.3650462 42.3648,19.4985846 42.3908923,18.6060308 C42.3648,17.7132308 42.7059692,16.8731077 43.3361231,16.2690462 C43.9662769,15.6652308 44.8066462,15.3501538 45.6731077,15.3501538 C46.6971077,15.3501538 47.4848,15.6652308 48.0622769,16.2690462 C48.6441732,16.9056272 48.9549975,17.7439698 48.9287385,18.6060308 C48.9550769,19.4985846 48.64,20.3650462 48.0098462,21.0215385 C47.4060308,21.6516923 46.5132308,21.9931077 45.6204308,21.9404308 M42.6798769,44.7310769 L42.6798769,24.5137231 C42.6798769,24.2510769 42.7922301,24.1459692 43.0454205,24.1459692 L48.6156081,24.1459692 C48.8687984,24.1459692 48.9814154,24.2774154 48.9814154,24.5137231 L48.9814154,44.7310769 C48.9814154,45.0198154 48.8687984,45.1512615 48.6156081,45.1512615 L43.1018608,45.1512615 C42.8204503,45.1512615 42.6798769,44.9937231 42.6798769,44.7310769" id="形状" fill="#FF9A00" fill-rule="nonzero"></path>
            </g>
        </g>
    </g>
</svg>