<?xml version="1.0" encoding="UTF-8"?>
<svg width="64px" height="64px" viewBox="0 0 64 64" version="1.1" xmlns="http://www.w3.org/2000/svg" xmlns:xlink="http://www.w3.org/1999/xlink">
    <title>card-iconjar</title>
    <g id="白色版本" stroke="none" stroke-width="1" fill="none" fill-rule="evenodd">
        <g id="Apple-TV备份" transform="translate(-806, -680)">
            <g id="编组-9" transform="translate(728, 562)">
                <g id="card-iconjar" transform="translate(78, 118)">
                    <rect id="矩形" fill-opacity="0" fill="#D8D8D8" x="0" y="0" width="64" height="64"></rect>
                    <g id="编组" transform="translate(7, 0)" fill="#2CACF4">
                        <path d="M46.0613292,27.8493714 C49.2211033,29.8577371 50.4060529,33.4728229 49.8794086,36.8200686 L46.1929903,57.0376686 C45.4030696,61.0544 41.9799277,64 37.8985719,64 L12.0936893,64 C8.01228778,64 4.58919157,61.0544 3.79927095,57.0376686 L0.112852611,36.8200686 C-0.41379166,33.6066743 0.902819017,29.9916343 4.06259308,27.9832686 C5.90580225,26.6443429 6.30078545,24.3682286 4.06259308,23.5648457 C0.902819017,22.3598171 1.56107858,18.4769829 4.72089842,18.4769829 L23.9429107,18.4769829 C26.9710237,18.4769829 30.6574421,20.7531429 30.6574421,28.1171657 C30.6574421,35.4811886 27.2343459,34.8117486 27.2343459,40.0334629 C27.2343459,42.3096229 29.077555,44.7196343 31.3157474,44.9874286 C35.1338268,45.38912 37.3719734,43.9162971 37.3719734,38.56064 C37.3719734,33.0710857 34.2121993,30.5271771 34.2121993,25.9748571 C34.2121993,20.4853029 37.6352955,18.34304 39.8734879,18.34304 L45.4031154,18.34304 C48.5628895,18.34304 49.2211948,22.2258743 46.0614208,23.4309029 C43.8231826,24.3681829 44.2181658,26.6443429 46.0613292,27.8493714 L46.0613292,27.8493714 Z M6.69572288,15.66528 C5.37915798,15.66528 4.19420837,14.4602514 4.19420837,13.1213257 C4.19420837,10.0418286 11.8303672,7.76566857 20.5197688,7.76566857 C21.3097352,7.76566857 21.8363336,7.76566857 21.8363336,7.09622857 C21.8363336,5.8912 19.2032039,5.48955429 19.2032039,3.48118857 C19.2032039,1.33892571 21.7047184,0 24.8644924,0 C28.0242665,0 30.525781,1.33892571 30.525781,3.48118857 C30.525781,5.48955429 27.8926054,5.75734857 27.8926054,7.09622857 C27.8926054,7.49792 28.2875886,7.76566857 29.2091703,7.76566857 C37.8985719,7.76566857 45.6663918,9.90793143 45.6663918,13.1213257 C45.6663918,14.4602514 44.613149,15.66528 43.1648773,15.66528 L6.69572288,15.66528 Z" id="形状"></path>
                    </g>
                </g>
            </g>
        </g>
    </g>
</svg>