<?xml version="1.0" encoding="UTF-8"?>
<svg width="64px" height="64px" viewBox="0 0 64 64" version="1.1" xmlns="http://www.w3.org/2000/svg" xmlns:xlink="http://www.w3.org/1999/xlink">
    <title>card-figma</title>
    <g id="白色版本" stroke="none" stroke-width="1" fill="none" fill-rule="evenodd">
        <g id="Apple-TV备份" transform="translate(-1050, -680)">
            <g id="编组-8" transform="translate(972, 562)">
                <g id="card-figma" transform="translate(78, 118)">
                    <rect id="矩形" fill-opacity="0" fill="#D8D8D8" x="0" y="0" width="64" height="64"></rect>
                    <g id="figma" transform="translate(10, 0)" fill-rule="nonzero">
                        <path d="M10.7499065,64 C16.6856831,63.9975423 21.4969621,59.2234813 21.499439,53.3336213 L21.499439,42.6665004 L10.7499065,42.6665004 C4.81289707,42.6665004 0,47.4421669 0,53.3332502 C0,59.2243334 4.81289707,64 10.7499065,64 L10.7499065,64 Z" id="Trazado_42" fill="#0ACF83"></path>
                        <path d="M0.000374026878,32.0001217 C0.00285087953,26.1102617 4.81412989,21.3362007 10.7499065,21.333743 L21.499439,21.333743 L21.499439,42.6672426 L10.7499065,42.6672426 C4.81383792,42.6647847 0.00243808608,37.8902715 0.000374026878,32.0001217 L0.000374026878,32.0001217 Z" id="Trazado_43" fill="#A259FF"></path>
                        <path d="M21.194233,0.000243332338 L32.0971165,0.000243332338 C38.0752344,-0.0392547011 42.9551274,4.73478393 43,10.666622 C42.9551274,16.5984601 38.0752344,21.3724987 32.0971165,21.3330007 L21.194233,21.3330007 L21.194233,0.000243332338 Z" id="Trazado_45" fill="#FF7262"></path>
                        <path d="M43,32.0001217 C43,37.8909033 38.1874223,42.6665003 32.2507169,42.6665003 C26.3140114,42.6665003 21.5012105,37.8913981 21.5009351,32.0006165 C21.5006597,26.1098348 26.313014,21.3341529 32.2497195,21.333743 C38.1857882,21.3357911 42.9975229,26.109972 43,32.0001217 L43,32.0001217 Z" id="Trazado_46" fill="#1ABCFE"></path>
                        <path d="M0.000374026878,10.666622 C0.00285087953,4.77676205 4.81412989,0.00270102512 10.7499065,0.000243332338 L21.499439,0.000243332338 L21.499439,21.333743 L10.7499065,21.333743 C4.81383792,21.331285 0.00243808608,16.5567719 0.000374026878,10.666622 Z" id="Trazado_44" fill="#F24E1E"></path>
                    </g>
                </g>
            </g>
        </g>
    </g>
</svg>