<?xml version="1.0" encoding="UTF-8"?>
<svg width="24px" height="24px" viewBox="0 0 24 24" version="1.1" xmlns="http://www.w3.org/2000/svg" xmlns:xlink="http://www.w3.org/1999/xlink">
    <title>dribbble</title>
    <g id="白色版本" stroke="none" stroke-width="1" fill="none" fill-rule="evenodd">
        <g id="Apple-TV备份" transform="translate(-1792, -18)" fill-rule="nonzero">
            <g id="dribbble" transform="translate(1792, 18)">
                <rect id="矩形" fill="#000000" opacity="0" x="0" y="0" width="24" height="24"></rect>
                <path d="M15.3333409,19.8645891 C14.9687575,17.7725789 14.3611184,15.6111155 13.5104237,13.380199 L13.4843787,13.380199 L13.4583338,13.3932329 C13.3194427,13.4453075 13.132814,13.5169178 12.8984476,13.6080637 C12.6640812,13.6992095 12.2257075,13.9118832 11.5833267,14.2460847 C10.9409458,14.5802862 10.346333,14.9361956 9.79948822,15.3138129 C9.25264342,15.6914302 8.68406034,16.1883879 8.09373896,16.8046858 C7.50341759,17.4209838 7.05636992,18.0633494 6.75259595,18.7317828 L6.55729315,18.5885471 C8.15451806,19.8906265 9.96875368,20.5416662 12,20.5416662 C13.1458402,20.5416662 14.2569539,20.3159738 15.3333409,19.8645891 L15.3333409,19.8645891 Z M12.9244697,11.960944 C12.7421552,11.5355966 12.5121258,11.0538224 12.2343588,10.5156213 C9.53469429,11.3229154 6.61368965,11.7265624 3.47134488,11.7265624 C3.46267083,11.7873263 3.45833381,11.8784722 3.45833381,12 C3.45833381,13.0763871 3.64930718,14.1028642 4.03125392,15.0794313 C4.41320066,16.0559985 4.95139419,16.9305658 5.64583452,17.7031334 C6.07985593,16.9305658 6.61587715,16.2079083 7.25389819,15.5351607 C7.89191924,14.862413 8.51041228,14.3220472 9.10937731,13.9140631 C9.70834235,13.506079 10.2747455,13.1545143 10.8085869,12.8593688 C11.3424282,12.5642233 11.7742849,12.3558942 12.1041569,12.2343816 L12.5859312,12.0651009 C12.6206578,12.0564269 12.6770846,12.0412359 12.7552118,12.019528 C12.833339,11.9978201 12.8897583,11.9782921 12.9244697,11.960944 L12.9244697,11.960944 Z M11.5312824,9.20052318 C10.4896067,7.35156858 9.43057534,5.71094305 8.35418827,4.27864658 C7.15627338,4.84288504 6.14064832,5.65017914 5.30731878,6.70052887 C4.47398735,7.75087861 3.91843053,8.93143021 3.64064832,10.2421837 C6.26217044,10.2421837 8.8923818,9.89496351 11.5312824,9.20052318 L11.5312824,9.20052318 Z M20.437532,13.3541769 C18.6146148,12.833339 16.8394352,12.7074666 15.1119932,12.9765596 C15.8672126,15.0512217 16.4227695,17.0868126 16.7786637,19.0833324 C17.742197,18.4322927 18.545154,17.6098076 19.1875349,16.6158772 C19.8299157,15.6219467 20.2465815,14.5347133 20.437532,13.3541769 L20.437532,13.3541769 Z M10.4296901,3.80808877 C10.2628776,3.80808877 10.0962109,3.90325544 9.92969008,4.09358877 C10.0962109,3.90325544 10.2628776,3.80808877 10.4296901,3.80808877 Z M17.6380324,5.59374466 C16.0321183,4.17013743 14.1527741,3.45833381 12,3.45833381 C11.3402711,3.45833381 10.667531,3.54079803 9.98177994,3.70572647 C11.1189309,5.18142356 12.1866363,6.83941238 13.1848962,8.67969293 C13.7838613,8.45400058 14.3480997,8.19140935 14.8776116,7.89191924 C15.4071235,7.59242912 15.8259615,7.32550087 16.1341257,7.09113447 C16.4422899,6.85676807 16.7265738,6.60937542 16.9869775,6.34895649 C17.2473813,6.08853757 17.410145,5.91275518 17.4752687,5.82160932 L17.6380324,5.59374466 Z M20.5416662,11.9088541 C20.5156289,9.8949711 19.8689262,8.11545446 18.6015581,6.57030422 L18.5885471,6.58333808 C18.5104199,6.68750261 18.4279557,6.79383945 18.3411544,6.9023486 C18.2543532,7.01085775 18.0655521,7.20399583 17.7747512,7.48176285 C17.4839504,7.75952987 17.1757862,8.0221211 16.8502587,8.26953655 C16.5247313,8.51695199 16.0907023,8.79907122 15.5481717,9.11589424 C15.0056412,9.43271726 14.4348934,9.71266419 13.8359283,9.95573501 C14.0529466,10.4157938 14.24392,10.8281149 14.4088484,11.1926983 C14.4262117,11.2447882 14.454429,11.3207431 14.4935002,11.420563 C14.5325714,11.5203829 14.565118,11.5920007 14.5911402,11.6354165 C14.9036489,11.5920159 15.2270041,11.561634 15.5612056,11.5442707 C15.8954071,11.5269074 16.2144176,11.5182258 16.5182371,11.5182258 C16.8220567,11.5182258 17.1215316,11.5247351 17.4166619,11.5377538 C17.7117922,11.5507724 17.9895744,11.5681357 18.2500085,11.5898436 C18.5104427,11.6115515 18.755663,11.6354241 18.9856696,11.6614615 C19.2156762,11.6874988 19.4240128,11.7157085 19.6106796,11.7460904 C19.7973463,11.7764724 19.9557654,11.8025173 20.0859369,11.8242252 C20.2161084,11.8459331 20.3246175,11.8654611 20.4114643,11.8828092 L20.5416662,11.9088541 Z M22,12 C22,13.8142432 21.5529523,15.487423 20.658857,17.0195394 C19.7647616,18.5516558 18.5516558,19.7647616 17.0195394,20.658857 C15.487423,21.5529523 13.8142432,22 12,22 C10.1857568,22 8.51257699,21.5529523 6.98046061,20.658857 C5.44834422,19.7647616 4.23523836,18.5516558 3.34114301,17.0195394 C2.44704767,15.487423 2,13.8142432 2,12 C2,10.1857568 2.44704767,8.51257699 3.34114301,6.98046061 C4.23523836,5.44834422 5.44834422,4.23523836 6.98046061,3.34114301 C8.51257699,2.44704767 10.1857568,2 12,2 C13.8142432,2 15.487423,2.44704767 17.0195394,3.34114301 C18.5516558,4.23523836 19.7647616,5.44834422 20.658857,6.98046061 C21.5529523,8.51257699 22,10.1857568 22,12 Z" id="形状" fill="#E04A85"></path>
            </g>
        </g>
    </g>
</svg>