<?xml version="1.0" encoding="UTF-8"?>
<svg width="395px" height="32px" viewBox="0 0 395 32" version="1.1" xmlns="http://www.w3.org/2000/svg" xmlns:xlink="http://www.w3.org/1999/xlink">
    <title>编组 23</title>
    <g id="白色版本" stroke="none" stroke-width="1" fill="none" fill-rule="evenodd">
        <g id="Apple-TV备份" transform="translate(-767, -5535)">
            <g id="编组-54" transform="translate(0, 3151)">
                <g id="编组-26" transform="translate(561, 2384)">
                    <g id="编组-23" transform="translate(206, 0)">
                        <g id="编组-2" fill="#FFFFFF">
                            <g id="编组">
                                <path d="M8.54325601,0.605077548 L13.5384615,9.06646154 L13.5384615,9.06646154 L13.5384615,22.9335385 L8.54325601,31.3949225 C8.32188422,31.7699044 7.91884643,32 7.4833962,32 L2.15580275,32 C1.47606767,32 0.925033516,31.4489658 0.925033516,30.7692308 C0.925033516,30.5491411 0.98405066,30.3330778 1.09593674,30.1435496 L8.70670916,17.2513624 C9.16245108,16.4793632 9.16245108,15.5206368 8.70670916,14.7486376 L1.09593674,1.85645042 C0.750382562,1.27110258 0.944773729,0.5164574 1.53012156,0.170903223 C1.7196498,0.0590171444 1.93571311,4.8451902e-16 2.15580275,0 L7.4833962,0 C7.91884643,9.72900401e-16 8.32188422,0.230095639 8.54325601,0.605077548 Z" id="路径" fill-opacity="0.4"></path>
                                <path d="M22.1538462,0 C30.9904022,0 38.1538462,7.163444 38.1538462,16 C38.1538462,24.836556 30.9904022,32 22.1538462,32 L16,32 C14.6405298,32 13.5384615,30.8979317 13.5384615,29.5384615 L13.5384615,2.46153846 C13.5384615,1.10206831 14.6405298,-1.94358594e-16 16,0 L22.1538462,0 L22.1538462,0 Z M22.1538462,7.38461538 C21.4741111,7.38461538 20.9230769,7.93564954 20.9230769,8.61538462 L20.9230769,23.3846154 C20.9230769,24.0643505 21.4741111,24.6153846 22.1538462,24.6153846 L22.1538462,24.6153846 L22.1538462,24.6153846 C26.9119917,24.6153846 30.7692308,20.7581455 30.7692308,16 C30.7692308,11.2418545 26.9119917,7.38461538 22.1538462,7.38461538 Z" id="路径"></path>
                            </g>
                            <path d="M61.1653529,23.2993743 C61.4456738,23.6917595 61.5726943,24.0628195 61.5464142,24.4125541 C61.5201341,24.7622888 61.3755936,25.0395175 61.1127927,25.2442402 C60.8499918,25.4489629 60.5171107,25.5513243 60.1141494,25.5513243 L60.009029,25.5513243 C59.5020423,25.5513243 59.0608243,25.4617581 58.6853749,25.2826257 C58.3099255,25.1034933 57.9820403,24.8092044 57.7017194,24.399759 L46.3696632,8.84083191 C46.0893422,8.44844669 45.9404217,8.07738675 45.9229017,7.7276521 C45.9053816,7.37791744 46.010502,7.10068875 46.2382627,6.89596603 C46.4660235,6.69124331 46.7726245,6.58888194 47.1580658,6.58888194 L47.2631862,6.58888194 C47.787693,6.58888194 48.2770912,6.68271319 48.7313808,6.87037569 C49.1856705,7.05803819 49.5529758,7.34806205 49.8332967,7.74044727 L61.1653529,23.2993743 Z M49.3865352,24.399759 C49.1062143,24.8092044 48.7783291,25.1034933 48.4028797,25.2826257 C48.0274303,25.4617581 47.5862123,25.5513243 47.0792256,25.5513243 L46.9741052,25.5513243 C46.5711439,25.5513243 46.2382627,25.4489629 45.9754619,25.2442402 C45.712661,25.0395175 45.5681205,24.7622888 45.5418404,24.4125541 C45.5155603,24.0628195 45.6425807,23.6917595 45.9229017,23.2993743 L57.2549579,7.74044727 C57.5352788,7.34806205 57.9025841,7.05803819 58.3568738,6.87037569 C58.8111634,6.68271319 59.3005616,6.58888194 59.8250684,6.58888194 L59.9301887,6.58888194 C60.31563,6.58888194 60.6222311,6.69124331 60.8499918,6.89596603 C61.0777526,7.10068875 61.182873,7.37791744 61.1653529,7.7276521 C61.1478328,8.07738675 60.9989123,8.44844669 60.7185914,8.84083191 L49.3865352,24.399759 Z M71.7558628,23.8659605 C71.7558628,24.4108215 71.6069423,24.8279307 71.3091013,25.1172881 C71.0112603,25.4066456 70.5820188,25.5513243 70.0213769,25.5513243 L69.9688168,25.5513243 C69.4081749,25.5513243 68.9789334,25.4066456 68.6810924,25.1172881 C68.3832514,24.8279307 68.2343309,24.4108215 68.2343309,23.8659605 L68.2343309,8.12430238 L71.7558628,8.12430238 L71.7558628,23.8659605 Z M75.2511145,6.58888194 C75.8029964,6.58888194 76.2212878,6.72749629 76.5059887,7.00472498 C76.7906897,7.28195367 76.9330402,7.68926659 76.9330402,8.22666374 L76.9330402,8.27784442 C76.9330402,8.81524157 76.7906897,9.22255449 76.5059887,9.49978318 C76.2212878,9.77701187 75.8029964,9.91562621 75.2511145,9.91562621 L64.7127991,9.91562621 C64.1609173,9.91562621 63.7426258,9.77701187 63.4579249,9.49978318 C63.1732239,9.22255449 63.0308735,8.81524157 63.0308735,8.27784442 L63.0308735,8.22666374 C63.0308735,7.68926659 63.1732239,7.28195367 63.4579249,7.00472498 C63.7426258,6.72749629 64.1609173,6.58888194 64.7127991,6.58888194 L75.2511145,6.58888194 Z M82.3464881,7.81801799 C82.3464881,8.33808835 82.2041376,8.73667123 81.9194367,9.01376663 C81.6347357,9.29086204 81.2252044,9.42940974 80.6908426,9.42940974 L80.6382824,9.42940974 C80.1039206,9.42940974 79.6943892,9.29086204 79.4096883,9.01376663 C79.1249873,8.73667123 78.9826368,8.33808835 78.9826368,7.81801799 L78.9826368,7.76523791 C78.9826368,7.24516755 79.1249873,6.84658467 79.4096883,6.56948926 C79.6943892,6.29239386 80.1039206,6.15384615 80.6382824,6.15384615 L80.6908426,6.15384615 C81.2252044,6.15384615 81.6347357,6.29239386 81.9194367,6.56948926 C82.2041376,6.84658467 82.3464881,7.24516755 82.3464881,7.76523791 L82.3464881,7.81801799 Z M82.3464881,23.9391328 C82.3464881,24.4594698 82.2041376,24.8582526 81.9194367,25.1354813 C81.6347357,25.4127099 81.2252044,25.5513243 80.6908426,25.5513243 L80.6382824,25.5513243 C80.1039206,25.5513243 79.6943892,25.4127099 79.4096883,25.1354813 C79.1249873,24.8582526 78.9826368,24.4594698 78.9826368,23.9391328 L78.9826368,13.6006353 C78.9826368,13.0802983 79.1249873,12.6815155 79.4096883,12.4042868 C79.6943892,12.1270581 80.1039206,11.9884438 80.6382824,11.9884438 L80.6908426,11.9884438 C81.2252044,11.9884438 81.6347357,12.1270581 81.9194367,12.4042868 C82.2041376,12.6815155 82.3464881,13.0802983 82.3464881,13.6006353 L82.3464881,23.9391328 Z M94.9132401,21.7819471 C95.3129164,21.4458073 95.6835752,21.2521471 96.0252163,21.2009664 C96.3668575,21.1497857 96.7391587,21.2606772 97.1421201,21.5336408 L97.2472404,21.6104118 C97.702762,21.9172294 97.9611828,22.2667641 98.022503,22.659016 C98.0838233,23.051268 97.9217627,23.426393 97.5363214,23.7843912 C96.8530391,24.4164193 96.0777765,24.9158308 95.2105336,25.2826257 C94.3432907,25.6494206 93.4191076,25.832818 92.4379843,25.832818 C91.1239799,25.832818 89.9107158,25.5172038 88.7981921,24.8859754 C87.6856683,24.254747 86.8009053,23.3994032 86.1439031,22.319944 C85.4869009,21.2404848 85.1583998,20.0548657 85.1583998,18.7630866 C85.1583998,17.4881012 85.4869009,16.3089463 86.1439031,15.2256219 C86.8009053,14.1422975 87.6856683,13.2850211 88.7981921,12.6537927 C89.9107158,12.0225643 91.1239799,11.7069501 92.4379843,11.7069501 C93.4366276,11.7069501 94.3783308,11.8903475 95.2630938,12.2571424 C96.1478568,12.6239373 96.9231194,13.1310792 97.5888816,13.7785681 C97.9568028,14.1541597 98.1013433,14.5382813 98.022503,14.9309331 C97.9436628,15.3235849 97.6764819,15.6478625 97.2209604,15.9037659 L97.0369997,16.0061273 C96.6340384,16.2449704 96.2661171,16.328139 95.933236,16.2556331 C95.6003549,16.1831271 95.2324337,15.9805369 94.8294723,15.6478625 C94.5141113,15.3748989 94.1637101,15.1787063 93.7782688,15.0592847 C93.3928275,14.9398631 92.9459291,14.8801523 92.4375737,14.8801523 C91.6494448,14.8801523 90.9619193,15.0379594 90.3749974,15.3535736 C89.7880754,15.6691878 89.3325539,16.1212838 89.0084328,16.7098616 C88.6843117,17.2984395 88.5222511,17.9823147 88.5222511,18.7614872 C88.5222511,19.5518555 88.6843117,20.2413286 89.0084328,20.8299065 C89.3325539,21.4184843 89.7880754,21.8705803 90.3749974,22.1861945 C90.9619193,22.5018087 91.6495816,22.6596158 92.4379843,22.6596158 C92.9285459,22.6596158 93.3753074,22.5871098 93.7782688,22.4420979 C94.1812301,22.297086 94.5595539,22.0770357 94.9132401,21.7819471 Z M107.575206,22.8131579 C108.346089,22.8131579 109.020611,22.6425556 109.598773,22.301351 C110.176935,21.9601465 110.619316,21.4824601 110.925917,20.868292 C111.232518,20.2541238 111.385819,19.5531884 111.385819,18.7654857 C111.385819,17.9665873 111.232518,17.264319 110.925917,16.6586809 C110.619316,16.0530429 110.176935,15.5796216 109.598773,15.238417 C109.020611,14.8972125 108.343351,14.7266102 107.566994,14.7266102 C106.801586,14.7266102 106.129801,14.8972125 105.551639,15.238417 C104.973477,15.5796216 104.531096,16.0530429 104.224495,16.6586809 C103.917894,17.264319 103.764593,17.9665873 103.764593,18.7654857 C103.764593,19.5531884 103.922274,20.2541238 104.237635,20.868292 C104.552996,21.4824601 104.995377,21.9601465 105.564779,22.301351 C106.134181,22.6425556 106.804323,22.8131579 107.575206,22.8131579 Z M107.575206,25.832818 C106.261202,25.832818 105.047938,25.5129388 103.935414,24.8731803 C102.82289,24.2334218 101.942507,23.3718803 101.294265,22.2885559 C100.646023,21.2052315 100.321902,20.0323408 100.321902,18.769884 C100.321902,17.490367 100.650403,16.3089463 101.307405,15.2256219 C101.964407,14.1422975 102.84917,13.2850211 103.961694,12.6537927 C105.074218,12.0225643 106.282691,11.7069501 107.587114,11.7069501 C108.891811,11.7069501 110.100764,12.0225643 111.213972,12.6537927 C112.32718,13.2850211 113.207905,14.1422975 113.856147,15.2256219 C114.504389,16.3089463 114.82851,17.490367 114.82851,18.769884 C114.82851,20.0323408 114.504389,21.2052315 113.856147,22.2885559 C113.207905,23.3718803 112.327522,24.2334218 111.214998,24.8731803 C110.102475,25.5129388 108.88921,25.832818 107.575206,25.832818 Z M120.925475,23.9391328 C120.925475,24.4594698 120.783124,24.8582526 120.498423,25.1354813 C120.213722,25.4127099 119.804191,25.5513243 119.269829,25.5513243 L119.217269,25.5513243 C118.682907,25.5513243 118.273376,25.4127099 117.988675,25.1354813 C117.703974,24.8582526 117.561624,24.4594698 117.561624,23.9391328 L117.561624,13.6006353 C117.561624,13.0802983 117.703974,12.6815155 117.988675,12.4042868 C118.273376,12.1270581 118.682907,11.9884438 119.217269,11.9884438 L119.269829,11.9884438 C119.804191,11.9884438 120.213722,12.1270581 120.498423,12.4042868 C120.783124,12.6815155 120.925475,13.0802983 120.925475,13.6006353 L120.925475,23.9391328 Z M117.561624,21.3545084 C117.561624,19.6484857 117.885745,18.0533545 118.533987,16.5691148 C119.182229,15.084875 120.075752,13.9034543 121.214556,13.0248526 C122.35336,12.1462509 123.623564,11.7069501 125.025169,11.7069501 C125.918692,11.7069501 126.755274,11.9543233 127.534917,12.4490699 C128.31456,12.9438165 128.945282,13.6646111 129.427083,14.6114537 C129.908885,15.5582963 130.149786,16.662946 130.149786,17.9254028 L130.149786,23.9431313 C130.149786,24.4621354 130.007435,24.8599186 129.722734,25.1364809 C129.438033,25.4130432 129.028502,25.5513243 128.49414,25.5513243 L128.44158,25.5513243 C127.907218,25.5513243 127.497687,25.4130432 127.212986,25.1364809 C126.928285,24.8599186 126.785935,24.4621354 126.785935,23.9431313 L126.785935,17.9254028 C126.785935,17.2259335 126.654534,16.6501508 126.391733,16.1980548 C126.128932,15.7459588 125.796051,15.4132844 125.39309,15.2000315 C124.990129,14.9867787 124.569647,14.8801523 124.131646,14.8801523 C123.494901,14.8801523 122.941514,15.008104 122.471483,15.2640074 C122.001453,15.5199108 121.626277,15.9549466 121.345956,16.5691148 C121.065635,17.1832829 120.925475,18.0107039 120.925475,19.0513778 L117.561624,21.3545084 Z M133.592452,23.6832294 C133.242051,23.2567238 133.13693,22.8472783 133.277091,22.4548931 C133.417251,22.0625079 133.732612,21.7895442 134.223174,21.6360022 L134.380854,21.5848215 C134.801336,21.4483397 135.156117,21.4398096 135.445198,21.5592312 C135.734279,21.6786528 136.09782,21.926026 136.535822,22.301351 C136.903743,22.6084351 137.341744,22.8131579 137.849826,22.9155192 C138.357908,23.0178806 138.857229,22.9965553 139.347791,22.8515434 C139.838353,22.7065314 140.258834,22.446363 140.609235,22.071038 C140.854516,21.8151346 140.985917,21.5379059 141.003437,21.2393519 C141.020957,20.9407979 140.898316,20.6806295 140.635515,20.4588465 C140.372715,20.2370636 139.978513,20.0920516 139.452911,20.0238107 L137.271664,19.742317 C136.11534,19.5887749 135.208677,19.145209 134.551675,18.4116193 C133.894673,17.6780295 133.561792,16.8335483 133.553032,15.8781756 C133.544272,14.9228028 133.855253,14.0953818 134.485975,13.3959125 C135.169257,12.6111421 135.97956,12.1036003 136.916883,11.8732873 C137.854206,11.6429742 138.795909,11.6515043 139.741992,11.8988776 C140.688076,12.1462509 141.520278,12.5514313 142.238601,13.1144188 C142.676602,13.4726836 142.873703,13.8480085 142.829903,14.2403938 C142.786103,14.632779 142.545202,14.9569233 142.1072,15.2128267 L142.00208,15.2640074 C141.616639,15.4857903 141.257478,15.5710915 140.924596,15.5199108 C140.591715,15.4687301 140.188754,15.2981278 139.715712,15.008104 C139.417871,14.8204415 139.10251,14.7010199 138.769629,14.6498392 C138.436748,14.5986585 138.108247,14.6285139 137.784126,14.7394054 C137.460005,14.8502969 137.166544,15.0507546 136.903743,15.3407784 C136.711022,15.5625614 136.610282,15.8056696 136.601522,16.0701031 C136.592762,16.3345366 136.680362,16.5691148 136.864323,16.7738375 C137.048283,16.9785602 137.324224,17.1065119 137.692146,17.1576926 L139.873393,17.4391863 C141.222437,17.6097886 142.251741,18.087475 142.961303,18.8722454 C143.670866,19.6570158 144.016887,20.5441477 143.999367,21.5336408 C143.981847,22.523134 143.640206,23.3846755 142.974443,24.1182652 C142.221081,24.9371561 141.248718,25.4660232 140.057354,25.7048663 C138.865989,25.9437095 137.674625,25.8797337 136.483261,25.5129388 C135.291897,25.1461439 134.328294,24.5362408 133.592452,23.6832294 Z" id="形状结合" fill-rule="nonzero"></path>
                        </g>
                        <text id="/" font-family="AlibabaPuHuiTi-Regular, Alibaba PuHuiTi" font-size="14" font-weight="normal" fill="#FFFFFF">
                            <tspan x="176" y="23">/</tspan>
                        </text>
                        <g id="编组-22" transform="translate(215, 10)" fill-rule="nonzero">
                            <g id="编组-7" transform="translate(88, 0)">
                                <g id="1300+图标" transform="translate(25.414, 1.94)" fill="#FFFFFF">
                                    <polygon id="路径" points="2.408 2.492 0 2.954 0 1.932 2.842 1.344 3.668 1.344 3.668 11.06 2.408 11.06"></polygon>
                                    <path d="M9.8,11.2 C9.408,11.2 9.02766667,11.186 8.659,11.158 C8.29033333,11.13 7.94266667,11.0833333 7.616,11.018 L7.616,9.912 C7.98933333,10.0053333 8.351,10.0683333 8.701,10.101 C9.051,10.1336667 9.41266667,10.15 9.786,10.15 C10.15,10.15 10.4883333,10.122 10.801,10.066 C11.1136667,10.01 11.382,9.912 11.606,9.772 C11.83,9.632 12.0073333,9.44766667 12.138,9.219 C12.2686667,8.99033333 12.334,8.708 12.334,8.372 C12.334,7.68133333 12.1006667,7.20066667 11.634,6.93 C11.1673333,6.65933333 10.472,6.524 9.548,6.524 L8.778,6.524 L8.778,5.558 L9.534,5.558 C10.3833333,5.558 11.0273333,5.40166667 11.466,5.089 C11.9046667,4.77633333 12.124,4.354 12.124,3.822 C12.124,3.25266667 11.9536667,2.84666667 11.613,2.604 C11.2723333,2.36133333 10.752,2.24 10.052,2.24 C9.772,2.24 9.45,2.26333333 9.086,2.31 C8.722,2.35666667 8.386,2.42666667 8.078,2.52 L8.078,1.484 C8.32066667,1.40933333 8.62633333,1.344 8.995,1.288 C9.36366667,1.232 9.73466667,1.204 10.108,1.204 C11.1533333,1.204 11.9443333,1.40466667 12.481,1.806 C13.0176667,2.20733333 13.286,2.856 13.286,3.752 C13.286,4.38666667 13.132,4.87433333 12.824,5.215 C12.516,5.55566667 12.096,5.80533333 11.564,5.964 L11.564,6.048 C12.2546667,6.16933333 12.7563333,6.42833333 13.069,6.825 C13.3816667,7.22166667 13.538,7.742 13.538,8.386 C13.538,9.282 13.237,9.975 12.635,10.465 C12.033,10.955 11.088,11.2 9.8,11.2 Z" id="路径"></path>
                                    <path d="M18.704,11.2 C18.2186667,11.2 17.7753333,11.1276667 17.374,10.983 C16.9726667,10.8383333 16.6273333,10.5793333 16.338,10.206 C16.0486667,9.83266667 15.8246667,9.32166667 15.666,8.673 C15.5073333,8.02433333 15.428,7.20066667 15.428,6.202 C15.428,5.20333333 15.5073333,4.382 15.666,3.738 C15.8246667,3.094 16.0486667,2.583 16.338,2.205 C16.6273333,1.827 16.9726667,1.56566667 17.374,1.421 C17.7753333,1.27633333 18.2186667,1.204 18.704,1.204 C19.1893333,1.204 19.635,1.27633333 20.041,1.421 C20.447,1.56566667 20.7946667,1.827 21.084,2.205 C21.3733333,2.583 21.5973333,3.094 21.756,3.738 C21.9146667,4.382 21.994,5.20333333 21.994,6.202 C21.994,7.20066667 21.9146667,8.02433333 21.756,8.673 C21.5973333,9.32166667 21.3733333,9.83266667 21.084,10.206 C20.7946667,10.5793333 20.447,10.8383333 20.041,10.983 C19.635,11.1276667 19.1893333,11.2 18.704,11.2 Z M18.704,10.15 C19.0493333,10.15 19.348,10.0916667 19.6,9.975 C19.852,9.85833333 20.062,9.65066667 20.23,9.352 C20.398,9.05333333 20.5216667,8.64966667 20.601,8.141 C20.6803333,7.63233333 20.72,6.986 20.72,6.202 C20.72,5.42733333 20.6803333,4.78566667 20.601,4.277 C20.5216667,3.76833333 20.398,3.36466667 20.23,3.066 C20.062,2.76733333 19.852,2.55966667 19.6,2.443 C19.348,2.32633333 19.0493333,2.268 18.704,2.268 C18.368,2.268 18.074,2.32633333 17.822,2.443 C17.57,2.55966667 17.3623333,2.76733333 17.199,3.066 C17.0356667,3.36466667 16.9143333,3.76833333 16.835,4.277 C16.7556667,4.78566667 16.716,5.42733333 16.716,6.202 C16.716,6.986 16.7556667,7.63233333 16.835,8.141 C16.9143333,8.64966667 17.0356667,9.05333333 17.199,9.352 C17.3623333,9.65066667 17.57,9.85833333 17.822,9.975 C18.074,10.0916667 18.368,10.15 18.704,10.15 Z" id="形状"></path>
                                    <path d="M26.754,11.2 C26.2686667,11.2 25.8253333,11.1276667 25.424,10.983 C25.0226667,10.8383333 24.6773333,10.5793333 24.388,10.206 C24.0986667,9.83266667 23.8746667,9.32166667 23.716,8.673 C23.5573333,8.02433333 23.478,7.20066667 23.478,6.202 C23.478,5.20333333 23.5573333,4.382 23.716,3.738 C23.8746667,3.094 24.0986667,2.583 24.388,2.205 C24.6773333,1.827 25.0226667,1.56566667 25.424,1.421 C25.8253333,1.27633333 26.2686667,1.204 26.754,1.204 C27.2393333,1.204 27.685,1.27633333 28.091,1.421 C28.497,1.56566667 28.8446667,1.827 29.134,2.205 C29.4233333,2.583 29.6473333,3.094 29.806,3.738 C29.9646667,4.382 30.044,5.20333333 30.044,6.202 C30.044,7.20066667 29.9646667,8.02433333 29.806,8.673 C29.6473333,9.32166667 29.4233333,9.83266667 29.134,10.206 C28.8446667,10.5793333 28.497,10.8383333 28.091,10.983 C27.685,11.1276667 27.2393333,11.2 26.754,11.2 Z M26.754,10.15 C27.0993333,10.15 27.398,10.0916667 27.65,9.975 C27.902,9.85833333 28.112,9.65066667 28.28,9.352 C28.448,9.05333333 28.5716667,8.64966667 28.651,8.141 C28.7303333,7.63233333 28.77,6.986 28.77,6.202 C28.77,5.42733333 28.7303333,4.78566667 28.651,4.277 C28.5716667,3.76833333 28.448,3.36466667 28.28,3.066 C28.112,2.76733333 27.902,2.55966667 27.65,2.443 C27.398,2.32633333 27.0993333,2.268 26.754,2.268 C26.418,2.268 26.124,2.32633333 25.872,2.443 C25.62,2.55966667 25.4123333,2.76733333 25.249,3.066 C25.0856667,3.36466667 24.9643333,3.76833333 24.885,4.277 C24.8056667,4.78566667 24.766,5.42733333 24.766,6.202 C24.766,6.986 24.8056667,7.63233333 24.885,8.141 C24.9643333,8.64966667 25.0856667,9.05333333 25.249,9.352 C25.4123333,9.65066667 25.62,9.85833333 25.872,9.975 C26.124,10.0916667 26.418,10.15 26.754,10.15 Z" id="形状"></path>
                                    <polygon id="路径" points="38.024 7.448 35.238 7.448 35.238 10.234 34.048 10.234 34.048 7.448 31.276 7.448 31.276 6.258 34.048 6.258 34.048 3.486 35.238 3.486 35.238 6.258 38.024 6.258"></polygon>
                                    <path d="M50.722,0.49 L50.722,12.53 L49.742,12.53 L49.742,11.746 L41.034,11.746 L41.034,12.53 L40.054,12.53 L40.054,0.49 L50.722,0.49 Z M49.742,10.836 L49.742,1.414 L41.034,1.414 L41.034,10.836 L49.742,10.836 Z M46.186,5.362 C46.6993333,5.586 47.2453333,5.77966667 47.824,5.943 C48.4026667,6.10633333 49.0233333,6.26266667 49.686,6.412 L49.294,7.28 C48.4726667,7.056 47.7446667,6.82733333 47.11,6.594 C46.4753333,6.36066667 45.8966667,6.104 45.374,5.824 C44.8513333,6.09466667 44.2726667,6.35366667 43.638,6.601 C43.0033333,6.84833333 42.28,7.09333333 41.468,7.336 L41.09,6.552 C41.79,6.356 42.4246667,6.15766667 42.994,5.957 C43.5633333,5.75633333 44.086,5.54866667 44.562,5.334 C44.03,4.97933333 43.526,4.55 43.05,4.046 C42.8633333,4.25133333 42.6673333,4.445 42.462,4.627 C42.2566667,4.809 42.0466667,4.98866667 41.832,5.166 L41.356,4.55 C41.608,4.34466667 41.8576667,4.116 42.105,3.864 C42.3523333,3.612 42.5856667,3.353 42.805,3.087 C43.0243333,2.821 43.2273333,2.555 43.414,2.289 C43.6006667,2.023 43.764,1.76866667 43.904,1.526 L44.674,1.848 C44.4966667,2.156 44.296,2.47333333 44.072,2.8 L48.426,2.8 L48.426,3.542 C48.0713333,3.89666667 47.7143333,4.22333333 47.355,4.522 C46.9956667,4.82066667 46.606,5.10066667 46.186,5.362 Z M43.582,3.542 C44.114,4.11133333 44.7066667,4.578 45.36,4.942 C46.116,4.53133333 46.7413333,4.06466667 47.236,3.542 L43.582,3.542 Z M43.442,6.72 C43.6753333,6.748 43.967,6.797 44.317,6.867 C44.667,6.937 45.0263333,7.01166667 45.395,7.091 C45.7636667,7.17033333 46.123,7.25433333 46.473,7.343 C46.823,7.43166667 47.124,7.51333333 47.376,7.588 L47.25,8.442 C47.0073333,8.34866667 46.7133333,8.25066667 46.368,8.148 C46.0226667,8.04533333 45.6656667,7.94966667 45.297,7.861 C44.9283333,7.77233333 44.569,7.69533333 44.219,7.63 C43.869,7.56466667 43.5726667,7.518 43.33,7.49 L43.442,6.72 Z M42.448,8.456 C42.7933333,8.484 43.2156667,8.54 43.715,8.624 C44.2143333,8.708 44.7253333,8.80366667 45.248,8.911 C45.7706667,9.01833333 46.2746667,9.13266667 46.76,9.254 C47.2453333,9.37533333 47.656,9.492 47.992,9.604 L47.838,10.472 C47.502,10.3413333 47.0913333,10.2083333 46.606,10.073 C46.1206667,9.93766667 45.619,9.814 45.101,9.702 C44.583,9.59 44.079,9.492 43.589,9.408 C43.099,9.324 42.6813333,9.268 42.336,9.24 L42.448,8.456 Z" id="形状"></path>
                                    <path d="M57.316,7.588 C57.2506667,7.46666667 57.1666667,7.33133333 57.064,7.182 C56.9613333,7.03266667 56.8516667,6.881 56.735,6.727 C56.6183333,6.573 56.4993333,6.42133333 56.378,6.272 C56.2566667,6.12266667 56.14,5.98266667 56.028,5.852 L56.028,12.656 L54.992,12.656 L54.992,5.768 C54.7493333,6.36533333 54.488,6.93 54.208,7.462 C53.928,7.994 53.6386667,8.484 53.34,8.932 L52.528,8.358 C52.7613333,8.04066667 52.9923333,7.68833333 53.221,7.301 C53.4496667,6.91366667 53.669,6.51 53.879,6.09 C54.089,5.67 54.285,5.24766667 54.467,4.823 C54.649,4.39833333 54.8053333,3.98533333 54.936,3.584 L53.144,3.584 L53.144,2.59 L54.992,2.59 L54.992,0 L56.028,0.042 L56.028,2.59 L57.652,2.59 L57.652,3.584 L56.028,3.584 L56.028,5.236 L56.378,4.914 C56.49,5.01666667 56.6183333,5.14966667 56.763,5.313 C56.9076667,5.47633333 57.057,5.649 57.211,5.831 C57.365,6.013 57.512,6.19266667 57.652,6.37 C57.792,6.54733333 57.904,6.69666667 57.988,6.818 L57.316,7.588 Z M64.638,1.89 L58.268,1.89 L58.268,0.868 L64.638,0.868 L64.638,1.89 Z M61.894,5.32 L61.894,10.948 C61.894,11.228 61.8636667,11.459 61.803,11.641 C61.7423333,11.823 61.642,11.97 61.502,12.082 C61.362,12.194 61.1753333,12.278 60.942,12.334 C60.7086667,12.39 60.4193333,12.432 60.074,12.46 L59.402,12.516 L59.038,11.438 L59.85,11.382 C60.0553333,11.3726667 60.2186667,11.3516667 60.34,11.319 C60.4613333,11.2863333 60.5546667,11.2373333 60.62,11.172 C60.6853333,11.1066667 60.7296667,11.0203333 60.753,10.913 C60.7763333,10.8056667 60.788,10.668 60.788,10.5 L60.788,5.32 L57.568,5.32 L57.568,4.298 L65.352,4.298 L65.352,5.32 L61.894,5.32 Z M59.99,6.748 C59.71,7.52266667 59.3903333,8.30666667 59.031,9.1 C58.6716667,9.89333333 58.226,10.696 57.694,11.508 L56.714,11.032 C56.966,10.668 57.204,10.2876667 57.428,9.891 C57.652,9.49433333 57.862,9.093 58.058,8.687 C58.254,8.281 58.4336667,7.88433333 58.597,7.497 C58.7603333,7.10966667 58.9073333,6.73866667 59.038,6.384 L59.99,6.748 Z M63.476,6.412 C63.644,6.68266667 63.8306667,7.01633333 64.036,7.413 C64.2413333,7.80966667 64.449,8.22033333 64.659,8.645 C64.869,9.06966667 65.065,9.48733333 65.247,9.898 C65.429,10.3086667 65.576,10.6586667 65.688,10.948 L64.736,11.522 C64.6333333,11.1953333 64.4956667,10.815 64.323,10.381 C64.1503333,9.947 63.9613333,9.513 63.756,9.079 C63.5506667,8.645 63.3453333,8.22966667 63.14,7.833 C62.9346667,7.43633333 62.7526667,7.112 62.594,6.86 L63.476,6.412 Z" id="形状"></path>
                                </g>
                                <g id="图层" transform="translate(0, 0)">
                                    <rect id="矩形" fill="#000000" opacity="0" x="0" y="0" width="16" height="16"></rect>
                                    <path d="M13.321875,7.2328125 L13.5109375,7.3515625 C13.8984375,7.5953125 14.015625,8.10625 13.771875,8.4953125 C13.70625,8.6 13.6171875,8.6890625 13.5109375,8.75625 L8.44375,11.9390625 C8.1734375,12.1078125 7.83125,12.1078125 7.5625,11.9390625 L2.4890625,8.75 C2.1015625,8.50625 1.984375,7.9953125 2.228125,7.60625 C2.29375,7.5015625 2.3828125,7.4125 2.4890625,7.3453125 L2.678125,7.2265625 L7.5609375,10.296875 C7.83125,10.465625 8.1734375,10.465625 8.4421875,10.296875 L13.3203125,7.234375 L13.321875,7.2328125 Z M13.321875,9.671875 L13.5109375,9.790625 C13.8984375,10.034375 14.015625,10.5453125 13.771875,10.934375 C13.70625,11.0390625 13.6171875,11.128125 13.5109375,11.1953125 L8.44375,14.378125 C8.1734375,14.546875 7.83125,14.546875 7.5625,14.378125 L2.4890625,11.1890625 C2.1015625,10.9453125 1.984375,10.434375 2.228125,10.0453125 C2.29375,9.940625 2.3828125,9.8515625 2.4890625,9.784375 L2.678125,9.665625 L7.5609375,12.734375 C7.83125,12.903125 8.1734375,12.903125 8.4421875,12.734375 L13.3203125,9.671875 L13.321875,9.671875 Z M8.4375,1.6625 L13.509375,4.8515625 C13.896875,5.0953125 14.0140625,5.60625 13.7703125,5.9953125 C13.7046875,6.1 13.615625,6.1890625 13.509375,6.25625 L8.44375,9.4375 C8.1734375,9.60625 7.83125,9.60625 7.5625,9.4375 L2.4890625,6.246875 C2.1015625,6.003125 1.984375,5.4921875 2.228125,5.103125 C2.29375,4.9984375 2.3828125,4.909375 2.4890625,4.8421875 L7.5578125,1.659375 C7.828125,1.490625 8.1703125,1.490625 8.4390625,1.659375 L8.4375,1.6625 Z" id="形状" fill="#FFFFFF"></path>
                                </g>
                            </g>
                            <g id="编组-7备份" fill="#FFFFFF">
                                <g id="V1.0.0" transform="translate(24.224, 3.144)">
                                    <polygon id="路径" points="0 0.14 1.344 0.14 4.074 8.526 4.158 8.526 6.93 0.14 8.204 0.14 4.858 9.856 3.29 9.856"></polygon>
                                    <polygon id="路径" points="12.236 1.288 9.828 1.75 9.828 0.728 12.67 0.14 13.496 0.14 13.496 9.856 12.236 9.856"></polygon>
                                    <path d="M17.192,9.94 C16.8653333,9.94 16.6343333,9.88866667 16.499,9.786 C16.3636667,9.68333333 16.296,9.436 16.296,9.044 C16.296,8.67066667 16.3636667,8.43266667 16.499,8.33 C16.6343333,8.22733333 16.8653333,8.176 17.192,8.176 C17.5093333,8.176 17.738,8.22733333 17.878,8.33 C18.018,8.43266667 18.088,8.67066667 18.088,9.044 C18.088,9.436 18.018,9.68333333 17.878,9.786 C17.738,9.88866667 17.5093333,9.94 17.192,9.94 Z" id="路径"></path>
                                    <path d="M23.324,9.996 C22.8386667,9.996 22.3953333,9.92366667 21.994,9.779 C21.5926667,9.63433333 21.2473333,9.37533333 20.958,9.002 C20.6686667,8.62866667 20.4446667,8.11766667 20.286,7.469 C20.1273333,6.82033333 20.048,5.99666667 20.048,4.998 C20.048,3.99933333 20.1273333,3.178 20.286,2.534 C20.4446667,1.89 20.6686667,1.379 20.958,1.001 C21.2473333,0.623 21.5926667,0.361666667 21.994,0.217 C22.3953333,0.0723333333 22.8386667,0 23.324,0 C23.8093333,0 24.255,0.0723333333 24.661,0.217 C25.067,0.361666667 25.4146667,0.623 25.704,1.001 C25.9933333,1.379 26.2173333,1.89 26.376,2.534 C26.5346667,3.178 26.614,3.99933333 26.614,4.998 C26.614,5.99666667 26.5346667,6.82033333 26.376,7.469 C26.2173333,8.11766667 25.9933333,8.62866667 25.704,9.002 C25.4146667,9.37533333 25.067,9.63433333 24.661,9.779 C24.255,9.92366667 23.8093333,9.996 23.324,9.996 Z M23.324,8.946 C23.6693333,8.946 23.968,8.88766667 24.22,8.771 C24.472,8.65433333 24.682,8.44666667 24.85,8.148 C25.018,7.84933333 25.1416667,7.44566667 25.221,6.937 C25.3003333,6.42833333 25.34,5.782 25.34,4.998 C25.34,4.22333333 25.3003333,3.58166667 25.221,3.073 C25.1416667,2.56433333 25.018,2.16066667 24.85,1.862 C24.682,1.56333333 24.472,1.35566667 24.22,1.239 C23.968,1.12233333 23.6693333,1.064 23.324,1.064 C22.988,1.064 22.694,1.12233333 22.442,1.239 C22.19,1.35566667 21.9823333,1.56333333 21.819,1.862 C21.6556667,2.16066667 21.5343333,2.56433333 21.455,3.073 C21.3756667,3.58166667 21.336,4.22333333 21.336,4.998 C21.336,5.782 21.3756667,6.42833333 21.455,6.937 C21.5343333,7.44566667 21.6556667,7.84933333 21.819,8.148 C21.9823333,8.44666667 22.19,8.65433333 22.442,8.771 C22.694,8.88766667 22.988,8.946 23.324,8.946 Z" id="形状"></path>
                                    <path d="M29.47,9.94 C29.1433333,9.94 28.9123333,9.88866667 28.777,9.786 C28.6416667,9.68333333 28.574,9.436 28.574,9.044 C28.574,8.67066667 28.6416667,8.43266667 28.777,8.33 C28.9123333,8.22733333 29.1433333,8.176 29.47,8.176 C29.7873333,8.176 30.016,8.22733333 30.156,8.33 C30.296,8.43266667 30.366,8.67066667 30.366,9.044 C30.366,9.436 30.296,9.68333333 30.156,9.786 C30.016,9.88866667 29.7873333,9.94 29.47,9.94 Z" id="路径"></path>
                                    <path d="M35.602,9.996 C35.1166667,9.996 34.6733333,9.92366667 34.272,9.779 C33.8706667,9.63433333 33.5253333,9.37533333 33.236,9.002 C32.9466667,8.62866667 32.7226667,8.11766667 32.564,7.469 C32.4053333,6.82033333 32.326,5.99666667 32.326,4.998 C32.326,3.99933333 32.4053333,3.178 32.564,2.534 C32.7226667,1.89 32.9466667,1.379 33.236,1.001 C33.5253333,0.623 33.8706667,0.361666667 34.272,0.217 C34.6733333,0.0723333333 35.1166667,0 35.602,0 C36.0873333,0 36.533,0.0723333333 36.939,0.217 C37.345,0.361666667 37.6926667,0.623 37.982,1.001 C38.2713333,1.379 38.4953333,1.89 38.654,2.534 C38.8126667,3.178 38.892,3.99933333 38.892,4.998 C38.892,5.99666667 38.8126667,6.82033333 38.654,7.469 C38.4953333,8.11766667 38.2713333,8.62866667 37.982,9.002 C37.6926667,9.37533333 37.345,9.63433333 36.939,9.779 C36.533,9.92366667 36.0873333,9.996 35.602,9.996 Z M35.602,8.946 C35.9473333,8.946 36.246,8.88766667 36.498,8.771 C36.75,8.65433333 36.96,8.44666667 37.128,8.148 C37.296,7.84933333 37.4196667,7.44566667 37.499,6.937 C37.5783333,6.42833333 37.618,5.782 37.618,4.998 C37.618,4.22333333 37.5783333,3.58166667 37.499,3.073 C37.4196667,2.56433333 37.296,2.16066667 37.128,1.862 C36.96,1.56333333 36.75,1.35566667 36.498,1.239 C36.246,1.12233333 35.9473333,1.064 35.602,1.064 C35.266,1.064 34.972,1.12233333 34.72,1.239 C34.468,1.35566667 34.2603333,1.56333333 34.097,1.862 C33.9336667,2.16066667 33.8123333,2.56433333 33.733,3.073 C33.6536667,3.58166667 33.614,4.22333333 33.614,4.998 C33.614,5.782 33.6536667,6.42833333 33.733,6.937 C33.8123333,7.44566667 33.9336667,7.84933333 34.097,8.148 C34.2603333,8.44666667 34.468,8.65433333 34.72,8.771 C34.972,8.88766667 35.266,8.946 35.602,8.946 Z" id="形状"></path>
                                </g>
                                <g id="版本信息">
                                    <rect id="矩形" opacity="0" x="0" y="0" width="16" height="16"></rect>
                                    <path d="M8,7.2 C7.5581722,7.2 7.2,7.5581722 7.2,8 L7.2,10.4 C7.2,10.8418278 7.5581722,11.2 8,11.2 C8.4418278,11.2 8.8,10.8418278 8.8,10.4 L8.8,8 C8.8,7.5581722 8.4418278,7.2 8,7.2 Z M8,1.6 C4.4653776,1.6 1.6,4.4653776 1.6,8 C1.6,11.5346224 4.4653776,14.4 8,14.4 C11.5346224,14.4 14.4,11.5346224 14.4,8 C14.4,6.30261447 13.7257162,4.67474942 12.5254834,3.4745166 C11.3252506,2.27428378 9.69738553,1.6 8,1.6 L8,1.6 Z M8,12.8 C5.3490332,12.8 3.2,10.6509668 3.2,8 C3.2,5.3490332 5.3490332,3.2 8,3.2 C10.6509668,3.2 12.8,5.3490332 12.8,8 C12.8,9.27303915 12.2942872,10.4939379 11.3941125,11.3941125 C10.4939379,12.2942872 9.27303915,12.8 8,12.8 Z M8.4,4.8 L7.6,4.8 C7.3790861,4.8 7.2,4.9790861 7.2,5.2 L7.2,6 C7.2,6.2209139 7.3790861,6.4 7.6,6.4 L8.4,6.4 C8.6209139,6.4 8.8,6.2209139 8.8,6 L8.8,5.2 C8.8,4.9790861 8.6209139,4.8 8.4,4.8 Z" id="形状"></path>
                                </g>
                            </g>
                        </g>
                    </g>
                </g>
            </g>
        </g>
    </g>
</svg>