<?xml version="1.0" encoding="UTF-8"?>
<svg width="24px" height="24px" viewBox="0 0 24 24" version="1.1" xmlns="http://www.w3.org/2000/svg" xmlns:xlink="http://www.w3.org/1999/xlink">
    <title>gitee</title>
    <g id="白色版本" stroke="none" stroke-width="1" fill="none" fill-rule="evenodd">
        <g id="Apple-TV备份" transform="translate(-1832, -18)" fill-rule="nonzero">
            <g id="gitee" transform="translate(1832, 18)">
                <rect id="矩形" fill="#000000" opacity="0" x="0" y="0" width="24" height="24"></rect>
                <path d="M12,22 C6.47699219,22 2,17.5230078 2,12 C2,6.47699219 6.47699219,2 12,2 C17.5230078,2 22,6.47699219 22,12 C22,17.5230078 17.5230078,22 12,22 Z M17.0615039,10.8890039 L11.3829883,10.8890039 C11.1101651,10.8890147 10.8890039,11.1101846 10.8890039,11.3830078 L10.8884961,12.6175 C10.8884961,12.89 11.1094922,13.1115039 11.3819922,13.1115039 L14.8394922,13.1115039 C15.1125,13.1115039 15.3334961,13.3325 15.3334961,13.605 L15.3334961,13.8519922 C15.3334961,14.6702042 14.6702042,15.3334961 13.8519922,15.3334961 L9.16,15.3334961 C8.88736751,15.3332158 8.66650376,15.1121248 8.66650391,14.8394922 L8.66650391,10.1484961 C8.66650386,9.33048235 9.32948631,8.66727258 10.1475,8.66699219 L17.0605078,8.66699219 C17.3331327,8.66671194 17.5539933,8.44563282 17.5540039,8.17300781 L17.5555078,6.93849609 C17.5555078,6.66585584 17.3346323,6.44476167 17.0619922,6.44449219 L10.1475,6.44449219 C9.16518198,6.44449219 8.22310428,6.83474991 7.52854634,7.52939943 C6.83398839,8.22404895 6.44385486,9.16617808 6.44398434,10.1484961 L6.44398434,17.0615234 C6.44398434,17.3345117 6.665,17.5555273 6.93800781,17.5555273 L14.2219922,17.5555273 C16.0627616,17.5555273 17.555,16.0632889 17.555,14.2225195 L17.555,11.3825 C17.5547197,11.1098675 17.3336287,10.8890038 17.0609961,10.8890039 L17.0615039,10.8890039 Z" id="形状" fill="#C71D23"></path>
            </g>
        </g>
    </g>
</svg>