<?xml version="1.0" encoding="UTF-8"?>
<svg width="24px" height="24px" viewBox="0 0 24 24" version="1.1" xmlns="http://www.w3.org/2000/svg" xmlns:xlink="http://www.w3.org/1999/xlink">
    <title>github</title>
    <g id="白色版本" stroke="none" stroke-width="1" fill="none" fill-rule="evenodd">
        <g id="Apple-TV备份" transform="translate(-1872, -18)" fill="#000000" fill-rule="nonzero">
            <g id="github" transform="translate(1872, 18)">
                <rect id="矩形" opacity="0" x="0" y="0" width="24" height="24"></rect>
                <path d="M11.9991236,2 C6.47739506,2 2,6.58955323 2,12.2525054 C2,16.7832182 4.86434588,20.6256694 8.83913938,21.9825723 C9.33825588,22.0744059 9.49653023,21.7721592 9.49653023,21.5002521 C9.49653023,21.2559891 9.50174762,20.5757512 9.49653023,19.7198904 C6.71566256,20.3385925 6.13914121,18.3692352 6.13914121,18.3692352 C5.68435212,17.184403 5.03044631,16.8697028 5.03044631,16.8697028 C4.12174448,16.2331564 5.09739599,16.2465292 5.09739599,16.2465292 C6.1000108,16.317844 6.62957566,17.3020838 6.62957566,17.3020838 C7.52174897,18.8693788 8.96957407,18.4164789 9.53912531,18.1543924 C9.63130596,17.4928555 9.88869029,17.039078 10.1747906,16.7849943 C7.95391579,16.5246839 5.62001113,15.6465282 5.62001113,11.7158164 C5.62001113,10.5969498 6.00956249,9.68224865 6.64956885,8.96456679 C6.54695343,8.70693098 6.20262622,7.66295221 6.74696688,6.25168047 C6.74696688,6.25168047 7.58782229,5.9762003 9.49653023,7.30366204 C10.312741,7.07543454 11.1548552,6.95912301 12.0008764,6.95776558 C12.8495578,6.96221623 13.7052094,7.07544644 14.5052225,7.30366204 C16.41391,5.97707789 17.2521771,6.25168047 17.2521771,6.25168047 C17.7973942,7.66295221 17.4539025,8.70693098 17.3513075,8.96456679 C17.9912935,9.68224865 18.3799889,10.5969498 18.3799889,11.7158164 C18.3799889,15.656328 16.0417432,16.5220094 13.8139186,16.7742961 C14.1721656,17.0925693 14.4982524,17.7077192 14.4982524,18.6643358 L14.4982524,21.5029267 C14.4982524,21.7775292 14.6599914,22.0797551 15.1678307,21.9807962 C19.1382424,20.6229948 22,16.7814422 22,12.2525054 C22,6.58955323 17.5234813,2 11.9991236,2 Z" id="路径"></path>
            </g>
        </g>
    </g>
</svg>