<?xml version="1.0" encoding="UTF-8"?>
<svg width="64px" height="64px" viewBox="0 0 64 64" version="1.1" xmlns="http://www.w3.org/2000/svg" xmlns:xlink="http://www.w3.org/1999/xlink">
    <title>iconfont</title>
    <defs>
        <linearGradient x1="21.9187192%" y1="16.4859092%" x2="99.930278%" y2="79.1220207%" id="linearGradient-1">
            <stop stop-color="#00F9E5" offset="0%"></stop>
            <stop stop-color="#299DF4" offset="56.8%"></stop>
            <stop stop-color="#4A54FF" offset="100%"></stop>
        </linearGradient>
        <linearGradient x1="78.0318166%" y1="16.4205536%" x2="0.0202578162%" y2="79.1727796%" id="linearGradient-2">
            <stop stop-color="#00F9E5" offset="0%"></stop>
            <stop stop-color="#299DF4" offset="56.8%"></stop>
            <stop stop-color="#4A54FF" offset="100%"></stop>
        </linearGradient>
    </defs>
    <g id="白色版本" stroke="none" stroke-width="1" fill="none" fill-rule="evenodd">
        <g id="Apple-TV备份" transform="translate(-1538, -680)">
            <g id="iconfont" transform="translate(1538, 680)">
                <rect id="矩形" fill-opacity="0" fill="#D8D8D8" x="0" y="0" width="64" height="64"></rect>
                <g id="编组" fill-rule="nonzero">
                    <path d="M58.4277298,34.8117084 C58.8565773,35.4008297 59.0710011,36.0970638 59.0173951,36.793298 C58.4277298,51.1464332 46.5808164,62.6075187 32.0536059,62.6075187 C17.5263955,62.6075187 5.67948212,51.1464332 5.08981675,36.793298 C5.0362108,36.0970638 5.25063458,35.4008297 5.67948212,34.8117084 L29.8021563,2.83849315 C31.035093,1.23179891 33.4473605,1.23179891 34.6802971,2.83849315 L58.4277298,34.8117084 Z" id="路径" fill="#00F9E5"></path>
                    <path d="M23.4230492,45.4158904 C17.955243,50.3430861 9.59271594,49.9146343 4.66096921,44.5054303 C-0.270777526,39.0426699 0.158070015,30.6878599 5.57227023,25.7606643 C11.0400764,20.8334686 19.4026035,21.2619204 24.3343502,26.6711243 C29.2660969,32.0803282 28.8908553,40.4886948 23.4230492,45.4158904 Z" id="路径" fill="#FFFFFF"></path>
                    <path d="M14.5244627,50.0753037 C10.5576229,50.0753037 6.59078314,48.4686095 3.74966818,45.3087775 C-1.61092609,39.3640088 -1.18207855,30.1522952 4.76818109,24.7966477 C7.662902,22.1723805 11.361712,20.8334686 15.2213399,21.0476945 C19.0809678,21.2619204 22.672566,22.9221711 25.2992572,25.8142207 C30.6598514,31.7589894 30.2310039,40.970703 24.2807442,46.3263505 C21.4932352,48.8435048 18.0088489,50.0753037 14.5244627,50.0753037 Z M14.4708567,23.5112923 C11.4689239,23.5112923 8.62780897,24.5824218 6.37635937,26.6175678 C1.44461264,31.0627552 1.06937104,38.7213311 5.51866429,43.6485267 C7.662902,46.0585681 10.6648348,47.4510364 13.8811914,47.6117059 C17.0975479,47.7723753 20.2066926,46.6476893 22.5653541,44.5054303 C27.4971008,40.060243 27.8723424,32.4016671 23.4230492,27.4744714 C21.2788115,25.0644301 18.2768787,23.6719617 15.0605221,23.5112923 L14.4708567,23.5112923 L14.4708567,23.5112923 Z" id="形状" fill="#0C6066"></path>
                    <path d="M9.69992782,30.2594081 C6.80520691,32.8836754 6.59078314,37.3288628 9.21747434,40.1673559 C11.8441655,43.0594055 16.2934588,43.2736314 19.1345737,40.6493642 C20.0994807,39.7924606 20.742752,38.7213311 21.1179936,37.5966451 L9.69992782,30.2594081 Z" id="路径" fill="#1E1E1E"></path>
                    <path d="M14.0420092,21.9045981 L28.7300375,1.71380719 C29.5341266,0.642677694 30.7670633,0 32.1072119,0 C33.4473605,0 34.6802971,0.642677694 35.4843863,1.71380719 L49.9579908,21.9581546 L47.0632699,22.1723805 L33.6081783,3.21338847 C33.2865426,2.78493668 32.7504832,2.5171543 32.1608178,2.5171543 C31.5711525,2.5171543 31.088699,2.78493668 30.7670633,3.21338847 L16.6687004,22.4937193 L14.0420092,21.9045981 Z M9.43189811,47.9866012 C10.6648348,50.3430861 12.326619,52.485345 14.3100389,54.4133781 C19.0809678,58.9656785 25.3528631,61.5363892 31.9463941,61.5363892 C38.539925,61.5363892 44.8118203,59.0192349 49.5827492,54.4133781 C51.7269869,52.3782321 53.4423771,50.0217472 54.7289197,47.4510364 L58.213306,45.5765598 C56.7659455,49.5397389 54.4072841,53.1815792 51.2981394,56.1807418 C46.044757,61.2150504 39.1831963,63.9999935 31.9463941,63.9999935 C24.7341593,64.0048916 17.7996392,61.2221283 12.5946487,56.2342983 C9.53910999,53.2886922 7.23405446,49.8075213 5.786694,45.9514552 L9.43189811,47.9866012 L9.43189811,47.9866012 Z" id="形状" fill="#0C6066"></path>
                    <path d="M26.6930117,40.9171465 C28.7836434,36.0970638 27.9259484,30.2594081 23.9591086,26.2426725 C19.0273619,21.2619204 10.9328645,20.994138 5.67948212,25.5999948 C5.30424052,25.9748902 4.92899892,26.296229 4.55375732,26.7246808 C4.44654543,26.8317937 4.50015138,26.9924632 4.60736326,27.0460196 L26.3177701,41.0242595 C26.424982,41.077816 26.6394057,41.0242595 26.6930117,40.9171465 L26.6930117,40.9171465 Z" id="路径" fill="url(#linearGradient-1)"></path>
                    <path d="M26.6930117,40.9171465 L27.8187365,41.3991548 C28.6228256,39.5246782 29.0516731,37.5430887 29.0516731,35.5614991 C29.0516731,31.8661024 27.6579186,28.1707056 24.8704096,25.3322125 C22.0292947,22.4937193 18.2768787,21.0476945 14.5244627,21.0476945 C11.0936823,21.0476945 7.60929606,22.2259369 4.87539298,24.6895348 C4.44654543,25.0644301 4.01769789,25.4928819 3.64245629,25.8677772 C3.37442658,26.189116 3.26721469,26.5104549 3.26721469,26.8853502 C3.26721469,27.3673585 3.48163847,27.8493668 3.96409195,28.1171491 L25.6208928,42.0418325 C25.8889225,42.2025019 26.1569522,42.2560584 26.424982,42.2560584 C26.6930117,42.2560584 26.9610414,42.2025019 27.2290711,42.0418325 C27.4434949,41.8811631 27.6579186,41.6669372 27.8187365,41.3991548 L26.6930117,40.9171465 L25.5672869,40.4351383 L26.4785879,40.8635901 L25.9425285,40.0066865 C25.7817106,40.1137994 25.6208928,40.2744689 25.5672869,40.4351383 L26.4785879,40.8635901 L25.9425285,40.0066865 L26.4785879,40.8635901 L26.4785879,39.8460171 C26.2641641,39.8460171 26.1033463,39.8995735 25.9425285,40.0066865 L26.4785879,40.8635901 L26.4785879,39.8460171 L26.4785879,40.8635901 L27.0146473,40.0066865 C26.8538295,39.8995735 26.6394057,39.8460171 26.4785879,39.8460171 L26.4785879,40.8635901 L27.0146473,40.0066865 L5.30424052,26.0284466 L4.76818109,26.8853502 L5.786694,26.8853502 C5.786694,26.5640114 5.62587617,26.2426725 5.30424052,26.0284466 L4.76818109,26.8853502 L5.786694,26.8853502 L4.76818109,26.8853502 L5.51866429,27.5815844 C5.67948212,27.3673585 5.786694,27.1531326 5.786694,26.8853502 L4.76818109,26.8853502 L5.51866429,27.5815844 C5.84029995,27.2602455 6.1619356,26.8853502 6.5371772,26.5640114 C8.7886268,24.5824218 11.6297418,23.5648488 14.5244627,23.5648488 C17.6336073,23.5648488 20.796358,24.7430912 23.1014135,27.0995761 C25.460075,29.456061 26.5857998,32.50878 26.5857998,35.5614991 C26.5857998,37.2217498 26.2641641,38.8820005 25.5672869,40.3815818 L26.6930117,40.9171465 L26.6930117,40.9171465 Z" id="路径" fill="#0C6066"></path>
                    <path d="M40.5769508,45.4158904 C46.044757,50.3430861 54.4072841,49.9146343 59.3390308,44.5054303 C64.2707775,39.0426699 63.84193,30.6878599 58.4277298,25.7606643 C52.9599236,20.8334686 44.5973965,21.2619204 39.6656498,26.6711243 C34.7339031,32.0803282 35.1091447,40.4886948 40.5769508,45.4158904 Z" id="路径" fill="#FFFFFF"></path>
                    <path d="M39.7192558,46.3263505 C33.7689961,40.970703 33.3401486,31.7589894 38.7007428,25.8142207 C41.327434,22.9221711 44.8654263,21.2619204 48.7786601,21.0476945 C52.638288,20.8334686 56.3907039,22.1723805 59.2318189,24.7966477 C65.1820786,30.1522952 65.6109261,39.3640088 60.2503318,45.3087775 C57.4092169,48.4686095 53.4423771,50.0753037 49.4755373,50.0753037 C45.9911511,50.0753037 42.5067648,48.8435048 39.7192558,46.3263505 L39.7192558,46.3263505 Z M48.885872,23.5112923 C45.6695154,23.6719617 42.7211885,25.0644301 40.5233449,27.4744714 C36.0740516,32.4016671 36.4492932,40.060243 41.38104,44.5054303 C43.7933074,46.6476893 46.8488461,47.7723753 50.0652027,47.6117059 C53.2815593,47.4510364 56.2298861,46.0585681 58.4277298,43.6485267 C62.877023,38.7213311 62.5017814,31.0627552 57.5700347,26.6175678 C55.3185851,24.5824218 52.4774701,23.5112923 49.4755373,23.5112923 L48.885872,23.5112923 L48.885872,23.5112923 Z" id="形状" fill="#0C6066"></path>
                    <path d="M54.3000722,30.2058516 C57.1947931,32.8301189 57.4092169,37.2753063 54.7825257,40.1137994 C52.1558345,43.0058491 47.7065412,43.220075 44.8654263,40.5958077 C43.9005193,39.7389041 43.257248,38.6677746 42.8820064,37.5430887 L54.3000722,30.2058516 L54.3000722,30.2058516 Z" id="路径" fill="#1E1E1E"></path>
                    <path d="M37.3069883,40.8635901 C35.2163566,36.0435074 36.0740516,30.2058516 40.0408914,26.189116 C44.9726381,21.2083639 53.0671355,20.9405815 58.3205179,25.5464384 C58.6957595,25.9213337 59.0710011,26.2426725 59.4462427,26.6711243 C59.5534546,26.7782373 59.4998486,26.9389067 59.3926367,26.9924632 L37.6822299,40.970703 C37.5214121,41.077816 37.3605943,41.0242595 37.3069883,40.8635901 Z" id="路径" fill="url(#linearGradient-2)"></path>
                    <path d="M37.3069883,40.8635901 L38.4327131,40.3815818 C37.7358359,38.828444 37.4142002,37.2217498 37.4142002,35.5614991 C37.4142002,32.50878 38.539925,29.456061 40.8985865,27.0995761 C43.203642,24.7430912 46.3663927,23.5648488 49.4755373,23.5648488 C52.3166523,23.5648488 55.1577673,24.5824218 57.4628228,26.5640114 C57.8380644,26.8853502 58.1597001,27.2066891 58.4813357,27.5815844 L59.2318189,26.8853502 L58.213306,26.8853502 C58.213306,27.0995761 58.3205179,27.3673585 58.4813357,27.5815844 L59.2318189,26.8853502 L58.213306,26.8853502 L59.2318189,26.8853502 L58.6957595,26.0284466 C58.4277298,26.2426725 58.213306,26.5640114 58.213306,26.8853502 L59.2318189,26.8853502 L58.6957595,26.0284466 L36.9853527,39.95313 L37.5214121,40.8100336 L37.5214121,39.7924606 C37.3605943,39.7924606 37.1461705,39.8460171 36.9853527,39.95313 L37.5214121,40.8100336 L37.5214121,39.7924606 L37.5214121,40.8100336 L38.0574715,39.95313 C37.8966537,39.8460171 37.7358359,39.7924606 37.5214121,39.7924606 L37.5214121,40.8100336 L38.0574715,39.95313 L37.5214121,40.8100336 L38.4327131,40.3815818 C38.3255012,40.1673559 38.2182894,40.0066865 38.0574715,39.95313 L37.5214121,40.8100336 L38.4327131,40.3815818 L37.3069883,40.8635901 L36.1812635,41.3455983 C36.2884754,41.6133807 36.5028992,41.8811631 36.7709289,41.988276 C36.9853527,42.1489455 37.3069883,42.2025019 37.575018,42.2025019 C37.8430478,42.2025019 38.1110775,42.1489455 38.3791072,41.988276 L60.089514,28.0100362 C60.5183615,27.7422538 60.7327853,27.2602455 60.7327853,26.7782373 C60.7327853,26.4568984 60.6255734,26.0820031 60.3575437,25.8142207 C59.9823021,25.3857689 59.5534546,25.0108736 59.124607,24.6359783 C56.3907039,22.2259369 52.9063177,20.994138 49.4755373,20.994138 C45.7231213,20.994138 41.9170994,22.4401628 39.1295904,25.278656 C36.3420814,28.1171491 34.9483269,31.8125459 34.9483269,35.5079426 C34.9483269,37.4895322 35.3771744,39.4711217 36.1812635,41.3455983 L37.3069883,40.8635901 L37.3069883,40.8635901 Z" id="路径" fill="#0C6066"></path>
                </g>
            </g>
        </g>
    </g>
</svg>