<?xml version="1.0" encoding="UTF-8"?>
<svg width="24px" height="24px" viewBox="0 0 24 24" version="1.1" xmlns="http://www.w3.org/2000/svg" xmlns:xlink="http://www.w3.org/1999/xlink">
    <title>license</title>
    <g id="白色版本" stroke="none" stroke-width="1" fill="none" fill-rule="evenodd">
        <g id="Apple-TV备份" transform="translate(-1752, -18)" fill="#000000" fill-rule="nonzero">
            <g id="license" transform="translate(1752, 18)">
                <rect id="矩形" opacity="0" x="0" y="0" width="24" height="24"></rect>
                <path d="M10,9.72059337 C10,10.8235392 10.8970437,11.7205934 11.9999805,11.7205934 C13.1029172,11.7205934 13.9999805,10.8235392 13.9999805,9.72059337 C13.9999805,8.61765927 13.1029563,7.72059337 12,7.72059337 C10.8970437,7.72059337 10,8.61765927 10,9.72059337 L10,9.72059337 Z M11.9999805,2 C9.33822624,3.77941396 6.67647203,4.66176202 4,4.66176202 L4,10.9558826 C4,14.5294088 5.77942829,17.8529466 8.75000244,19.8382541 L11.9999805,22 L15.249978,19.8382541 C18.2205717,17.8529466 20,14.5294284 20,10.9558826 L20,4.66176202 C17.3382262,4.66176202 14.676472,3.77941396 12,2 L11.9999805,2 Z M12.6617542,12.9411902 L12.6617542,14.2058897 L14.6470364,14.2058897 L14.6470364,15.5294215 L12.6617542,15.5294215 L12.6617542,17.6764887 L11.3529245,17.6764887 L11.3529245,12.9411706 C9.82352309,12.6323498 8.67647203,11.2941196 8.67647203,9.67646521 C8.67647203,7.83822919 10.1617591,6.33822919 12.0146983,6.33822919 C13.8676374,6.33822919 15.3529245,7.82354016 15.3529245,9.67648476 C15.3382262,11.2794213 14.1911556,12.6323693 12.6617542,12.9411902 L12.6617542,12.9411902 Z" id="形状"></path>
            </g>
        </g>
    </g>
</svg>