<?xml version="1.0" encoding="UTF-8"?>
<svg width="270px" height="24px" viewBox="0 0 270 24" version="1.1" xmlns="http://www.w3.org/2000/svg" xmlns:xlink="http://www.w3.org/1999/xlink">
    <title>编组 28</title>
    <g id="白色版本" stroke="none" stroke-width="1" fill="none" fill-rule="evenodd">
        <g id="Apple-TV备份" transform="translate(-24, -18)">
            <g id="编组-28" transform="translate(24, 18)">
                <g id="编组-2">
                    <g id="编组" fill="#007873">
                        <path d="M6.40744201,0.453808161 L10.1538462,6.79984615 L10.1538462,6.79984615 L10.1538462,17.2001538 L6.40744201,23.5461918 C6.24141316,23.8274283 5.93913482,24 5.61254715,24 L1.61685206,24 C1.10705075,24 0.693775137,23.5867244 0.693775137,23.0769231 C0.693775137,22.9118559 0.738037995,22.7498084 0.821952554,22.6076622 L6.53003187,12.9385218 C6.87183831,12.3595224 6.87183831,11.6404776 6.53003187,11.0614782 L0.821952554,1.39233781 C0.562786922,0.953326937 0.708580297,0.38734305 1.14759117,0.128177417 C1.28973735,0.0442628583 1.45178483,-3.0274455e-16 1.61685206,0 L5.61254715,0 C5.93913482,-3.25036573e-16 6.24141316,0.172571729 6.40744201,0.453808161 Z" id="路径" opacity="0.400000006"></path>
                        <path d="M16.6153846,0 C23.2428016,0 28.6153846,5.372583 28.6153846,12 C28.6153846,18.627417 23.2428016,24 16.6153846,24 L12,24 C10.9803974,24 10.1538462,23.1734488 10.1538462,22.1538462 L10.1538462,1.84615385 C10.1538462,0.826551231 10.9803974,-2.56791248e-16 12,0 L16.6153846,0 L16.6153846,0 Z M16.6153846,5.53846154 C16.1055833,5.53846154 15.6923077,5.95173715 15.6923077,6.46153846 L15.6923077,17.5384615 C15.6923077,18.0482628 16.1055833,18.4615385 16.6153846,18.4615385 L16.6153846,18.4615385 L16.6153846,18.4615385 C20.1839938,18.4615385 23.0769231,15.5686092 23.0769231,12 C23.0769231,8.43139085 20.1839938,5.53846154 16.6153846,5.53846154 Z" id="路径"></path>
                    </g>
                    <path d="M45.8740147,17.4745307 C46.0842554,17.7688197 46.1795207,18.0471146 46.1598106,18.3094156 C46.1401006,18.5717166 46.0316952,18.7796381 45.8345945,18.9331802 C45.6374939,19.0867222 45.387833,19.1634932 45.085612,19.1634932 L45.0067718,19.1634932 C44.6265317,19.1634932 44.2956182,19.0963186 44.0140312,18.9619693 C43.7324441,18.82762 43.4865302,18.6069033 43.2762895,18.2998192 L34.7772474,6.63062393 C34.5670067,6.33633502 34.4553163,6.05804006 34.4421763,5.79573907 C34.4290362,5.53343808 34.5078765,5.32551657 34.6786971,5.17197452 C34.8495176,5.01843248 35.0794684,4.94166146 35.3685494,4.94166146 L35.4473896,4.94166146 C35.8407697,4.94166146 36.2078184,5.01203489 36.5485356,5.15278177 C36.8892528,5.29352864 37.1647318,5.51104653 37.3749725,5.80533545 L45.8740147,17.4745307 Z M37.0399014,18.2998192 C36.8296607,18.6069033 36.5837468,18.82762 36.3021598,18.9619693 C36.0205727,19.0963186 35.6896592,19.1634932 35.3094192,19.1634932 L35.2305789,19.1634932 C34.9283579,19.1634932 34.6786971,19.0867222 34.4815964,18.9331802 C34.2844957,18.7796381 34.1760904,18.5717166 34.1563803,18.3094156 C34.1366702,18.0471146 34.2319356,17.7688197 34.4421763,17.4745307 L42.9412184,5.80533545 C43.1514591,5.51104653 43.4269381,5.29352864 43.7676553,5.15278177 C44.1083726,5.01203489 44.4754212,4.94166146 44.8688013,4.94166146 L44.9476416,4.94166146 C45.2367225,4.94166146 45.4666733,5.01843248 45.6374939,5.17197452 C45.8083145,5.32551657 45.8871547,5.53343808 45.8740147,5.79573907 C45.8608746,6.05804006 45.7491843,6.33633502 45.5389435,6.63062393 L37.0399014,18.2998192 Z M53.8168971,17.8994703 C53.8168971,18.3081161 53.7052067,18.620948 53.4818259,18.8379661 C53.2584452,19.0549842 52.9365141,19.1634932 52.5160327,19.1634932 L52.4766126,19.1634932 C52.0561312,19.1634932 51.7342001,19.0549842 51.5108193,18.8379661 C51.2874386,18.620948 51.1757482,18.3081161 51.1757482,17.8994703 L51.1757482,6.09322678 L53.8168971,6.09322678 L53.8168971,17.8994703 Z M56.4383359,4.94166146 C56.8522473,4.94166146 57.1659658,5.04562222 57.3794915,5.25354373 C57.5930173,5.46146525 57.6997801,5.76694994 57.6997801,6.1699978 L57.6997801,6.20838331 C57.6997801,6.61143118 57.5930173,6.91691587 57.3794915,7.12483739 C57.1659658,7.3327589 56.8522473,7.43671966 56.4383359,7.43671966 L48.5345993,7.43671966 C48.1206879,7.43671966 47.8069694,7.3327589 47.5934437,7.12483739 C47.3799179,6.91691587 47.2731551,6.61143118 47.2731551,6.20838331 L47.2731551,6.1699978 C47.2731551,5.76694994 47.3799179,5.46146525 47.5934437,5.25354373 C47.8069694,5.04562222 48.1206879,4.94166146 48.5345993,4.94166146 L56.4383359,4.94166146 Z M61.7598661,5.86351349 C61.7598661,6.25356626 61.6531032,6.55250342 61.4395775,6.76032498 C61.2260518,6.96814653 60.9189033,7.07205731 60.5181319,7.07205731 L60.4787118,7.07205731 C60.0779404,7.07205731 59.7707919,6.96814653 59.5572662,6.76032498 C59.3437405,6.55250342 59.2369776,6.25356626 59.2369776,5.86351349 L59.2369776,5.82392843 C59.2369776,5.43387566 59.3437405,5.1349385 59.5572662,4.92711695 C59.7707919,4.71929539 60.0779404,4.61538462 60.4787118,4.61538462 L60.5181319,4.61538462 C60.9189033,4.61538462 61.2260518,4.71929539 61.4395775,4.92711695 C61.6531032,5.1349385 61.7598661,5.43387566 61.7598661,5.82392843 L61.7598661,5.86351349 Z M61.7598661,17.9543496 C61.7598661,18.3446023 61.6531032,18.6436894 61.4395775,18.8516109 C61.2260518,19.0595325 60.9189033,19.1634932 60.5181319,19.1634932 L60.4787118,19.1634932 C60.0779404,19.1634932 59.7707919,19.0595325 59.5572662,18.8516109 C59.3437405,18.6436894 59.2369776,18.3446023 59.2369776,17.9543496 L59.2369776,10.2004764 C59.2369776,9.81022375 59.3437405,9.51113664 59.5572662,9.30321512 C59.7707919,9.09529361 60.0779404,8.99133285 60.4787118,8.99133285 L60.5181319,8.99133285 C60.9189033,8.99133285 61.2260518,9.09529361 61.4395775,9.30321512 C61.6531032,9.51113664 61.7598661,9.81022375 61.7598661,10.2004764 L61.7598661,17.9543496 Z M71.1849301,16.3364603 C71.4846873,16.0843555 71.7626814,15.9391103 72.0189123,15.9007248 C72.2751431,15.8623393 72.5543691,15.9455079 72.8565901,16.1502306 L72.9354303,16.2078089 C73.2770715,16.437922 73.4708871,16.7000731 73.5168773,16.994262 C73.5628674,17.288451 73.441322,17.5697948 73.1522411,17.8382934 C72.6397793,18.3123145 72.0583324,18.6868731 71.4079002,18.9619693 C70.757468,19.2370654 70.0643307,19.3746135 69.3284882,19.3746135 C68.3429849,19.3746135 67.4330368,19.1379029 66.598644,18.6644816 C65.7642512,18.1910603 65.100679,17.5495524 64.6079274,16.739958 C64.1151757,15.9303636 63.8687999,15.0411493 63.8687999,14.072315 C63.8687999,13.1160759 64.1151757,12.2317097 64.6079274,11.4192164 C65.100679,10.6067231 65.7642512,9.96376579 66.598644,9.49034449 C67.4330368,9.01692319 68.3429849,8.78021254 69.3284882,8.78021254 C70.0774707,8.78021254 70.7837481,8.91776062 71.4473203,9.19285678 C72.1108926,9.46795294 72.6923395,9.84830937 73.1916612,10.3339261 C73.4676021,10.6156197 73.5760075,10.903711 73.5168773,11.1981998 C73.4577471,11.4926887 73.2573614,11.7358969 72.9157203,11.9278244 L72.7777498,12.0045954 C72.4755288,12.1837278 72.1995879,12.2461043 71.949927,12.1917248 C71.7002662,12.1373453 71.4243253,11.9854027 71.1221042,11.7358969 C70.8855834,11.5311741 70.6227826,11.3840297 70.3337016,11.2944635 C70.0446206,11.2048973 69.7094468,11.1601142 69.3281802,11.1601142 C68.7370836,11.1601142 68.2214395,11.2784695 67.781248,11.5151802 C67.3410565,11.7518908 66.9994154,12.0909628 66.7563246,12.5323962 C66.5132338,12.9738296 66.3916883,13.486736 66.3916883,14.0711154 C66.3916883,14.6638917 66.5132338,15.1809965 66.7563246,15.6224298 C66.9994154,16.0638632 67.3410565,16.4029352 67.781248,16.6396459 C68.2214395,16.8763565 68.7371862,16.9947119 69.3284882,16.9947119 C69.6964095,16.9947119 70.0314806,16.9403324 70.3337016,16.8315734 C70.6359226,16.7228145 70.9196654,16.5577768 71.1849301,16.3364603 Z M80.6814046,17.1098684 C81.2595665,17.1098684 81.7654582,16.9819167 82.1990797,16.7260133 C82.6327011,16.4701099 82.9644872,16.1118451 83.194438,15.651219 C83.4243888,15.1905928 83.5393642,14.6648913 83.5393642,14.0741143 C83.5393642,13.4749404 83.4243888,12.9482393 83.194438,12.4940107 C82.9644872,12.0397822 82.6327011,11.6847162 82.1990797,11.4288128 C81.7654582,11.1729094 81.2575134,11.0449577 80.6752452,11.0449577 C80.1011895,11.0449577 79.5973509,11.1729094 79.1637295,11.4288128 C78.730108,11.6847162 78.3983219,12.0397822 78.1683711,12.4940107 C77.9384203,12.9482393 77.823445,13.4749404 77.823445,14.0741143 C77.823445,14.6648913 77.9417053,15.1905928 78.1782261,15.651219 C78.4147469,16.1118451 78.7465331,16.4701099 79.1735845,16.7260133 C79.6006359,16.9819167 80.1032426,17.1098684 80.6814046,17.1098684 Z M80.6814046,19.3746135 C79.6959012,19.3746135 78.7859532,19.1347041 77.9515604,18.6548852 C77.1171676,18.1750663 76.4568804,17.5289102 75.9706987,16.7164169 C75.4845171,15.9039236 75.2414263,15.0242556 75.2414263,14.077413 C75.2414263,13.1177753 75.4878021,12.2317097 75.9805538,11.4192164 C76.4733054,10.6067231 77.1368776,9.96376579 77.9712704,9.49034449 C78.8056633,9.01692319 79.7120183,8.78021254 80.6903357,8.78021254 C81.6688583,8.78021254 82.5755727,9.01692319 83.4104788,9.49034449 C84.2453849,9.96376579 84.9059287,10.6067231 85.3921104,11.4192164 C85.878292,12.2317097 86.1213828,13.1177753 86.1213828,14.077413 C86.1213828,15.0242556 85.878292,15.9039236 85.3921104,16.7164169 C84.9059287,17.5289102 84.2456415,18.1750663 83.4112487,18.6548852 C82.5768559,19.1347041 81.6669079,19.3746135 80.6814046,19.3746135 Z M90.6941062,17.9543496 C90.6941062,18.3446023 90.5873433,18.6436894 90.3738176,18.8516109 C90.1602919,19.0595325 89.8531433,19.1634932 89.452372,19.1634932 L89.4129519,19.1634932 C89.0121805,19.1634932 88.705032,19.0595325 88.4915063,18.8516109 C88.2779805,18.6436894 88.1712177,18.3446023 88.1712177,17.9543496 L88.1712177,10.2004764 C88.1712177,9.81022375 88.2779805,9.51113664 88.4915063,9.30321512 C88.705032,9.09529361 89.0121805,8.99133285 89.4129519,8.99133285 L89.452372,8.99133285 C89.8531433,8.99133285 90.1602919,9.09529361 90.3738176,9.30321512 C90.5873433,9.51113664 90.6941062,9.81022375 90.6941062,10.2004764 L90.6941062,17.9543496 Z M88.1712177,16.0158813 C88.1712177,14.7363643 88.4143085,13.5400159 88.9004901,12.4268361 C89.3866718,11.3136563 90.056814,10.4275907 90.9109169,9.76863944 C91.7650198,9.10968817 92.717673,8.78021254 93.7688765,8.78021254 C94.4390187,8.78021254 95.0664559,8.96574251 95.6511878,9.33680245 C96.2359198,9.70786238 96.7089614,10.2484583 97.0703126,10.9585903 C97.4316638,11.6687222 97.6123394,12.4972095 97.6123394,13.4440521 L97.6123394,17.9573485 C97.6123394,18.3466016 97.5055765,18.644939 97.2920508,18.8523607 C97.0785251,19.0597824 96.7713766,19.1634932 96.3706052,19.1634932 L96.3311851,19.1634932 C95.9304138,19.1634932 95.6232652,19.0597824 95.4097395,18.8523607 C95.1962138,18.644939 95.0894509,18.3466016 95.0894509,17.9573485 L95.0894509,13.4440521 C95.0894509,12.9194501 94.9909006,12.4876131 94.7937999,12.1485411 C94.5966993,11.8094691 94.3470384,11.5599633 94.0448174,11.4000237 C93.7425964,11.240084 93.4272353,11.1601142 93.0987342,11.1601142 C92.6211758,11.1601142 92.2061352,11.256078 91.8536124,11.4480055 C91.5010897,11.6399331 91.2197079,11.9662099 91.0094672,12.4268361 C90.7992265,12.8874622 90.6941062,13.508028 90.6941062,14.2885333 L88.1712177,16.0158813 Z M100.194339,17.7624221 C99.931538,17.4425428 99.8526977,17.1354587 99.957818,16.8411698 C100.062938,16.5468809 100.299459,16.3421582 100.66738,16.2270016 L100.785641,16.1886161 C101.101002,16.0862548 101.367088,16.0798572 101.583899,16.1694234 C101.800709,16.2589896 102.073365,16.4445195 102.401866,16.7260133 C102.677807,16.9563263 103.006308,17.1098684 103.38737,17.1866394 C103.768431,17.2634104 104.142922,17.2474165 104.510843,17.1386575 C104.878765,17.0298986 105.194126,16.8347722 105.456927,16.5532785 C105.640887,16.3613509 105.739437,16.1534294 105.752578,15.9295139 C105.765718,15.7055985 105.673737,15.5104721 105.476637,15.3441349 C105.279536,15.1777977 104.983885,15.0690387 104.589684,15.017858 L102.953748,14.8067377 C102.086505,14.6915812 101.406508,14.3589068 100.913756,13.8087145 C100.421005,13.2585221 100.171344,12.6251612 100.164774,11.9086317 C100.158204,11.1921021 100.391439,10.5715364 100.864481,10.0469344 C101.376943,9.45835656 101.98467,9.07770025 102.687662,8.90496545 C103.390655,8.73223065 104.096932,8.73862824 104.806494,8.92415821 C105.516057,9.10968817 106.140209,9.41357347 106.678951,9.83581409 C107.007452,10.1045127 107.155277,10.3860064 107.122427,10.6802953 C107.089577,10.9745842 106.908901,11.2176925 106.5804,11.40962 L106.50156,11.4480055 C106.212479,11.6143428 105.943108,11.6783186 105.693447,11.6399331 C105.443786,11.6015476 105.141565,11.4735959 104.786784,11.256078 C104.563404,11.1153311 104.326883,11.0257649 104.077222,10.9873794 C103.827561,10.9489939 103.581185,10.9713854 103.338094,11.0545541 C103.095004,11.1377227 102.874908,11.2880659 102.677807,11.5055838 C102.533267,11.671921 102.457711,11.8542522 102.451141,12.0525773 C102.444571,12.2509025 102.510272,12.4268361 102.648242,12.5803781 C102.786213,12.7339202 102.993168,12.8298839 103.269109,12.8682694 L104.905045,13.0793898 C105.916828,13.2073415 106.688806,13.5656062 107.220977,14.1541841 C107.753149,14.7427619 108.012665,15.4081107 107.999525,16.1502306 C107.986385,16.8923505 107.730154,17.5385066 107.230832,18.0886989 C106.665811,18.7028671 105.936538,19.0995174 105.043015,19.2786497 C104.149492,19.4577821 103.255969,19.4098002 102.362446,19.1347041 C101.468923,18.8596079 100.746221,18.4021806 100.194339,17.7624221 Z" id="形状结合" fill="#000000" fill-rule="nonzero"></path>
                </g>
                <path d="M120.498,7.588 L121.499,7.588 L118.002,17.39 L117.001,17.39 L120.498,7.588 Z M129.637,7.978 C130.287,7.978 130.8785,8.0365 131.4115,8.1535 C131.9445,8.2705 132.401667,8.49366667 132.783,8.823 C133.164333,9.15233333 133.461167,9.61166667 133.6735,10.201 C133.885833,10.7903333 133.992,11.553 133.992,12.489 C133.992,13.3643333 133.885833,14.0901667 133.6735,14.6665 C133.461167,15.2428333 133.164333,15.7043333 132.783,16.051 C132.401667,16.3976667 131.9445,16.6425 131.4115,16.7855 C130.8785,16.9285 130.287,17 129.637,17 L127.037,17 L127.037,7.978 L129.637,7.978 Z M129.611,15.973 C130.079,15.973 130.508,15.9188333 130.898,15.8105 C131.288,15.7021667 131.623833,15.5158333 131.9055,15.2515 C132.187167,14.9871667 132.403833,14.6296667 132.5555,14.179 C132.707167,13.7283333 132.783,13.165 132.783,12.489 C132.783,11.7696667 132.702833,11.1825 132.5425,10.7275 C132.382167,10.2725 132.161167,9.91716667 131.8795,9.6615 C131.597833,9.40583333 131.264167,9.23033333 130.8785,9.135 C130.492833,9.03966667 130.070333,8.992 129.611,8.992 L128.207,8.992 L128.207,15.973 L129.611,15.973 Z M141.467,15.947 L141.467,17 L136.124,17 L136.124,7.978 L141.142,7.978 L141.142,9.018 L137.294,9.018 L137.294,11.813 L140.882,11.813 L140.882,12.801 L137.294,12.801 L137.294,15.947 L141.467,15.947 Z M145.575,17.13 C145.297667,17.13 145.0225,17.1191667 144.7495,17.0975 C144.4765,17.0758333 144.220833,17.0476667 143.9825,17.013 C143.744167,16.9783333 143.531833,16.9415 143.3455,16.9025 C143.159167,16.8635 143.009667,16.8223333 142.897,16.779 L142.897,15.7 C143.027,15.752 143.191667,15.8018333 143.391,15.8495 C143.590333,15.8971667 143.807,15.9405 144.041,15.9795 C144.275,16.0185 144.522,16.0488333 144.782,16.0705 C145.042,16.0921667 145.306333,16.103 145.575,16.103 C146.251,16.103 146.762333,15.9903333 147.109,15.765 C147.455667,15.5396667 147.629,15.1453333 147.629,14.582 C147.629,14.3046667 147.600833,14.0728333 147.5445,13.8865 C147.488167,13.7001667 147.382,13.542 147.226,13.412 C147.07,13.282 146.857667,13.1693333 146.589,13.074 C146.320333,12.9786667 145.973667,12.879 145.549,12.775 C145.089667,12.6623333 144.699667,12.5453333 144.379,12.424 C144.058333,12.3026667 143.798333,12.1488333 143.599,11.9625 C143.399667,11.7761667 143.2545,11.5486667 143.1635,11.28 C143.0725,11.0113333 143.027,10.6776667 143.027,10.279 C143.027,9.45566667 143.271833,8.8425 143.7615,8.4395 C144.251167,8.0365 145.007333,7.835 146.03,7.835 C146.246667,7.835 146.4655,7.84366667 146.6865,7.861 C146.9075,7.87833333 147.119833,7.90216667 147.3235,7.9325 C147.527167,7.96283333 147.7135,7.9975 147.8825,8.0365 C148.0515,8.0755 148.188,8.11666667 148.292,8.16 L148.292,9.226 C148.032,9.13066667 147.694,9.04616667 147.278,8.9725 C146.862,8.89883333 146.450333,8.862 146.043,8.862 C145.731,8.862 145.458,8.8815 145.224,8.9205 C144.99,8.9595 144.795,9.031 144.639,9.135 C144.483,9.239 144.368167,9.382 144.2945,9.564 C144.220833,9.746 144.184,9.98433333 144.184,10.279 C144.184,10.487 144.2035,10.6668333 144.2425,10.8185 C144.2815,10.9701667 144.366,11.1023333 144.496,11.215 C144.626,11.3276667 144.812333,11.4295 145.055,11.5205 C145.297667,11.6115 145.622667,11.7046667 146.03,11.8 C146.532667,11.9213333 146.9595,12.0491667 147.3105,12.1835 C147.6615,12.3178333 147.945333,12.489 148.162,12.697 C148.378667,12.905 148.534667,13.1585 148.63,13.4575 C148.725333,13.7565 148.773,14.127 148.773,14.569 C148.773,15.453 148.502167,16.1008333 147.9605,16.5125 C147.418833,16.9241667 146.623667,17.13 145.575,17.13 Z M150.71,7.978 L151.88,7.978 L151.88,17 L150.71,17 L150.71,7.978 Z M158.237,17.13 C157.578333,17.13 156.989,17.065 156.469,16.935 C155.949,16.805 155.507,16.5688333 155.143,16.2265 C154.779,15.8841667 154.4995,15.4118333 154.3045,14.8095 C154.1095,14.2071667 154.012,13.4336667 154.012,12.489 C154.012,11.6223333 154.111667,10.8921667 154.311,10.2985 C154.510333,9.70483333 154.796333,9.226 155.169,8.862 C155.541667,8.498 155.998833,8.238 156.5405,8.082 C157.082167,7.926 157.691,7.848 158.367,7.848 C158.575,7.848 158.7895,7.85666667 159.0105,7.874 C159.2315,7.89133333 159.446,7.91516667 159.654,7.9455 C159.862,7.97583333 160.059167,8.01266667 160.2455,8.056 C160.431833,8.09933333 160.59,8.147 160.72,8.199 L160.72,9.239 C160.416667,9.11766667 160.072167,9.02666667 159.6865,8.966 C159.300833,8.90533333 158.878333,8.875 158.419,8.875 C157.916333,8.875 157.467833,8.927 157.0735,9.031 C156.679167,9.135 156.3455,9.32133333 156.0725,9.59 C155.7995,9.85866667 155.5915,10.227 155.4485,10.695 C155.3055,11.163 155.234,11.761 155.234,12.489 C155.234,13.2603333 155.301167,13.8821667 155.4355,14.3545 C155.569833,14.8268333 155.771333,15.193 156.04,15.453 C156.308667,15.713 156.635833,15.8885 157.0215,15.9795 C157.407167,16.0705 157.855667,16.116 158.367,16.116 C158.575,16.116 158.819833,16.103 159.1015,16.077 C159.383167,16.051 159.628,16.0076667 159.836,15.947 L159.836,13.152 L158.029,13.152 L158.029,12.164 L160.954,12.164 L160.954,16.753 C160.624667,16.857 160.2325,16.9458333 159.7775,17.0195 C159.3225,17.0931667 158.809,17.13 158.237,17.13 Z M163.177,7.978 L165.01,7.978 L169.118,15.466 L169.196,15.466 L169.196,7.978 L170.366,7.978 L170.366,17 L168.819,17 L164.399,9.057 L164.321,9.057 L164.321,17 L163.177,17 L163.177,7.978 Z M178.101,15.947 L178.101,17 L172.758,17 L172.758,7.978 L177.776,7.978 L177.776,9.018 L173.928,9.018 L173.928,11.813 L177.516,11.813 L177.516,12.801 L173.928,12.801 L173.928,15.947 L178.101,15.947 Z M183.327,7.978 L185.927,7.978 C186.516333,7.978 187.006,8.02566667 187.396,8.121 C187.786,8.21633333 188.095833,8.36366667 188.3255,8.563 C188.555167,8.76233333 188.717667,9.0115 188.813,9.3105 C188.908333,9.6095 188.956,9.96266667 188.956,10.37 C188.956,10.838 188.856333,11.2366667 188.657,11.566 C188.457667,11.8953333 188.119667,12.1336667 187.643,12.281 L187.643,12.333 C187.946333,12.3936667 188.202,12.4868333 188.41,12.6125 C188.618,12.7381667 188.784833,12.892 188.9105,13.074 C189.036167,13.256 189.125,13.4596667 189.177,13.685 C189.229,13.9103333 189.255,14.1573333 189.255,14.426 C189.255,14.8333333 189.207333,15.1973333 189.112,15.518 C189.016667,15.8386667 188.852,16.1095 188.618,16.3305 C188.384,16.5515 188.069833,16.7183333 187.6755,16.831 C187.281167,16.9436667 186.785,17 186.187,17 L183.327,17 L183.327,7.978 Z M185.381,11.93 C185.814333,11.93 186.184833,11.9083333 186.4925,11.865 C186.800167,11.8216667 187.0515,11.7436667 187.2465,11.631 C187.4415,11.5183333 187.5845,11.3645 187.6755,11.1695 C187.7665,10.9745 187.812,10.7296667 187.812,10.435 C187.812,10.1056667 187.7665,9.8435 187.6755,9.6485 C187.5845,9.4535 187.4415,9.30616667 187.2465,9.2065 C187.0515,9.10683333 186.800167,9.04183333 186.4925,9.0115 C186.184833,8.98116667 185.814333,8.966 185.381,8.966 L184.497,8.966 L184.497,11.93 L185.381,11.93 Z M185.706,15.999 C186.165333,15.999 186.548833,15.9773333 186.8565,15.934 C187.164167,15.8906667 187.409,15.8105 187.591,15.6935 C187.773,15.5765 187.900833,15.414 187.9745,15.206 C188.048167,14.998 188.085,14.7336667 188.085,14.413 C188.085,14.1356667 188.046,13.8995 187.968,13.7045 C187.89,13.5095 187.76,13.3491667 187.578,13.2235 C187.396,13.0978333 187.153333,13.0046667 186.85,12.944 C186.546667,12.8833333 186.165333,12.853 185.706,12.853 L184.497,12.853 L184.497,15.999 L185.706,15.999 Z M193.454,13.126 L190.269,7.978 L191.621,7.978 L194.052,12.06 L194.13,12.06 L196.548,7.978 L197.835,7.978 L194.624,13.113 L194.624,17 L193.454,17 L193.454,13.126 Z M204.517,13.126 L201.332,7.978 L202.684,7.978 L205.115,12.06 L205.193,12.06 L207.611,7.978 L208.898,7.978 L205.687,13.113 L205.687,17 L204.517,17 L204.517,13.126 Z M213.799,17.13 C213.157667,17.13 212.5965,17.0585 212.1155,16.9155 C211.6345,16.7725 211.229333,16.5255 210.9,16.1745 C210.570667,15.8235 210.323667,15.349 210.159,14.751 C209.994333,14.153 209.912,13.399 209.912,12.489 C209.912,11.579 209.994333,10.8271667 210.159,10.2335 C210.323667,9.63983333 210.570667,9.16533333 210.9,8.81 C211.229333,8.45466667 211.6345,8.2055 212.1155,8.0625 C212.5965,7.9195 213.157667,7.848 213.799,7.848 C214.440333,7.848 215.003667,7.9195 215.489,8.0625 C215.974333,8.2055 216.3795,8.45466667 216.7045,8.81 C217.0295,9.16533333 217.274333,9.63983333 217.439,10.2335 C217.603667,10.8271667 217.686,11.579 217.686,12.489 C217.686,13.399 217.603667,14.153 217.439,14.751 C217.274333,15.349 217.0295,15.8235 216.7045,16.1745 C216.3795,16.5255 215.974333,16.7725 215.489,16.9155 C215.003667,17.0585 214.440333,17.13 213.799,17.13 Z M213.799,16.129 C214.353667,16.129 214.804333,16.0596667 215.151,15.921 C215.497667,15.7823333 215.7685,15.5656667 215.9635,15.271 C216.1585,14.9763333 216.292833,14.5993333 216.3665,14.14 C216.440167,13.6806667 216.477,13.1303333 216.477,12.489 C216.477,11.865 216.440167,11.3233333 216.3665,10.864 C216.292833,10.4046667 216.1585,10.0255 215.9635,9.7265 C215.7685,9.4275 215.497667,9.20433333 215.151,9.057 C214.804333,8.90966667 214.353667,8.836 213.799,8.836 C213.253,8.836 212.806667,8.90966667 212.46,9.057 C212.113333,9.20433333 211.8425,9.4275 211.6475,9.7265 C211.4525,10.0255 211.318167,10.4046667 211.2445,10.864 C211.170833,11.3233333 211.134,11.865 211.134,12.489 C211.134,13.1303333 211.170833,13.6806667 211.2445,14.14 C211.318167,14.5993333 211.4525,14.9763333 211.6475,15.271 C211.8425,15.5656667 212.113333,15.7823333 212.46,15.921 C212.806667,16.0596667 213.253,16.129 213.799,16.129 Z M223.185,17.13 C222.049667,17.13 221.200333,16.8981667 220.637,16.4345 C220.073667,15.9708333 219.792,15.1886667 219.792,14.088 L219.792,7.978 L220.949,7.978 L220.949,13.828 C220.949,14.2613333 220.988,14.6231667 221.066,14.9135 C221.144,15.2038333 221.271833,15.4356667 221.4495,15.609 C221.627167,15.7823333 221.859,15.908 222.145,15.986 C222.431,16.064 222.782,16.103 223.198,16.103 C223.631333,16.103 223.993167,16.064 224.2835,15.986 C224.573833,15.908 224.805667,15.7823333 224.979,15.609 C225.152333,15.4356667 225.273667,15.2038333 225.343,14.9135 C225.412333,14.6231667 225.447,14.2613333 225.447,13.828 L225.447,7.978 L226.604,7.978 L226.604,14.088 C226.604,15.154 226.318,15.9275 225.746,16.4085 C225.174,16.8895 224.320333,17.13 223.185,17.13 Z M228.944,7.978 L230.114,7.978 L230.114,17 L228.944,17 L228.944,7.978 Z M234.729,17.13 C234.451667,17.13 234.1765,17.1191667 233.9035,17.0975 C233.6305,17.0758333 233.374833,17.0476667 233.1365,17.013 C232.898167,16.9783333 232.685833,16.9415 232.4995,16.9025 C232.313167,16.8635 232.163667,16.8223333 232.051,16.779 L232.051,15.7 C232.181,15.752 232.345667,15.8018333 232.545,15.8495 C232.744333,15.8971667 232.961,15.9405 233.195,15.9795 C233.429,16.0185 233.676,16.0488333 233.936,16.0705 C234.196,16.0921667 234.460333,16.103 234.729,16.103 C235.405,16.103 235.916333,15.9903333 236.263,15.765 C236.609667,15.5396667 236.783,15.1453333 236.783,14.582 C236.783,14.3046667 236.754833,14.0728333 236.6985,13.8865 C236.642167,13.7001667 236.536,13.542 236.38,13.412 C236.224,13.282 236.011667,13.1693333 235.743,13.074 C235.474333,12.9786667 235.127667,12.879 234.703,12.775 C234.243667,12.6623333 233.853667,12.5453333 233.533,12.424 C233.212333,12.3026667 232.952333,12.1488333 232.753,11.9625 C232.553667,11.7761667 232.4085,11.5486667 232.3175,11.28 C232.2265,11.0113333 232.181,10.6776667 232.181,10.279 C232.181,9.45566667 232.425833,8.8425 232.9155,8.4395 C233.405167,8.0365 234.161333,7.835 235.184,7.835 C235.400667,7.835 235.6195,7.84366667 235.8405,7.861 C236.0615,7.87833333 236.273833,7.90216667 236.4775,7.9325 C236.681167,7.96283333 236.8675,7.9975 237.0365,8.0365 C237.2055,8.0755 237.342,8.11666667 237.446,8.16 L237.446,9.226 C237.186,9.13066667 236.848,9.04616667 236.432,8.9725 C236.016,8.89883333 235.604333,8.862 235.197,8.862 C234.885,8.862 234.612,8.8815 234.378,8.9205 C234.144,8.9595 233.949,9.031 233.793,9.135 C233.637,9.239 233.522167,9.382 233.4485,9.564 C233.374833,9.746 233.338,9.98433333 233.338,10.279 C233.338,10.487 233.3575,10.6668333 233.3965,10.8185 C233.4355,10.9701667 233.52,11.1023333 233.65,11.215 C233.78,11.3276667 233.966333,11.4295 234.209,11.5205 C234.451667,11.6115 234.776667,11.7046667 235.184,11.8 C235.686667,11.9213333 236.1135,12.0491667 236.4645,12.1835 C236.8155,12.3178333 237.099333,12.489 237.316,12.697 C237.532667,12.905 237.688667,13.1585 237.784,13.4575 C237.879333,13.7565 237.927,14.127 237.927,14.569 C237.927,15.453 237.656167,16.1008333 237.1145,16.5125 C236.572833,16.9241667 235.777667,17.13 234.729,17.13 Z M239.864,7.978 L242.373,7.978 C243.005667,7.978 243.534333,8.03433333 243.959,8.147 C244.383667,8.25966667 244.723833,8.433 244.9795,8.667 C245.235167,8.901 245.415,9.2 245.519,9.564 C245.623,9.928 245.675,10.3613333 245.675,10.864 C245.675,11.3926667 245.612167,11.8433333 245.4865,12.216 C245.360833,12.5886667 245.165833,12.892 244.9015,13.126 C244.637167,13.36 244.294833,13.5311667 243.8745,13.6395 C243.454167,13.7478333 242.953667,13.802 242.373,13.802 L241.034,13.802 L241.034,17 L239.864,17 L239.864,7.978 Z M242.269,12.827 C242.685,12.827 243.036,12.7966667 243.322,12.736 C243.608,12.6753333 243.8355,12.5691667 244.0045,12.4175 C244.1735,12.2658333 244.294833,12.0643333 244.3685,11.813 C244.442167,11.5616667 244.479,11.2453333 244.479,10.864 C244.479,10.5173333 244.442167,10.2248333 244.3685,9.9865 C244.294833,9.74816667 244.1735,9.55533333 244.0045,9.408 C243.8355,9.26066667 243.608,9.1545 243.322,9.0895 C243.036,9.0245 242.685,8.992 242.269,8.992 L241.034,8.992 L241.034,12.827 L242.269,12.827 Z M252.747,14.309 L248.756,14.309 L247.768,17 L246.572,17 L249.991,7.978 L251.551,7.978 L254.957,17 L253.722,17 L252.747,14.309 Z M252.37,13.269 L250.849,9.07 L250.693,9.07 L249.146,13.269 L252.37,13.269 Z M260.144,17.13 C259.52,17.13 258.956667,17.065 258.454,16.935 C257.951333,16.805 257.520167,16.5688333 257.1605,16.2265 C256.800833,15.8841667 256.5235,15.4118333 256.3285,14.8095 C256.1335,14.2071667 256.036,13.4336667 256.036,12.489 C256.036,11.6223333 256.135667,10.8921667 256.335,10.2985 C256.534333,9.70483333 256.816,9.226 257.18,8.862 C257.544,8.498 257.988167,8.238 258.5125,8.082 C259.036833,7.926 259.624,7.848 260.274,7.848 C260.69,7.848 261.051833,7.86966667 261.3595,7.913 C261.667167,7.95633333 261.955333,8.02133333 262.224,8.108 L262.224,9.187 C261.964,9.09166667 261.678,9.01583333 261.366,8.9595 C261.054,8.90316667 260.698667,8.875 260.3,8.875 C259.788667,8.875 259.342333,8.93566667 258.961,9.057 C258.579667,9.17833333 258.263333,9.37983333 258.012,9.6615 C257.760667,9.94316667 257.572167,10.3115 257.4465,10.7665 C257.320833,11.2215 257.258,11.787 257.258,12.463 C257.258,13.1823333 257.3165,13.7738333 257.4335,14.2375 C257.5505,14.7011667 257.728167,15.0695 257.9665,15.3425 C258.204833,15.6155 258.508167,15.8061667 258.8765,15.9145 C259.244833,16.0228333 259.680333,16.077 260.183,16.077 C260.607667,16.077 260.984667,16.0488333 261.314,15.9925 C261.643333,15.9361667 261.981333,15.8473333 262.328,15.726 L262.328,16.74 C262.076667,16.8526667 261.764667,16.9458333 261.392,17.0195 C261.019333,17.0931667 260.603333,17.13 260.144,17.13 Z M269.426,15.947 L269.426,17 L264.083,17 L264.083,7.978 L269.101,7.978 L269.101,9.018 L265.253,9.018 L265.253,11.813 L268.841,11.813 L268.841,12.801 L265.253,12.801 L265.253,15.947 L269.426,15.947 Z" id="形状结合" fill-opacity="0.3" fill="#000000" fill-rule="nonzero"></path>
            </g>
        </g>
    </g>
</svg>