<?xml version="1.0" encoding="UTF-8"?>
<svg width="314px" height="314px" viewBox="0 0 314 314" version="1.1" xmlns="http://www.w3.org/2000/svg" xmlns:xlink="http://www.w3.org/1999/xlink">
    <title>more-style- more-style-4</title>
    <g id="白色版本" stroke="none" stroke-width="1" fill="none" fill-rule="evenodd">
        <g id="Apple-TV备份" transform="translate(-239, -2590)">
            <g id="more-style--more-style-4" transform="translate(240, 2591)">
                <g id="编组-4" stroke="#DDDDDD">
                    <g id="编组-3">
                        <path d="M300,0.5 C303.175637,0.5 306.050637,1.78718134 308.131728,3.86827202 C310.212819,5.94936269 311.5,8.82436269 311.5,12 L311.5,300 C311.5,303.175637 310.212819,306.050637 308.131728,308.131728 C306.050637,310.212819 303.175637,311.5 300,311.5 L12,311.5 C8.82436269,311.5 5.94936269,310.212819 3.86827202,308.131728 C1.78718134,306.050637 0.5,303.175637 0.5,300 L0.5,12 C0.5,8.82436269 1.78718134,5.94936269 3.86827202,3.86827202 C5.94936269,1.78718134 8.82436269,0.5 12,0.5 Z" id="路径" fill-opacity="0" fill="#D8D8D8"></path>
                        <path d="M240.231329,38.5009663 C251.537846,38.5402466 255.717019,39.7761282 259.934794,42.0318186 C264.260254,44.3450999 267.6549,47.7397463 269.968181,52.0652064 C272.26085,56.3521244 273.5,60.5991654 273.5,72.3305076 L273.5,239.669492 C273.5,251.400835 272.26085,255.647876 269.968181,259.934794 C267.6549,264.260254 264.260254,267.6549 259.934794,269.968181 C255.647876,272.26085 251.400835,273.5 239.669492,273.5 L72.3305076,273.5 C60.5991654,273.5 56.3521244,272.26085 52.0652064,269.968181 C47.7397463,267.6549 44.3450999,264.260254 42.0318186,259.934794 C39.7755694,255.715975 38.5396819,251.53566 38.5009412,240.224555 L38.5009663,71.7686715 C38.5402466,60.4621537 39.7761282,56.2829806 42.0318186,52.0652064 C44.3450999,47.7397463 47.7397463,44.3450999 52.0652064,42.0318186 C56.2840255,39.7755694 60.4643404,38.5396819 71.7754447,38.5009412 Z" id="矩形" fill-opacity="0" fill="#D8D8D8"></path>
                        <path d="M253.231329,51.5009663 C264.537846,51.5402466 268.717019,52.7761282 272.934794,55.0318186 C277.260254,57.3450999 280.6549,60.7397463 282.968181,65.0652064 C285.26085,69.3521244 286.5,73.5991654 286.5,85.3305076 L286.5,226.669492 C286.5,238.400835 285.26085,242.647876 282.968181,246.934794 C280.6549,251.260254 277.260254,254.6549 272.934794,256.968181 C268.647876,259.26085 264.400835,260.5 252.669492,260.5 L59.3305076,260.5 C47.5991654,260.5 43.3521244,259.26085 39.0652064,256.968181 C34.7397463,254.6549 31.3450999,251.260254 29.0318186,246.934794 C26.7755694,242.715975 25.5396819,238.53566 25.5009412,227.224556 L25.5009663,84.7686715 C25.5402466,73.4621537 26.7761282,69.2829806 29.0318186,65.0652064 C31.3450999,60.7397463 34.7397463,57.3450999 39.0652064,55.0318186 C43.2840255,52.7755694 47.4643404,51.5396819 58.7754451,51.5009412 Z" id="矩形备份-2" fill-opacity="0" fill="#D8D8D8"></path>
                        <path d="M227.231329,25.5009663 C238.537846,25.5402466 242.717019,26.7761282 246.934794,29.0318186 C251.260254,31.3450999 254.6549,34.7397463 256.968181,39.0652064 C259.26085,43.3521244 260.5,47.5991654 260.5,59.3305076 L260.5,252.669492 C260.5,264.400835 259.26085,268.647876 256.968181,272.934794 C254.6549,277.260254 251.260254,280.6549 246.934794,282.968181 C242.647876,285.26085 238.400835,286.5 226.669492,286.5 L85.3305076,286.5 C73.5991654,286.5 69.3521244,285.26085 65.0652064,282.968181 C60.7397463,280.6549 57.3450999,277.260254 55.0318186,272.934794 C52.7755694,268.715975 51.5396819,264.53566 51.5009412,253.224555 L51.5009663,58.7686715 C51.5402466,47.4621537 52.7761282,43.2829806 55.0318186,39.0652064 C57.3450999,34.7397463 60.7397463,31.3450999 65.0652064,29.0318186 C69.2840255,26.7755694 73.4643404,25.5396819 84.7754442,25.5009412 Z" id="矩形备份" fill-opacity="0" fill="#D8D8D8"></path>
                        <circle id="椭圆形" fill-opacity="0" fill="#D8D8D8" cx="156" cy="156" r="130.5"></circle>
                        <ellipse id="椭圆形备份-2" fill-opacity="0" fill="#D8D8D8" transform="translate(155.649, 155.6726) rotate(-360) translate(-155.649, -155.6726)" cx="155.649002" cy="155.672571" rx="78.1490016" ry="78.1725715"></ellipse>
                        <line x1="2.30926389e-14" y1="156.101562" x2="312" y2="156.101562" id="路径-5"></line>
                        <line x1="0.654825003" y1="155.345111" x2="311.345111" y2="155.345111" id="路径-5备份" transform="translate(156, 155.3451) rotate(90) translate(-156, -155.3451)"></line>
                    </g>
                    <line x1="0" y1="312" x2="312" y2="1.25594043e-14" id="路径-2"></line>
                    <line x1="0" y1="312" x2="312" y2="1.25594043e-14" id="路径-2备份" transform="translate(156, 156) scale(-1, 1) translate(-156, -156)"></line>
                </g>
                <g id="编组-16" transform="translate(26, 26)" fill="#D8D8D8" fill-opacity="0" stroke="#000000" stroke-width="20">
                    <circle id="椭圆形" cx="130" cy="130" r="120"></circle>
                    <circle id="椭圆形" cx="130" cy="91" r="29"></circle>
                    <ellipse id="椭圆形备份" cx="130" cy="175.5" rx="55" ry="22.5"></ellipse>
                </g>
            </g>
        </g>
    </g>
</svg>