<?xml version="1.0" encoding="UTF-8"?>
<svg width="704px" height="352px" viewBox="0 0 704 352" version="1.1" xmlns="http://www.w3.org/2000/svg" xmlns:xlink="http://www.w3.org/1999/xlink">
    <title>yuanhua-02</title>
    <defs>
        <path d="M30.7666224,-1.24300837e-15 L673.233378,1.24300837e-15 C683.931602,-7.22223659e-16 687.811037,1.11390733 691.722148,3.20559245 C695.63326,5.29727756 698.702722,8.36674045 700.794408,12.2778516 C702.886093,16.1889627 704,20.0683975 704,30.7666224 L704,321.233378 C704,331.931602 702.886093,335.811037 700.794408,339.722148 C698.702722,343.63326 695.63326,346.702722 691.722148,348.794408 C687.811037,350.886093 683.931602,352 673.233378,352 L30.7666224,352 C20.0683975,352 16.1889627,350.886093 12.2778516,348.794408 C8.36674045,346.702722 5.29727756,343.63326 3.20559245,339.722148 C1.11390733,335.811037 -5.84127856e-15,331.931602 1.00533374e-14,321.233378 L8.28672246e-16,30.7666224 C-4.81482439e-16,20.0683975 1.11390733,16.1889627 3.20559245,12.2778516 C5.29727756,8.36674045 8.36674045,5.29727756 12.2778516,3.20559245 C16.1889627,1.11390733 20.0683975,7.22223659e-16 30.7666224,-1.24300837e-15 Z" id="path-1"></path>
        <filter x="-0.1%" y="-0.1%" width="100.1%" height="100.3%" filterUnits="objectBoundingBox" id="filter-3">
            <feOffset dx="0" dy="1" in="SourceAlpha" result="shadowOffsetInner1"></feOffset>
            <feComposite in="shadowOffsetInner1" in2="SourceAlpha" operator="arithmetic" k2="-1" k3="1" result="shadowInnerInner1"></feComposite>
            <feColorMatrix values="0 0 0 0 1   0 0 0 0 1   0 0 0 0 1  0 0 0 0.0799999982 0" type="matrix" in="shadowInnerInner1"></feColorMatrix>
        </filter>
        <linearGradient x1="51.50304%" y1="1.41379963e-13%" x2="48.7655052%" y2="100%" id="linearGradient-4">
            <stop stop-color="#00FFF9" stop-opacity="0" offset="0%"></stop>
            <stop stop-color="#00FFFB" offset="52.029611%"></stop>
            <stop stop-color="#00FFF9" stop-opacity="0" offset="100%"></stop>
        </linearGradient>
        <linearGradient x1="51.7779618%" y1="-1.56639843e-13%" x2="48.2220382%" y2="100%" id="linearGradient-5">
            <stop stop-color="#00FFF9" stop-opacity="0" offset="0%"></stop>
            <stop stop-color="#00FFFB" offset="52.029611%"></stop>
            <stop stop-color="#00FFF9" stop-opacity="0" offset="100%"></stop>
        </linearGradient>
        <linearGradient x1="100%" y1="48.2220382%" x2="17.0874474%" y2="48.9106664%" id="linearGradient-6">
            <stop stop-color="#00FFF9" stop-opacity="0" offset="0%"></stop>
            <stop stop-color="#00FFFB" offset="52.029611%"></stop>
            <stop stop-color="#00FFF9" stop-opacity="0" offset="100%"></stop>
        </linearGradient>
    </defs>
    <g id="白色版本" stroke="none" stroke-width="1" fill="none" fill-rule="evenodd">
        <g id="Apple-TV备份" transform="translate(-976, -3511)">
            <g id="编组-54" transform="translate(0, 3151)">
                <g id="yuanhua-02" transform="translate(976, 360)">
                    <mask id="mask-2" fill="white">
                        <use xlink:href="#path-1"></use>
                    </mask>
                    <g id="矩形备份-2" fill-rule="nonzero">
                        <use fill-opacity="0.0199999996" fill="#FFFFFF" xlink:href="#path-1"></use>
                        <use fill="black" fill-opacity="1" filter="url(#filter-3)" xlink:href="#path-1"></use>
                        <path stroke-opacity="0.0399999991" stroke="#FFFFFF" stroke-width="1" d="M673.764395,0.500931575 C683.920015,0.536943236 687.690563,1.61649071 691.486349,3.64649904 C695.309037,5.69089498 698.309105,8.69096294 700.353501,12.513651 C702.418509,16.3748811 703.5,20.2099961 703.5,30.7666224 L703.5,321.233378 C703.5,331.790004 702.418509,335.625119 700.353501,339.486349 C698.309105,343.309037 695.309037,346.309105 691.486349,348.353501 C687.625119,350.418509 683.790004,351.5 673.233378,351.5 L30.7666224,351.5 C20.2099961,351.5 16.3748811,350.418509 12.513651,348.353501 C8.69096294,346.309105 5.69089498,343.309037 3.64649904,339.486349 C1.61707766,335.691661 0.537536376,331.922312 0.500959326,321.77151 L0.500931575,30.2356047 C0.536943236,20.0799847 1.61649071,16.3094366 3.64649904,12.513651 C5.69089498,8.69096294 8.69096294,5.69089498 12.513651,3.64649904 C16.308339,1.61707766 20.0776879,0.537536376 30.2284888,0.500959326 Z" stroke-linejoin="square"></path>
                    </g>
                    <g id="平滑圆角" mask="url(#mask-2)" fill="#FFFFFF" fill-rule="nonzero">
                        <g transform="translate(65.272, 92.128)" id="形状">
                            <path d="M0.96,1.008 L0.96,3.456 L9.36,3.456 L9.36,11.712 L1.42108547e-14,11.712 L1.42108547e-14,14.136 L9.36,14.136 L9.36,22.344 L11.904,22.344 L11.904,14.136 L21.456,14.136 L21.456,11.712 L11.904,11.712 L11.904,3.456 L20.568,3.456 L20.568,1.008 L0.96,1.008 Z M4.488,4.416 L2.16,5.544 C3.024,7.128 3.864,8.928 4.632,10.92 L6.984,9.768 C6.168,7.8 5.352,6.024 4.488,4.416 Z M17.184,4.32 C16.536,6.072 15.672,7.848 14.568,9.624 L16.824,10.776 C17.904,9.048 18.792,7.248 19.464,5.4 L17.184,4.32 Z"></path>
                            <path d="M34.08,6.048 L36.768,6.048 L36.768,7.224 L34.08,7.224 L34.08,6.048 Z M38.832,7.224 L38.832,4.224 L34.08,4.224 L34.08,3.048 L41.304,3.048 L41.304,7.224 L38.832,7.224 Z M43.656,7.224 L43.656,0.888 L31.728,0.888 L31.728,7.224 L29.976,7.224 L29.976,11.592 L32.112,11.592 L32.112,22.344 L34.488,22.344 L34.488,18.6 L40.824,18.6 L40.824,19.56 C40.824,19.968 40.584,20.184 40.104,20.184 L37.992,20.088 L38.568,22.296 L40.824,22.296 C42.384,22.296 43.176,21.552 43.176,20.064 L43.176,11.592 L45.24,11.592 L45.24,7.224 L43.656,7.224 Z M42.864,10.248 L32.352,10.248 L32.352,9.336 L42.864,9.336 L42.864,10.248 Z M34.488,16.656 L34.488,15.456 L40.824,15.456 L40.824,16.656 L34.488,16.656 Z M34.488,13.536 L34.488,12.312 L40.824,12.312 L40.824,13.536 L34.488,13.536 Z M25.992,0.504 L24.288,2.112 C26.16,3.456 27.624,4.68 28.632,5.832 L30.312,4.152 C29.136,2.952 27.696,1.728 25.992,0.504 Z M25.752,6.384 L24.072,7.992 C25.752,9.288 27.048,10.488 27.96,11.592 L29.64,9.888 C28.584,8.736 27.288,7.56 25.752,6.384 Z M27.408,13.296 C26.472,16.032 25.368,18.696 24.096,21.312 L26.328,22.296 C27.528,19.752 28.608,17.04 29.568,14.16 L27.408,13.296 Z"></path>
                            <path d="M64.416,9.552 L53.016,9.552 L53.016,15.504 L55.44,15.504 L55.44,11.448 L61.992,11.448 L61.992,15.432 L64.416,15.432 L64.416,9.552 Z M54.072,4.152 L54.072,8.64 L63.408,8.64 L63.408,4.152 L54.072,4.152 Z M61.08,6.984 L56.4,6.984 L56.4,5.808 L61.08,5.808 L61.08,6.984 Z M60.12,14.88 L58.968,16.608 C60.744,17.232 62.472,18.096 64.152,19.176 L65.496,17.112 C63.864,16.224 62.088,15.48 60.12,14.88 Z M57.744,11.928 C57.552,13.344 57.048,14.448 56.232,15.216 C55.368,15.984 54,16.56 52.128,16.968 L53.04,19.152 C55.44,18.576 57.12,17.76 58.08,16.728 C59.136,15.576 59.76,14.064 60,12.168 L57.744,11.928 Z M68.904,1.008 L48.552,1.008 L48.552,22.392 L51.096,22.392 L51.096,21.528 L66.36,21.528 L66.36,22.392 L68.904,22.392 L68.904,1.008 Z M51.096,19.272 L51.096,3.264 L66.36,3.264 L66.36,19.272 L51.096,19.272 Z"></path>
                            <path d="M77.088,12.672 L81.912,12.672 L81.912,14.808 L76.944,14.808 C77.016,14.16 77.064,13.488 77.088,12.768 L77.088,12.672 Z M76.584,17.016 L81.912,17.016 L81.912,21.936 L84.384,21.936 L84.384,17.016 L89.664,17.016 L89.664,19.008 C89.664,19.704 89.328,20.064 88.656,20.064 C87.768,20.064 86.808,20.016 85.776,19.944 L86.376,22.248 L89.376,22.248 C91.2,22.248 92.136,21.456 92.136,19.872 L92.136,5.88 L86.592,5.88 C87.432,5.256 88.272,4.512 89.112,3.696 L89.112,1.872 L80.568,1.872 C80.856,1.44 81.168,1.008 81.456,0.576 L78.936,0 C76.896,2.928 74.496,5.208 71.712,6.792 L73.32,8.736 C73.752,8.448 74.208,8.16 74.64,7.848 L74.64,12.96 C74.592,16.128 73.704,18.72 71.976,20.736 L73.896,22.488 C75.168,20.952 76.056,19.128 76.584,17.016 Z M89.664,14.808 L84.384,14.808 L84.384,12.672 L89.664,12.672 L89.664,14.808 Z M89.664,10.464 L84.384,10.464 L84.384,8.136 L89.664,8.136 L89.664,10.464 Z M77.064,5.88 C77.688,5.304 78.288,4.68 78.864,4.032 L85.632,4.032 C84.768,4.704 83.928,5.328 83.088,5.88 L77.064,5.88 Z M81.912,8.136 L81.912,10.464 L77.088,10.464 L77.088,8.136 L81.912,8.136 Z"></path>
                        </g>
                    </g>
                    <g id="就如刚才所说，采用Apple设计规则，比" mask="url(#mask-2)" fill="#FFFFFF" fill-opacity="0.4" fill-rule="nonzero">
                        <g transform="translate(64.576, 155.976)">
                            <path d="M7.824,3.008 L0.576,3.008 L0.576,1.936 L3.728,1.936 C3.64266667,1.63733333 3.54666667,1.328 3.44,1.008 C3.33333333,0.688 3.23733333,0.426666667 3.152,0.224 L4.256,0 C4.29866667,0.106666667 4.34933333,0.24 4.408,0.4 C4.46666667,0.56 4.52533333,0.728 4.584,0.904 C4.64266667,1.08 4.70133333,1.25866667 4.76,1.44 C4.81866667,1.62133333 4.87466667,1.78666667 4.928,1.936 L7.824,1.936 L7.824,3.008 Z M9.984,5.008 C9.96266667,6.17066667 9.89333333,7.18666667 9.776,8.056 C9.65866667,8.92533333 9.47733333,9.72 9.232,10.44 C8.98666667,11.16 8.672,11.8453333 8.288,12.496 C7.904,13.1466667 7.43466667,13.8293333 6.88,14.544 L5.888,13.84 C6.44266667,13.1573333 6.904,12.5173333 7.272,11.92 C7.64,11.3226667 7.936,10.6933333 8.16,10.032 C8.384,9.37066667 8.552,8.64 8.664,7.84 C8.776,7.04 8.85866667,6.096 8.912,5.008 L7.376,5.008 L7.376,3.904 L8.96,3.904 L8.96,3.776 C8.97066667,3.54133333 8.976,3.21866667 8.976,2.808 C8.976,2.39733333 8.98133333,1.98933333 8.992,1.584 C8.992,1.11466667 8.99733333,0.624 9.008,0.112 L10.064,0.16 L10,3.776 L10,3.904 L14.208,3.904 L14.208,5.008 L9.984,5.008 Z M12.944,3.504 C12.8373333,3.32266667 12.6986667,3.12266667 12.528,2.904 C12.3573333,2.68533333 12.176,2.46666667 11.984,2.248 C11.792,2.02933333 11.6053333,1.824 11.424,1.632 C11.2426667,1.44 11.0826667,1.28533333 10.944,1.168 L11.664,0.48 C11.8026667,0.597333333 11.968,0.746666667 12.16,0.928 C12.352,1.10933333 12.544,1.304 12.736,1.512 C12.928,1.72 13.1093333,1.928 13.28,2.136 C13.4506667,2.344 13.5893333,2.52266667 13.696,2.672 L12.944,3.504 Z M4.832,8.448 L4.832,12.496 C4.832,12.8373333 4.80533333,13.1173333 4.752,13.336 C4.69866667,13.5546667 4.60266667,13.7306667 4.464,13.864 C4.32533333,13.9973333 4.144,14.096 3.92,14.16 C3.696,14.224 3.41333333,14.2666667 3.072,14.288 L2.384,14.352 L2.016,13.216 L2.8,13.152 C3.19466667,13.1306667 3.45066667,13.0533333 3.568,12.92 C3.68533333,12.7866667 3.744,12.5333333 3.744,12.16 L3.744,8.448 L1.408,8.448 L1.408,4.48 L6.864,4.48 L6.864,8.448 L4.832,8.448 Z M14.352,11.28 C14.3306667,11.5573333 14.3093333,11.832 14.288,12.104 C14.2666667,12.376 14.224,12.688 14.16,13.04 C14.096,13.392 13.9573333,13.6666667 13.744,13.864 C13.5306667,14.0613333 13.1893333,14.16 12.72,14.16 L12.048,14.16 C11.6,14.16 11.2666667,14.0346667 11.048,13.784 C10.8293333,13.5333333 10.72,13.12 10.72,12.544 L10.72,5.264 L11.792,5.328 L11.792,12.336 C11.792,12.6453333 11.8426667,12.848 11.944,12.944 C12.0453333,13.04 12.2026667,13.088 12.416,13.088 L12.608,13.088 C12.8426667,13.088 13.008,13.04 13.104,12.944 C13.2,12.848 13.2746667,12.656 13.328,12.368 C13.3706667,12.112 13.4,11.8666667 13.416,11.632 C13.432,11.3973333 13.4453333,11.1573333 13.456,10.912 L14.352,11.28 Z M2.432,7.488 L5.808,7.488 L5.808,5.44 L2.432,5.44 L2.432,7.488 Z M6.72,12.048 C6.656,11.8666667 6.57066667,11.6666667 6.464,11.448 C6.35733333,11.2293333 6.24,11.0106667 6.112,10.792 C5.984,10.5733333 5.85866667,10.3653333 5.736,10.168 C5.61333333,9.97066667 5.504,9.808 5.408,9.68 L6.208,9.152 C6.304,9.28 6.416,9.43733333 6.544,9.624 C6.672,9.81066667 6.79733333,10.008 6.92,10.216 C7.04266667,10.424 7.16,10.6266667 7.272,10.824 C7.384,11.0213333 7.472,11.1893333 7.536,11.328 L6.72,12.048 Z M2.832,9.456 C2.576,10.224 2.272,10.9626667 1.92,11.672 C1.568,12.3813333 1.23733333,13.008 0.928,13.552 L-1.42108547e-14,13.04 C0.149333333,12.7733333 0.312,12.48 0.488,12.16 C0.664,11.84 0.834666667,11.5066667 1,11.16 C1.16533333,10.8133333 1.32,10.472 1.464,10.136 C1.608,9.8 1.728,9.48266667 1.824,9.184 L2.832,9.456 Z" id="形状"></path>
                            <path d="M22.7795,4.24 C22.7048333,4.99733333 22.6168333,5.69066667 22.5155,6.32 C22.4141667,6.94933333 22.2968333,7.528 22.1635,8.056 C22.0301667,8.584 21.8701667,9.072 21.6835,9.52 C21.4968333,9.968 21.2808333,10.3893333 21.0355,10.784 C21.4941667,11.1573333 21.9341667,11.528 22.3555,11.896 C22.7768333,12.264 23.1261667,12.5866667 23.4035,12.864 L22.6675,13.952 C22.3688333,13.6213333 22.0168333,13.264 21.6115,12.88 C21.2061667,12.496 20.7795,12.112 20.3315,11.728 C19.9261667,12.2186667 19.4488333,12.704 18.8995,13.184 C18.3501667,13.664 17.7075,14.1813333 16.9715,14.736 L16.1555,13.792 C16.8915,13.28 17.5288333,12.8 18.0675,12.352 C18.6061667,11.904 19.0675,11.456 19.4515,11.008 C19.0035,10.6453333 18.5768333,10.3173333 18.1715,10.024 C17.7661667,9.73066667 17.4088333,9.49333333 17.0995,9.312 C17.3235,8.49066667 17.5261667,7.664 17.7075,6.832 C17.8888333,6 18.0541667,5.13066667 18.2035,4.224 L16.4115,4.224 L16.4115,3.088 L18.3635,3.088 C18.4275,2.608 18.4835,2.12266667 18.5315,1.632 C18.5795,1.14133333 18.6248333,0.629333333 18.6675,0.096 L19.8835,0.24 C19.8408333,0.741333333 19.7928333,1.22933333 19.7395,1.704 C19.6861667,2.17866667 19.6275,2.64 19.5635,3.088 L22.7795,3.088 L22.7795,4.24 Z M29.4035,2.08 L29.4035,14.224 L28.2515,14.224 L28.2515,12.912 L25.1475,12.912 L25.1475,14.304 L23.9955,14.304 L23.9955,2.08 L29.4035,2.08 Z M28.2515,11.792 L28.2515,3.2 L25.1475,3.2 L25.1475,11.792 L28.2515,11.792 Z M18.4115,8.88 C18.6461667,9.01866667 18.9101667,9.18933333 19.2035,9.392 C19.4968333,9.59466667 19.8035,9.81866667 20.1235,10.064 C20.3475,9.712 20.5368333,9.336 20.6915,8.936 C20.8461667,8.536 20.9821667,8.09866667 21.0995,7.624 C21.2168333,7.14933333 21.3155,6.632 21.3955,6.072 C21.4755,5.512 21.5475,4.896 21.6115,4.224 L19.4035,4.224 C19.2541667,5.16266667 19.0968333,6.024 18.9315,6.808 C18.7661667,7.592 18.5928333,8.28266667 18.4115,8.88 Z" id="形状"></path>
                            <path d="M45.479,0.528 L45.479,12.624 C45.479,12.9546667 45.4496667,13.2293333 45.391,13.448 C45.3323333,13.6666667 45.2283333,13.8453333 45.079,13.984 C44.9296667,14.1226667 44.719,14.232 44.447,14.312 C44.175,14.392 43.8256667,14.4533333 43.399,14.496 L42.679,14.576 L42.279,13.424 L43.175,13.36 C43.431,13.3386667 43.639,13.3093333 43.799,13.272 C43.959,13.2346667 44.079,13.1786667 44.159,13.104 C44.239,13.0293333 44.2923333,12.928 44.319,12.8 C44.3456667,12.672 44.359,12.5013333 44.359,12.288 L44.359,0.48 L45.479,0.528 Z M32.919,1.104 L40.407,1.104 L40.407,12.624 C40.407,12.9653333 40.375,13.2453333 40.311,13.464 C40.247,13.6826667 40.135,13.8586667 39.975,13.992 C39.815,14.1253333 39.6016667,14.2293333 39.335,14.304 C39.0683333,14.3786667 38.7376667,14.432 38.343,14.464 L37.655,14.528 L37.255,13.424 L38.135,13.344 C38.3803333,13.3226667 38.5803333,13.2933333 38.735,13.256 C38.8896667,13.2186667 39.0123333,13.16 39.103,13.08 C39.1936667,13 39.2576667,12.8933333 39.295,12.76 C39.3323333,12.6266667 39.351,12.4533333 39.351,12.24 L39.351,2.192 L33.975,2.192 L33.975,11.328 C34.359,10.7733333 34.743,10.1706667 35.127,9.52 C35.511,8.86933333 35.879,8.192 36.231,7.488 C35.8683333,6.76266667 35.5083333,6.08 35.151,5.44 C34.7936667,4.8 34.4763333,4.256 34.199,3.808 L35.063,3.312 C35.3083333,3.68533333 35.5776667,4.13333333 35.871,4.656 C36.1643333,5.17866667 36.4656667,5.73333333 36.775,6.32 C37.2656667,5.264 37.6763333,4.23466667 38.007,3.232 L39.015,3.504 C38.791,4.18666667 38.543,4.864 38.271,5.536 C37.999,6.208 37.7083333,6.87466667 37.399,7.536 C37.7403333,8.24 38.0603333,8.92533333 38.359,9.592 C38.6576667,10.2586667 38.8976667,10.8426667 39.079,11.344 L38.199,12.048 C38.0496667,11.5893333 37.8523333,11.072 37.607,10.496 C37.3616667,9.92 37.095,9.328 36.807,8.72 C36.4976667,9.328 36.1776667,9.912 35.847,10.472 C35.5163333,11.032 35.1803333,11.568 34.839,12.08 L33.975,11.488 L33.975,14.512 L32.919,14.512 L32.919,1.104 Z M42.855,11.136 L41.799,11.136 L41.799,1.92 L42.855,1.968 L42.855,11.136 Z" id="形状"></path>
                            <path d="M61.9385,4.384 L58.0345,4.384 L58.0345,12.048 C58.0345,12.496 57.9971667,12.8613333 57.9225,13.144 C57.8478333,13.4266667 57.7065,13.656 57.4985,13.832 C57.2905,14.008 56.9998333,14.136 56.6265,14.216 C56.2531667,14.296 55.7678333,14.3573333 55.1705,14.4 L54.0025,14.48 L53.5225,13.152 L54.9785,13.056 C55.3731667,13.0346667 55.6851667,13.0053333 55.9145,12.968 C56.1438333,12.9306667 56.3171667,12.864 56.4345,12.768 C56.5518333,12.672 56.6291667,12.5386667 56.6665,12.368 C56.7038333,12.1973333 56.7225,11.968 56.7225,11.68 L56.7225,5.216 C56.2531667,5.97333333 55.7545,6.69333333 55.2265,7.376 C54.6985,8.05866667 54.1171667,8.70933333 53.4825,9.328 C52.8478333,9.94666667 52.1411667,10.544 51.3625,11.12 C50.5838333,11.696 49.7145,12.2613333 48.7545,12.816 L47.9065,11.68 C49.8478333,10.6133333 51.4611667,9.47733333 52.7465,8.272 C54.0318333,7.06666667 55.0905,5.77066667 55.9225,4.384 L48.7545,4.384 L48.7545,3.232 L56.7225,3.232 L56.7225,0.208 L58.0345,0.272 L58.0345,3.232 L61.9385,3.232 L61.9385,4.384 Z" id="路径"></path>
                            <path d="M78.254,6.656 L76.014,6.656 L76.014,14.512 L74.83,14.512 L74.83,6.656 L72.446,6.656 C72.4353333,7.62666667 72.39,8.472 72.31,9.192 C72.23,9.912 72.0913333,10.576 71.894,11.184 C71.6966667,11.792 71.43,12.3786667 71.094,12.944 C70.758,13.5093333 70.3286667,14.112 69.806,14.752 L68.846,13.904 C69.358,13.328 69.7766667,12.792 70.102,12.296 C70.4273333,11.8 70.6806667,11.272 70.862,10.712 C71.0433333,10.152 71.1686667,9.52266667 71.238,8.824 C71.3073333,8.12533333 71.342,7.28 71.342,6.288 L71.342,1.792 C71.8646667,1.74933333 72.3873333,1.688 72.91,1.608 C73.4326667,1.528 73.942,1.43733333 74.438,1.336 C74.934,1.23466667 75.4113333,1.12266667 75.87,1 C76.3286667,0.877333333 76.75,0.752 77.134,0.624 L77.47,1.76 C76.7766667,1.99466667 75.9846667,2.21066667 75.094,2.408 C74.2033333,2.60533333 73.3206667,2.752 72.446,2.848 L72.446,5.536 L78.254,5.536 L78.254,6.656 Z M66.366,9.696 C66.3233333,10.2613333 66.2646667,10.76 66.19,11.192 C66.1153333,11.624 66.0193333,12.032 65.902,12.416 C65.7846667,12.8 65.6433333,13.176 65.478,13.544 C65.3126667,13.912 65.118,14.3093333 64.894,14.736 L63.79,14.128 C64.0993333,13.5626667 64.3526667,13.0453333 64.55,12.576 C64.7473333,12.1066667 64.9046667,11.6 65.022,11.056 C65.1393333,10.512 65.222,9.88533333 65.27,9.176 C65.318,8.46666667 65.342,7.584 65.342,6.528 L65.342,1.6 C66.3126667,1.504 67.214,1.38133333 68.046,1.232 C68.878,1.08266667 69.662,0.896 70.398,0.672 L70.686,1.808 C70.0566667,2 69.3873333,2.16533333 68.678,2.304 C67.9686667,2.44266667 67.23,2.56 66.462,2.656 L66.462,4.544 L69.838,4.544 L69.838,9.696 L66.366,9.696 Z M66.462,5.648 L66.462,6.56 C66.462,6.93333333 66.4593333,7.28533333 66.454,7.616 C66.4486667,7.94666667 66.4406667,8.26133333 66.43,8.56 L68.686,8.56 L68.686,5.648 L66.462,5.648 Z" id="形状"></path>
                            <path d="M94.3295,11.312 C94.3081667,11.6746667 94.2788333,12.008 94.2415,12.312 C94.2041667,12.616 94.1481667,12.9386667 94.0735,13.28 C93.9988333,13.6213333 93.8308333,13.864 93.5695,14.008 C93.3081667,14.152 92.9215,14.24 92.4095,14.272 C91.9188333,14.304 91.4335,14.304 90.9535,14.272 C90.4308333,14.24 90.0521667,14.1226667 89.8175,13.92 C89.5828333,13.7173333 89.4655,13.328 89.4655,12.752 L89.4655,8.752 L87.7375,8.752 C87.7055,9.552 87.6201667,10.248 87.4815,10.84 C87.3428333,11.432 87.1401667,11.9573333 86.8735,12.416 C86.6068333,12.8746667 86.2708333,13.2906667 85.8655,13.664 C85.4601667,14.0373333 84.9801667,14.4106667 84.4255,14.784 L83.6255,13.824 C84.1481667,13.4933333 84.5961667,13.176 84.9695,12.872 C85.3428333,12.568 85.6468333,12.2293333 85.8815,11.856 C86.1161667,11.4826667 86.2895,11.048 86.4015,10.552 C86.5135,10.056 86.5801667,9.456 86.6015,8.752 L84.8895,8.752 L84.8895,3.44 L87.0015,3.44 C86.9055,3.23733333 86.7908333,3.01866667 86.6575,2.784 C86.5241667,2.54933333 86.3828333,2.31733333 86.2335,2.088 C86.0841667,1.85866667 85.9348333,1.64266667 85.7855,1.44 C85.6361667,1.23733333 85.5028333,1.06133333 85.3855,0.912 L86.3135,0.304 C86.4201667,0.453333333 86.5508333,0.626666667 86.7055,0.824 C86.8601667,1.02133333 87.0175,1.232 87.1775,1.456 C87.3375,1.68 87.4895,1.90133333 87.6335,2.12 C87.7775,2.33866667 87.8975,2.53866667 87.9935,2.72 L87.0815,3.44 L89.2415,3.44 C89.4015,3.216 89.5748333,2.96266667 89.7615,2.68 C89.9481667,2.39733333 90.1295,2.10666667 90.3055,1.808 C90.4815,1.50933333 90.6441667,1.22133333 90.7935,0.944 C90.9428333,0.666666667 91.0655,0.421333333 91.1615,0.208 L92.1855,0.768 C92.1001667,0.938666667 91.9988333,1.13333333 91.8815,1.352 C91.7641667,1.57066667 91.6388333,1.8 91.5055,2.04 C91.3721667,2.28 91.2281667,2.52 91.0735,2.76 C90.9188333,3 90.7721667,3.22666667 90.6335,3.44 L92.7455,3.44 L92.7455,8.752 L90.6175,8.752 L90.6175,12.336 C90.6175,12.656 90.6708333,12.8586667 90.7775,12.944 C90.8841667,13.0293333 91.0868333,13.088 91.3855,13.12 C91.6628333,13.152 91.9401667,13.152 92.2175,13.12 C92.5055,13.088 92.7081667,13.0373333 92.8255,12.968 C92.9428333,12.8986667 93.0281667,12.736 93.0815,12.48 C93.1348333,12.2133333 93.1721667,11.952 93.1935,11.696 C93.2148333,11.44 93.2308333,11.1893333 93.2415,10.944 L94.3295,11.312 Z M82.7615,4.08 C82.6548333,3.86666667 82.5135,3.624 82.3375,3.352 C82.1615,3.08 81.9775,2.808 81.7855,2.536 C81.5935,2.264 81.3988333,2.008 81.2015,1.768 C81.0041667,1.528 80.8361667,1.328 80.6975,1.168 L81.6255,0.512 C81.7641667,0.661333333 81.9321667,0.853333333 82.1295,1.088 C82.3268333,1.32266667 82.5241667,1.568 82.7215,1.824 C82.9188333,2.08 83.1028333,2.33333333 83.2735,2.584 C83.4441667,2.83466667 83.5828333,3.05066667 83.6895,3.232 L82.7615,4.08 Z M86.0255,7.648 L91.6095,7.648 L91.6095,4.56 L86.0255,4.56 L86.0255,7.648 Z M84.9055,11.472 L82.7775,13.232 C82.6495,13.3386667 82.5401667,13.4373333 82.4495,13.528 C82.3588333,13.6186667 82.2388333,13.744 82.0895,13.904 L81.2735,13.024 C81.4548333,12.8213333 81.5801667,12.6533333 81.6495,12.52 C81.7188333,12.3866667 81.7535,12.2186667 81.7535,12.016 L81.7535,6.544 L79.8335,6.544 L79.8335,5.376 L82.8895,5.376 L82.8895,11.664 C82.9961667,11.5786667 83.1375,11.456 83.3135,11.296 C83.4895,11.136 83.6655,10.9733333 83.8415,10.808 C84.0175,10.6426667 84.1775,10.496 84.3215,10.368 C84.4655,10.24 84.5535,10.16 84.5855,10.128 L84.9055,11.472 Z" id="形状"></path>
                            <path d="M97.285,15.2 C97.4983333,14.8693333 97.6983333,14.52 97.885,14.152 C98.0716667,13.784 98.2316667,13.416 98.365,13.048 C98.4983333,12.68 98.6023333,12.32 98.677,11.968 C98.7516667,11.616 98.789,11.2906667 98.789,10.992 L100.117,10.992 C100.117,11.3333333 100.063667,11.6986667 99.957,12.088 C99.8503333,12.4773333 99.717,12.8586667 99.557,13.232 C99.397,13.6053333 99.2156667,13.9626667 99.013,14.304 C98.8103333,14.6453333 98.613,14.944 98.421,15.2 L97.285,15.2 Z" id="路径"></path>
                            <path d="M124.8485,1.76 C124.059167,1.87733333 123.149833,1.98666667 122.1205,2.088 C121.091167,2.18933333 120.035167,2.28 118.9525,2.36 C117.869833,2.44 116.8085,2.504 115.7685,2.552 C114.7285,2.6 113.803167,2.62933333 112.9925,2.64 L112.8325,1.504 C113.6645,1.49333333 114.6005,1.46133333 115.6405,1.408 C116.6805,1.35466667 117.739167,1.29066667 118.8165,1.216 C119.893833,1.14133333 120.939167,1.056 121.9525,0.96 C122.965833,0.864 123.867167,0.762666667 124.6565,0.656 L124.8485,1.76 Z M121.0885,5.904 C121.2805,5.68 121.477833,5.41333333 121.6805,5.104 C121.883167,4.79466667 122.083167,4.47466667 122.2805,4.144 C122.477833,3.81333333 122.659167,3.49066667 122.8245,3.176 C122.989833,2.86133333 123.125833,2.58666667 123.2325,2.352 L124.3205,2.832 C124.203167,3.088 124.0645,3.37066667 123.9045,3.68 C123.7445,3.98933333 123.5685,4.30933333 123.3765,4.64 C123.1845,4.97066667 122.987167,5.296 122.7845,5.616 C122.581833,5.936 122.379167,6.23466667 122.1765,6.512 L121.0885,5.904 Z M119.1845,5.856 C119.099167,5.62133333 118.995167,5.376 118.8725,5.12 C118.749833,4.864 118.619167,4.61066667 118.4805,4.36 C118.341833,4.10933333 118.203167,3.86666667 118.0645,3.632 C117.925833,3.39733333 117.7925,3.18933333 117.6645,3.008 L118.7045,2.464 C118.821833,2.624 118.9525,2.81866667 119.0965,3.048 C119.2405,3.27733333 119.3845,3.51466667 119.5285,3.76 C119.6725,4.00533333 119.8085,4.248 119.9365,4.488 C120.0645,4.728 120.171167,4.93866667 120.2565,5.12 L119.1845,5.856 Z M115.3605,6.528 C115.275167,6.304 115.157833,6.04533333 115.0085,5.752 C114.859167,5.45866667 114.699167,5.16266667 114.5285,4.864 C114.357833,4.56533333 114.187167,4.28533333 114.0165,4.024 C113.845833,3.76266667 113.6965,3.54133333 113.5685,3.36 L114.6085,2.768 C114.7365,2.93866667 114.8885,3.15466667 115.0645,3.416 C115.2405,3.67733333 115.413833,3.952 115.5845,4.24 C115.755167,4.528 115.915167,4.808 116.0645,5.08 C116.213833,5.352 116.3365,5.58933333 116.4325,5.792 L115.3605,6.528 Z M120.0485,8.64 C120.773833,9.44 121.661833,10.1973333 122.7125,10.912 C123.763167,11.6266667 124.9285,12.224 126.2085,12.704 L125.5205,13.744 C124.101833,13.072 122.9125,12.3866667 121.9525,11.688 C120.9925,10.9893333 120.1765,10.272 119.5045,9.536 L119.5045,14.656 L118.3205,14.656 L118.3205,9.536 C117.6165,10.3146667 116.749833,11.0693333 115.7205,11.8 C114.691167,12.5306667 113.541833,13.1786667 112.2725,13.744 L111.6325,12.656 C112.987167,12.1226667 114.173833,11.512 115.1925,10.824 C116.211167,10.136 117.061833,9.408 117.7445,8.64 L112.3845,8.64 L112.3845,7.504 L118.3205,7.504 L118.3205,5.936 L119.5045,5.984 L119.5045,7.504 L125.4245,7.504 L125.4245,8.64 L120.0485,8.64 Z" id="形状"></path>
                            <path d="M140.7,1.072 L140.7,12.592 C140.7,12.9333333 140.665333,13.216 140.596,13.44 C140.526667,13.664 140.414667,13.84 140.26,13.968 C140.105333,14.096 139.902667,14.192 139.652,14.256 C139.401333,14.32 139.1,14.3626667 138.748,14.384 L137.772,14.448 L137.372,13.248 L138.348,13.184 C138.593333,13.1733333 138.790667,13.152 138.94,13.12 C139.089333,13.088 139.204,13.0373333 139.284,12.968 C139.364,12.8986667 139.414667,12.8026667 139.436,12.68 C139.457333,12.5573333 139.468,12.3946667 139.468,12.192 L139.468,9.968 L135.596,9.968 L135.596,14.336 L134.38,14.336 L134.38,9.968 L130.572,9.968 C130.518667,10.4373333 130.446667,10.872 130.356,11.272 C130.265333,11.672 130.148,12.0586667 130.004,12.432 C129.86,12.8053333 129.689333,13.1813333 129.492,13.56 C129.294667,13.9386667 129.062667,14.336 128.796,14.752 L127.66,14.224 C128.012,13.68 128.302667,13.1946667 128.532,12.768 C128.761333,12.3413333 128.942667,11.8906667 129.076,11.416 C129.209333,10.9413333 129.302667,10.4026667 129.356,9.8 C129.409333,9.19733333 129.436,8.45333333 129.436,7.568 L129.436,1.072 L140.7,1.072 Z M130.652,2.224 L130.652,5.008 L134.38,5.008 L134.38,2.224 L130.652,2.224 Z M139.468,2.224 L135.596,2.224 L135.596,5.008 L139.468,5.008 L139.468,2.224 Z M134.38,8.784 L134.38,6.192 L130.652,6.192 L130.652,8 C130.652,8.13866667 130.652,8.272 130.652,8.4 C130.652,8.528 130.646667,8.656 130.636,8.784 L134.38,8.784 Z M139.468,8.784 L139.468,6.192 L135.596,6.192 L135.596,8.784 L139.468,8.784 Z" id="形状"></path>
                            <path d="M150.7275,9.712 L145.8155,9.712 L144.5995,13.024 L143.1275,13.024 L147.3355,1.92 L149.2555,1.92 L153.4475,13.024 L151.9275,13.024 L150.7275,9.712 Z M150.2635,8.432 L148.3915,3.264 L148.1995,3.264 L146.2955,8.432 L150.2635,8.432 Z" id="形状"></path>
                            <path d="M159.459,4.224 C160.184333,4.224 160.779,4.33333333 161.243,4.552 C161.707,4.77066667 162.069667,5.07733333 162.331,5.472 C162.592333,5.86666667 162.773667,6.33866667 162.875,6.888 C162.976333,7.43733333 163.027,8.04266667 163.027,8.704 C163.027,9.30133333 162.976333,9.86933333 162.875,10.408 C162.773667,10.9466667 162.592333,11.4213333 162.331,11.832 C162.069667,12.2426667 161.707,12.5706667 161.243,12.816 C160.779,13.0613333 160.184333,13.184 159.459,13.184 C158.616333,13.184 157.984333,13.0346667 157.563,12.736 C157.141667,12.4373333 156.840333,12.032 156.659,11.52 L156.659,16.224 L155.283,16.224 L155.283,4.384 L156.659,4.384 L156.659,5.936 C156.840333,5.424 157.144333,5.01066667 157.571,4.696 C157.997667,4.38133333 158.627,4.224 159.459,4.224 Z M159.283,12.016 C159.795,12.016 160.203,11.9226667 160.507,11.736 C160.811,11.5493333 161.043,11.3013333 161.203,10.992 C161.363,10.6826667 161.467,10.328 161.515,9.928 C161.563,9.528 161.587,9.12 161.587,8.704 C161.587,8.24533333 161.560333,7.816 161.507,7.416 C161.453667,7.016 161.347,6.664 161.187,6.36 C161.027,6.056 160.795,5.816 160.491,5.64 C160.187,5.464 159.784333,5.376 159.283,5.376 C158.760333,5.376 158.328333,5.45333333 157.987,5.608 C157.645667,5.76266667 157.371,5.984 157.163,6.272 C156.955,6.56 156.808333,6.90933333 156.723,7.32 C156.637667,7.73066667 156.595,8.192 156.595,8.704 C156.595,9.20533333 156.637667,9.65866667 156.723,10.064 C156.808333,10.4693333 156.955,10.816 157.163,11.104 C157.371,11.392 157.645667,11.616 157.987,11.776 C158.328333,11.936 158.760333,12.016 159.283,12.016 Z" id="形状"></path>
                            <path d="M169.8225,4.224 C170.547833,4.224 171.1425,4.33333333 171.6065,4.552 C172.0705,4.77066667 172.433167,5.07733333 172.6945,5.472 C172.955833,5.86666667 173.137167,6.33866667 173.2385,6.888 C173.339833,7.43733333 173.3905,8.04266667 173.3905,8.704 C173.3905,9.30133333 173.339833,9.86933333 173.2385,10.408 C173.137167,10.9466667 172.955833,11.4213333 172.6945,11.832 C172.433167,12.2426667 172.0705,12.5706667 171.6065,12.816 C171.1425,13.0613333 170.547833,13.184 169.8225,13.184 C168.979833,13.184 168.347833,13.0346667 167.9265,12.736 C167.505167,12.4373333 167.203833,12.032 167.0225,11.52 L167.0225,16.224 L165.6465,16.224 L165.6465,4.384 L167.0225,4.384 L167.0225,5.936 C167.203833,5.424 167.507833,5.01066667 167.9345,4.696 C168.361167,4.38133333 168.9905,4.224 169.8225,4.224 Z M169.6465,12.016 C170.1585,12.016 170.5665,11.9226667 170.8705,11.736 C171.1745,11.5493333 171.4065,11.3013333 171.5665,10.992 C171.7265,10.6826667 171.8305,10.328 171.8785,9.928 C171.9265,9.528 171.9505,9.12 171.9505,8.704 C171.9505,8.24533333 171.923833,7.816 171.8705,7.416 C171.817167,7.016 171.7105,6.664 171.5505,6.36 C171.3905,6.056 171.1585,5.816 170.8545,5.64 C170.5505,5.464 170.147833,5.376 169.6465,5.376 C169.123833,5.376 168.691833,5.45333333 168.3505,5.608 C168.009167,5.76266667 167.7345,5.984 167.5265,6.272 C167.3185,6.56 167.171833,6.90933333 167.0865,7.32 C167.001167,7.73066667 166.9585,8.192 166.9585,8.704 C166.9585,9.20533333 167.001167,9.65866667 167.0865,10.064 C167.171833,10.4693333 167.3185,10.816 167.5265,11.104 C167.7345,11.392 168.009167,11.616 168.3505,11.776 C168.691833,11.936 169.123833,12.016 169.6465,12.016 Z" id="形状"></path>
                            <path d="M177.93,13.12 C177.29,13.12 176.81,12.976 176.49,12.688 C176.17,12.4 176.01,11.9306667 176.01,11.28 L176.01,0.864 L177.386,0.864 L177.386,10.928 C177.386,11.3653333 177.45,11.648 177.578,11.776 C177.706,11.904 177.908667,11.968 178.186,11.968 C178.282,11.968 178.386,11.9626667 178.498,11.952 C178.61,11.9413333 178.724667,11.92 178.842,11.888 L178.842,13.024 C178.714,13.056 178.578,13.08 178.434,13.096 C178.29,13.112 178.122,13.12 177.93,13.12 Z" id="路径"></path>
                            <path d="M187.6535,7.84 C187.6535,7.95733333 187.6455,8.104 187.6295,8.28 C187.6135,8.456 187.594833,8.64533333 187.5735,8.848 L181.7175,9.216 C181.7175,9.68533333 181.7655,10.0933333 181.8615,10.44 C181.9575,10.7866667 182.112167,11.072 182.3255,11.296 C182.538833,11.52 182.8215,11.688 183.1735,11.8 C183.5255,11.912 183.962833,11.968 184.4855,11.968 C184.9655,11.968 185.4535,11.9146667 185.9495,11.808 C186.4455,11.7013333 186.858833,11.568 187.1895,11.408 L187.1895,12.672 C187.0615,12.736 186.896167,12.8 186.6935,12.864 C186.490833,12.928 186.2615,12.984 186.0055,13.032 C185.7495,13.08 185.474833,13.1173333 185.1815,13.144 C184.888167,13.1706667 184.586833,13.184 184.2775,13.184 C183.6375,13.184 183.0695,13.112 182.5735,12.968 C182.0775,12.824 181.658833,12.5786667 181.3175,12.232 C180.976167,11.8853333 180.7175,11.4266667 180.5415,10.856 C180.3655,10.2853333 180.2775,9.568 180.2775,8.704 C180.2775,7.84 180.3655,7.12266667 180.5415,6.552 C180.7175,5.98133333 180.9735,5.52266667 181.3095,5.176 C181.6455,4.82933333 182.056167,4.584 182.5415,4.44 C183.026833,4.296 183.578833,4.224 184.1975,4.224 C184.9335,4.224 185.528167,4.33333333 185.9815,4.552 C186.434833,4.77066667 186.784167,5.05333333 187.0295,5.4 C187.274833,5.74666667 187.440167,6.136 187.5255,6.568 C187.610833,7 187.6535,7.424 187.6535,7.84 Z M186.2935,7.856 C186.2935,7.52533333 186.272167,7.208 186.2295,6.904 C186.186833,6.6 186.0935,6.33333333 185.9495,6.104 C185.8055,5.87466667 185.594833,5.69333333 185.3175,5.56 C185.040167,5.42666667 184.666833,5.36 184.1975,5.36 C183.696167,5.36 183.288167,5.424 182.9735,5.552 C182.658833,5.68 182.410833,5.86666667 182.2295,6.112 C182.048167,6.35733333 181.920167,6.656 181.8455,7.008 C181.770833,7.36 181.728167,7.75466667 181.7175,8.192 L186.2935,7.856 Z" id="形状"></path>
                            <path d="M193.073,4.176 C192.934333,3.952 192.774333,3.70666667 192.593,3.44 C192.411667,3.17333333 192.219667,2.904 192.017,2.632 C191.814333,2.36 191.606333,2.09333333 191.393,1.832 C191.179667,1.57066667 190.971667,1.33866667 190.769,1.136 L191.649,0.416 C191.841,0.597333333 192.046333,0.808 192.265,1.048 C192.483667,1.288 192.702333,1.536 192.921,1.792 C193.139667,2.048 193.345,2.304 193.537,2.56 C193.729,2.816 193.889,3.04 194.017,3.232 L193.073,4.176 Z M197.217,3.024 C197.217,3.26933333 197.187667,3.53066667 197.129,3.808 C197.070333,4.08533333 196.963667,4.368 196.809,4.656 C196.654333,4.944 196.443667,5.232 196.177,5.52 C195.910333,5.808 195.574333,6.08 195.169,6.336 L194.273,5.44 C194.635667,5.20533333 194.929,4.98133333 195.153,4.768 C195.377,4.55466667 195.550333,4.336 195.673,4.112 C195.795667,3.888 195.875667,3.648 195.913,3.392 C195.950333,3.136 195.969,2.848 195.969,2.528 L195.969,0.976 L201.409,0.976 L201.409,3.616 C201.409,3.92533333 201.459667,4.13333333 201.561,4.24 C201.662333,4.34666667 201.883667,4.40533333 202.225,4.416 L203.681,4.416 L203.537,5.536 L201.825,5.536 C201.217,5.536 200.785,5.42933333 200.529,5.216 C200.273,5.00266667 200.145,4.65066667 200.145,4.16 L200.145,2.048 L197.217,2.048 L197.217,3.024 Z M195.441,11.472 L192.785,13.536 C192.678333,13.6213333 192.563667,13.7146667 192.441,13.816 C192.318333,13.9173333 192.166333,14.048 191.985,14.208 L191.201,13.296 C191.425,13.072 191.566333,12.904 191.625,12.792 C191.683667,12.68 191.713,12.528 191.713,12.336 L191.713,6.432 L189.537,6.432 L189.537,5.312 L192.929,5.312 L192.929,11.968 C192.939667,11.9573333 193.038333,11.88 193.225,11.736 C193.411667,11.592 193.622333,11.4266667 193.857,11.24 C194.091667,11.0533333 194.310333,10.88 194.513,10.72 C194.715667,10.56 194.843667,10.4586667 194.897,10.416 L195.441,11.472 Z M203.297,14.688 C202.326333,14.3253333 201.467667,13.9386667 200.721,13.528 C199.974333,13.1173333 199.313,12.6773333 198.737,12.208 C198.139667,12.6773333 197.465,13.12 196.713,13.536 C195.961,13.952 195.099667,14.3306667 194.129,14.672 L193.489,13.584 C194.406333,13.296 195.222333,12.976 195.937,12.624 C196.651667,12.272 197.297,11.888 197.873,11.472 C197.329,10.9493333 196.859667,10.4106667 196.465,9.856 C196.070333,9.30133333 195.707667,8.73066667 195.377,8.144 L196.305,7.632 L194.881,7.632 L194.881,6.512 L202.305,6.512 L202.289,7.632 C202.022333,8.26133333 201.678333,8.896 201.257,9.536 C200.835667,10.176 200.299667,10.8053333 199.649,11.424 C200.193,11.8186667 200.811667,12.1893333 201.505,12.536 C202.198333,12.8826667 203.014333,13.216 203.953,13.536 L203.297,14.688 Z M196.417,7.632 C196.747667,8.21866667 197.097,8.76533333 197.465,9.272 C197.833,9.77866667 198.273,10.2613333 198.785,10.72 C199.265,10.272 199.689,9.792 200.057,9.28 C200.425,8.768 200.758333,8.21866667 201.057,7.632 L196.417,7.632 Z" id="形状"></path>
                            <path d="M209.2125,3.936 C209.073833,3.70133333 208.911167,3.45333333 208.7245,3.192 C208.537833,2.93066667 208.3405,2.66666667 208.1325,2.4 C207.9245,2.13333333 207.713833,1.87466667 207.5005,1.624 C207.287167,1.37333333 207.0845,1.14133333 206.8925,0.928 L207.7405,0.208 C207.9325,0.389333333 208.1405,0.605333333 208.3645,0.856 C208.5885,1.10666667 208.809833,1.36533333 209.0285,1.632 C209.247167,1.89866667 209.4525,2.16 209.6445,2.416 C209.8365,2.672 209.9965,2.90133333 210.1245,3.104 L209.2125,3.936 Z M219.7725,6.752 L215.5485,6.752 L215.5485,14.544 L214.3005,14.544 L214.3005,6.752 L210.3645,6.752 L210.3645,5.536 L214.3005,5.536 L214.3005,0.304 L215.5485,0.352 L215.5485,5.536 L219.7725,5.536 L219.7725,6.752 Z M209.0365,11.872 C209.111167,11.8186667 209.223167,11.7386667 209.3725,11.632 C209.521833,11.5253333 209.689833,11.4026667 209.8765,11.264 C210.063167,11.1253333 210.257833,10.9813333 210.4605,10.832 C210.663167,10.6826667 210.855167,10.5413333 211.0365,10.408 C211.217833,10.2746667 211.3805,10.152 211.5245,10.04 C211.6685,9.928 211.777833,9.84533333 211.8525,9.792 L212.2845,10.976 C212.1565,11.072 211.9325,11.232 211.6125,11.456 C211.2925,11.68 210.9565,11.9173333 210.6045,12.168 C210.2525,12.4186667 209.921833,12.656 209.6125,12.88 C209.303167,13.104 209.089833,13.2586667 208.9725,13.344 C208.823167,13.4506667 208.663167,13.576 208.4925,13.72 C208.321833,13.864 208.1725,14.0053333 208.0445,14.144 L207.2765,13.248 C207.489833,13.0666667 207.6285,12.912 207.6925,12.784 C207.7565,12.656 207.7885,12.4906667 207.7885,12.288 L207.7885,6.352 L205.5485,6.352 L205.5485,5.152 L209.0365,5.152 L209.0365,11.872 Z" id="形状"></path>
                            <path d="M226.296,12.656 C226.104,12.2826667 225.853333,11.8426667 225.544,11.336 C225.234667,10.8293333 224.925333,10.352 224.616,9.904 C224.52,10.352 224.397333,10.7706667 224.248,11.16 C224.098667,11.5493333 223.925333,11.928 223.728,12.296 C223.530667,12.664 223.306667,13.032 223.056,13.4 C222.805333,13.768 222.525333,14.1546667 222.216,14.56 L221.24,13.808 C221.666667,13.296 222.029333,12.816 222.328,12.368 C222.626667,11.92 222.877333,11.4586667 223.08,10.984 C223.282667,10.5093333 223.442667,10.0053333 223.56,9.472 C223.677333,8.93866667 223.762667,8.33066667 223.816,7.648 L221.624,7.648 L221.624,6.48 L223.864,6.48 C223.874667,6.29866667 223.88,6.112 223.88,5.92 C223.88,5.728 223.88,5.53066667 223.88,5.328 L223.88,3.984 L221.896,3.984 L221.896,2.816 L223.88,2.816 L223.88,0.272 L225,0.32 L225,2.816 L226.952,2.816 L226.952,3.984 L225,3.984 L225,5.328 C225,5.53066667 225,5.728 225,5.92 C225,6.112 224.994667,6.29866667 224.984,6.48 L227.16,6.48 L227.16,7.648 L224.936,7.648 C224.914667,7.79733333 224.901333,7.94133333 224.896,8.08 C224.890667,8.21866667 224.877333,8.35733333 224.856,8.496 C225.026667,8.70933333 225.224,8.96 225.448,9.248 C225.672,9.536 225.890667,9.832 226.104,10.136 C226.317333,10.44 226.522667,10.7386667 226.72,11.032 C226.917333,11.3253333 227.08,11.5786667 227.208,11.792 L226.296,12.656 Z M228.76,9.92 L227.624,9.92 L227.624,0.992 L234.376,0.992 L234.376,9.904 L233.224,9.904 L233.224,2.128 L228.76,2.128 L228.76,9.92 Z M235.656,11.024 C235.634667,11.3973333 235.608,11.7653333 235.576,12.128 C235.544,12.4906667 235.490667,12.848 235.416,13.2 C235.341333,13.5626667 235.186667,13.8266667 234.952,13.992 C234.717333,14.1573333 234.306667,14.2506667 233.72,14.272 C233.282667,14.2933333 232.845333,14.2933333 232.408,14.272 C231.896,14.2613333 231.517333,14.136 231.272,13.896 C231.026667,13.656 230.904,13.216 230.904,12.576 L230.904,9.84 C230.562667,10.832 230.050667,11.72 229.368,12.504 C228.685333,13.288 227.805333,14.0533333 226.728,14.8 L225.928,13.84 C226.76,13.2853333 227.453333,12.7493333 228.008,12.232 C228.562667,11.7146667 229.008,11.1626667 229.344,10.576 C229.68,9.98933333 229.922667,9.344 230.072,8.64 C230.221333,7.936 230.306667,7.11466667 230.328,6.176 C230.338667,6.048 230.346667,5.84 230.352,5.552 C230.357333,5.264 230.362667,4.96 230.368,4.64 C230.373333,4.32 230.376,4.01333333 230.376,3.72 C230.376,3.42666667 230.376,3.216 230.376,3.088 L231.528,3.12 C231.528,3.248 231.525333,3.46133333 231.52,3.76 C231.514667,4.05866667 231.509333,4.376 231.504,4.712 C231.498667,5.048 231.493333,5.368 231.488,5.672 C231.482667,5.976 231.48,6.192 231.48,6.32 C231.469333,6.75733333 231.442667,7.17333333 231.4,7.568 C231.357333,7.96266667 231.298667,8.34133333 231.224,8.704 L232.008,8.768 L232.008,12.144 C232.008,12.5173333 232.072,12.768 232.2,12.896 C232.328,13.024 232.562667,13.0986667 232.904,13.12 C233.096,13.1413333 233.288,13.1413333 233.48,13.12 C233.810667,13.0986667 234.045333,13.04 234.184,12.944 C234.322667,12.848 234.418667,12.6613333 234.472,12.384 C234.525333,12.1066667 234.562667,11.8133333 234.584,11.504 C234.605333,11.1946667 234.616,10.9013333 234.616,10.624 L235.656,11.024 Z" id="形状"></path>
                            <path d="M11.072,35.088 C11.3386667,35.0666667 11.5466667,35.0346667 11.696,34.992 C11.8453333,34.9493333 11.96,34.8826667 12.04,34.792 C12.12,34.7013333 12.1706667,34.5866667 12.192,34.448 C12.2133333,34.3093333 12.224,34.1386667 12.224,33.936 L12.224,22.336 L13.344,22.368 L13.344,34.176 C13.344,34.5173333 13.3226667,34.808 13.28,35.048 C13.2373333,35.288 13.144,35.488 13,35.648 C12.856,35.808 12.6533333,35.9306667 12.392,36.016 C12.1306667,36.1013333 11.776,36.16 11.328,36.192 L10.336,36.272 L9.936,35.152 L11.072,35.088 Z M2.352,24.16 L2.352,32.432 L1.248,32.432 L1.248,22.976 L7.456,22.976 L7.456,32.4 L6.368,32.4 L6.368,24.16 L2.352,24.16 Z M10.448,23.68 L10.448,33.04 L9.376,33.04 L9.376,23.648 L10.448,23.68 Z M0.016,35.616 C0.773333333,35.1466667 1.39733333,34.696 1.888,34.264 C2.37866667,33.832 2.76533333,33.3706667 3.048,32.88 C3.33066667,32.3893333 3.52533333,31.8426667 3.632,31.24 C3.73866667,30.6373333 3.792,29.9306667 3.792,29.12 L3.792,25.168 L4.912,25.216 L4.912,29.392 C4.912,30.2666667 4.84533333,31.0373333 4.712,31.704 C4.57866667,32.3706667 4.352,32.9786667 4.032,33.528 C3.712,34.0773333 3.29066667,34.5893333 2.768,35.064 C2.24533333,35.5386667 1.59466667,36.0213333 0.816,36.512 L0.016,35.616 Z M5.008,32.192 C5.24266667,32.3626667 5.512,32.5733333 5.816,32.824 C6.12,33.0746667 6.41866667,33.3306667 6.712,33.592 C7.00533333,33.8533333 7.28,34.1013333 7.536,34.336 C7.792,34.5706667 7.98933333,34.7626667 8.128,34.912 L7.424,35.888 C7.25333333,35.6746667 7.03733333,35.432 6.776,35.16 C6.51466667,34.888 6.24266667,34.6213333 5.96,34.36 C5.67733333,34.0986667 5.4,33.8533333 5.128,33.624 C4.856,33.3946667 4.624,33.216 4.432,33.088 L5.008,32.192 Z" id="形状"></path>
                            <path d="M17.344,37.2 C17.5573333,36.8693333 17.7573333,36.52 17.944,36.152 C18.1306667,35.784 18.2906667,35.416 18.424,35.048 C18.5573333,34.68 18.6613333,34.32 18.736,33.968 C18.8106667,33.616 18.848,33.2906667 18.848,32.992 L20.176,32.992 C20.176,33.3333333 20.1226667,33.6986667 20.016,34.088 C19.9093333,34.4773333 19.776,34.8586667 19.616,35.232 C19.456,35.6053333 19.2746667,35.9626667 19.072,36.304 C18.8693333,36.6453333 18.672,36.944 18.48,37.2 L17.344,37.2 Z" id="路径"></path>
                            <path d="M45.536,32.304 C45.5146667,32.7093333 45.4853333,33.1146667 45.448,33.52 C45.4106667,33.9253333 45.3546667,34.3253333 45.28,34.72 C45.2053333,35.104 45.0053333,35.408 44.68,35.632 C44.3546667,35.856 43.8026667,35.9893333 43.024,36.032 C42.3626667,36.064 41.7066667,36.064 41.056,36.032 C40.7146667,36.0213333 40.4213333,35.9786667 40.176,35.904 C39.9306667,35.8293333 39.7306667,35.7146667 39.576,35.56 C39.4213333,35.4053333 39.3066667,35.1973333 39.232,34.936 C39.1573333,34.6746667 39.12,34.3466667 39.12,33.952 L39.12,22.352 L40.368,22.432 L40.368,28.288 C40.72,28.0533333 41.0826667,27.7946667 41.456,27.512 C41.8293333,27.2293333 42.2,26.9306667 42.568,26.616 C42.936,26.3013333 43.2933333,25.9813333 43.64,25.656 C43.9866667,25.3306667 44.304,25.0026667 44.592,24.672 L45.424,25.632 C45.072,26.016 44.6853333,26.4 44.264,26.784 C43.8426667,27.168 43.408,27.5413333 42.96,27.904 C42.512,28.2666667 42.064,28.608 41.616,28.928 C41.168,29.248 40.752,29.536 40.368,29.792 L40.368,33.536 C40.368,33.7813333 40.384,33.9813333 40.416,34.136 C40.448,34.2906667 40.5066667,34.4133333 40.592,34.504 C40.6773333,34.5946667 40.7946667,34.6613333 40.944,34.704 C41.0933333,34.7466667 41.2906667,34.7733333 41.536,34.784 C41.9626667,34.816 42.3893333,34.816 42.816,34.784 C43.2746667,34.752 43.6,34.6826667 43.792,34.576 C43.984,34.4693333 44.112,34.2506667 44.176,33.92 C44.304,33.248 44.368,32.56 44.368,31.856 L45.536,32.304 Z M34.56,34.384 C34.72,34.32 34.976,34.2106667 35.328,34.056 C35.68,33.9013333 36.0533333,33.7386667 36.448,33.568 C36.8426667,33.3973333 37.2106667,33.24 37.552,33.096 C37.8933333,32.952 38.128,32.8533333 38.256,32.8 L38.368,34.112 C38.176,34.1866667 37.8986667,34.3013333 37.536,34.456 C37.1733333,34.6106667 36.7973333,34.7733333 36.408,34.944 C36.0186667,35.1146667 35.648,35.272 35.296,35.416 C34.944,35.56 34.688,35.664 34.528,35.728 C34.368,35.8026667 34.1706667,35.8986667 33.936,36.016 C33.7013333,36.1333333 33.4986667,36.24 33.328,36.336 L32.8,35.088 C33.0133333,34.9493333 33.1546667,34.8293333 33.224,34.728 C33.2933333,34.6266667 33.328,34.4853333 33.328,34.304 L33.328,22.512 L34.56,22.56 L34.56,26.896 L38.272,26.896 L38.272,28.096 L34.56,28.096 L34.56,34.384 Z" id="形状"></path>
                            <path d="M60.672,22.816 L60.672,36.608 L59.52,36.608 L59.52,35.792 L49.52,35.792 L49.52,36.608 L48.368,36.608 L48.368,22.816 L60.672,22.816 Z M59.52,34.784 L59.52,23.84 L49.52,23.84 L49.52,34.784 L59.52,34.784 Z M57.664,27.584 L51.344,27.584 L51.344,24.928 L57.664,24.928 L57.664,27.584 Z M56.56,25.728 L52.416,25.728 L52.416,26.8 L56.56,26.8 L56.56,25.728 Z M52.112,31.936 L51.008,31.936 L51.008,28.416 L58,28.416 L58,31.936 L56.912,31.936 L56.912,29.296 L52.112,29.296 L52.112,31.936 Z M55.072,29.856 C55.0613333,30.1013333 55.0426667,30.3866667 55.016,30.712 C54.9893333,31.0373333 54.9493333,31.2906667 54.896,31.472 C54.832,31.7813333 54.6986667,32.0773333 54.496,32.36 C54.2933333,32.6426667 54.0133333,32.9066667 53.656,33.152 C53.2986667,33.3973333 52.8533333,33.624 52.32,33.832 C51.7866667,34.04 51.1573333,34.224 50.432,34.384 L50.08,33.408 C50.816,33.2373333 51.424,33.0613333 51.904,32.88 C52.384,32.6986667 52.7653333,32.512 53.048,32.32 C53.3306667,32.128 53.536,31.9226667 53.664,31.704 C53.792,31.4853333 53.8773333,31.2533333 53.92,31.008 C53.9413333,30.8906667 53.9626667,30.7146667 53.984,30.48 C54.0053333,30.2453333 54.016,30.0213333 54.016,29.808 L55.072,29.856 Z M55.216,31.632 C55.856,31.8986667 56.4933333,32.1813333 57.128,32.48 C57.7626667,32.7786667 58.3946667,33.0986667 59.024,33.44 L58.608,34.464 C57.904,34.0586667 57.2533333,33.6933333 56.656,33.368 C56.0586667,33.0426667 55.44,32.7573333 54.8,32.512 L55.216,31.632 Z" id="形状"></path>
                            <path d="M75.92,26.256 L75.92,34.576 C75.92,34.896 75.8986667,35.1626667 75.856,35.376 C75.8133333,35.5893333 75.728,35.7626667 75.6,35.896 C75.472,36.0293333 75.2826667,36.1333333 75.032,36.208 C74.7813333,36.2826667 74.448,36.3413333 74.032,36.384 L73.232,36.48 L72.816,35.312 L73.68,35.248 C73.9253333,35.2266667 74.12,35.1973333 74.264,35.16 C74.408,35.1226667 74.5173333,35.0693333 74.592,35 C74.6666667,34.9306667 74.7146667,34.8373333 74.736,34.72 C74.7573333,34.6026667 74.768,34.448 74.768,34.256 L74.768,33.152 L71.04,33.152 L71.04,36.272 L69.872,36.272 L69.872,33.152 L65.952,33.152 C65.8773333,33.4826667 65.7866667,33.7973333 65.68,34.096 C65.5733333,34.3946667 65.4426667,34.688 65.288,34.976 C65.1333333,35.264 64.96,35.5573333 64.768,35.856 C64.576,36.1546667 64.3573333,36.464 64.112,36.784 L63.072,36.112 C63.456,35.6426667 63.7706667,35.2106667 64.016,34.816 C64.2613333,34.4213333 64.4586667,34.0133333 64.608,33.592 C64.7573333,33.1706667 64.8613333,32.7093333 64.92,32.208 C64.9786667,31.7066667 65.008,31.12 65.008,30.448 L65.008,26.928 C64.8373333,27.0773333 64.6666667,27.2186667 64.496,27.352 C64.3253333,27.4853333 64.1493333,27.6266667 63.968,27.776 L63.248,26.848 C64.1226667,26.1546667 64.9706667,25.3893333 65.792,24.552 C66.6133333,23.7146667 67.2853333,22.8373333 67.808,21.92 L68.944,22.4 C68.848,22.5813333 68.744,22.76 68.632,22.936 C68.52,23.112 68.4053333,23.2853333 68.288,23.456 L74.064,23.456 L74.064,24.416 C73.8293333,24.736 73.5893333,25.0506667 73.344,25.36 C73.0986667,25.6693333 72.8426667,25.968 72.576,26.256 L75.92,26.256 Z M67.456,24.528 C67.2,24.8373333 66.9306667,25.1333333 66.648,25.416 C66.3653333,25.6986667 66.0746667,25.9786667 65.776,26.256 L71.008,26.256 C71.2746667,25.9893333 71.528,25.712 71.768,25.424 C72.008,25.136 72.2453333,24.8373333 72.48,24.528 L67.456,24.528 Z M69.872,27.376 L66.16,27.376 L66.16,29.136 L69.872,29.136 L69.872,27.376 Z M74.768,27.376 L71.04,27.376 L71.04,29.136 L74.768,29.136 L74.768,27.376 Z M69.872,32.048 L69.872,30.272 L66.16,30.272 L66.16,30.768 C66.16,31.2373333 66.144,31.664 66.112,32.048 L69.872,32.048 Z M74.768,32.048 L74.768,30.272 L71.04,30.272 L71.04,32.048 L74.768,32.048 Z" id="形状"></path>
                            <path d="M92.896,36.256 C91.9146667,36.1813333 91.0293333,36.0986667 90.24,36.008 C89.4506667,35.9173333 88.736,35.8106667 88.096,35.688 C87.456,35.5653333 86.88,35.424 86.368,35.264 C85.856,35.104 85.376,34.9173333 84.928,34.704 C84.3626667,35.1413333 83.6346667,35.5226667 82.744,35.848 C81.8533333,36.1733333 80.7413333,36.4906667 79.408,36.8 L78.928,35.728 C80.112,35.4506667 81.096,35.184 81.88,34.928 C82.664,34.672 83.312,34.384 83.824,34.064 C83.408,33.7866667 83.0026667,33.4746667 82.608,33.128 C82.2133333,32.7813333 81.792,32.384 81.344,31.936 L81.984,31.36 L80.752,31.36 L80.752,25.456 L85.504,25.456 L85.504,24.032 L79.568,24.032 L79.568,22.96 L92.608,22.96 L92.608,24.032 L86.72,24.032 L86.72,25.456 L91.424,25.456 L91.424,31.36 L86.656,31.36 C86.6026667,31.872 86.504,32.3333333 86.36,32.744 C86.216,33.1546667 86.016,33.5306667 85.76,33.872 C86.1866667,34.0533333 86.6506667,34.2106667 87.152,34.344 C87.6533333,34.4773333 88.2053333,34.592 88.808,34.688 C89.4106667,34.784 90.072,34.8613333 90.792,34.92 C91.512,34.9786667 92.3093333,35.0186667 93.184,35.04 L92.896,36.256 Z M81.936,26.432 L81.936,27.872 L85.504,27.872 L85.504,26.432 L81.936,26.432 Z M86.72,26.432 L86.72,27.872 L90.256,27.872 L90.256,26.432 L86.72,26.432 Z M81.936,30.336 L85.504,30.336 L85.504,30.048 L85.504,28.848 L81.936,28.848 L81.936,30.336 Z M90.256,30.336 L90.256,28.848 L86.72,28.848 L86.72,30.08 L86.72,30.336 L90.256,30.336 Z M82.256,31.36 C82.64,31.7653333 83.0266667,32.1306667 83.416,32.456 C83.8053333,32.7813333 84.224,33.072 84.672,33.328 C84.8853333,33.0613333 85.0533333,32.768 85.176,32.448 C85.2986667,32.128 85.3866667,31.7653333 85.44,31.36 L82.256,31.36 Z" id="形状"></path>
                            <path d="M108.784,31.456 L102.384,31.456 L102.384,36.624 L101.136,36.624 L101.136,31.456 L94.72,31.456 L94.72,30.256 L101.136,30.256 L101.136,24.208 L95.696,24.208 L95.696,23.024 L107.824,23.024 L107.824,24.208 L102.384,24.208 L102.384,30.256 L108.784,30.256 L108.784,31.456 Z M97.216,25.104 C97.3866667,25.328 97.5866667,25.6 97.816,25.92 C98.0453333,26.24 98.28,26.5786667 98.52,26.936 C98.76,27.2933333 98.9893333,27.6453333 99.208,27.992 C99.4266667,28.3386667 99.616,28.6453333 99.776,28.912 L98.752,29.536 C98.6026667,29.2586667 98.4213333,28.9413333 98.208,28.584 C97.9946667,28.2266667 97.7706667,27.872 97.536,27.52 C97.3013333,27.168 97.072,26.8346667 96.848,26.52 C96.624,26.2053333 96.4266667,25.9413333 96.256,25.728 L97.216,25.104 Z M103.632,28.928 C103.834667,28.7253333 104.061333,28.4613333 104.312,28.136 C104.562667,27.8106667 104.805333,27.4666667 105.04,27.104 C105.274667,26.7413333 105.490667,26.3813333 105.688,26.024 C105.885333,25.6666667 106.042667,25.36 106.16,25.104 L107.168,25.712 C107.04,25.9466667 106.872,26.2373333 106.664,26.584 C106.456,26.9306667 106.232,27.288 105.992,27.656 C105.752,28.024 105.512,28.3786667 105.272,28.72 C105.032,29.0613333 104.816,29.344 104.624,29.568 L103.632,28.928 Z" id="形状"></path>
                            <path d="M111.568,22.672 C111.749333,22.7893333 111.965333,22.9386667 112.216,23.12 C112.466667,23.3013333 112.72,23.496 112.976,23.704 C113.232,23.912 113.477333,24.1173333 113.712,24.32 C113.946667,24.5226667 114.144,24.704 114.304,24.864 L113.632,25.968 C113.482667,25.776 113.290667,25.568 113.056,25.344 C112.821333,25.12 112.576,24.8986667 112.32,24.68 C112.064,24.4613333 111.808,24.256 111.552,24.064 C111.296,23.872 111.077333,23.712 110.896,23.584 L111.568,22.672 Z M124.256,27.2 L124.256,30.128 L123.12,30.128 L123.12,28.144 L115.104,28.144 L115.104,30.128 L113.984,30.128 L113.984,27.2 L115.28,27.2 L115.28,22.864 L122.8,22.864 L122.8,27.2 L124.256,27.2 Z M116.464,23.872 L116.464,25.008 L119.888,25.008 L119.888,27.2 L121.616,27.2 L121.616,23.872 L116.464,23.872 Z M116.464,27.2 L118.864,27.2 L118.864,25.936 L116.464,25.936 L116.464,27.2 Z M110.8,26.224 C110.992,26.3306667 111.216,26.4746667 111.472,26.656 C111.728,26.8373333 111.986667,27.0293333 112.248,27.232 C112.509333,27.4346667 112.76,27.64 113,27.848 C113.24,28.056 113.44,28.24 113.6,28.4 L112.944,29.52 C112.794667,29.328 112.6,29.1173333 112.36,28.888 C112.12,28.6586667 111.869333,28.4346667 111.608,28.216 C111.346667,27.9973333 111.090667,27.7946667 110.84,27.608 C110.589333,27.4213333 110.368,27.2693333 110.176,27.152 L110.8,26.224 Z M115.472,29.232 L122.736,29.232 L122.736,34.736 C122.736,35.056 122.714667,35.3173333 122.672,35.52 C122.629333,35.7226667 122.541333,35.8853333 122.408,36.008 C122.274667,36.1306667 122.088,36.224 121.848,36.288 C121.608,36.352 121.296,36.4 120.912,36.432 L120.128,36.496 L119.76,35.44 L120.672,35.36 C120.874667,35.3493333 121.037333,35.328 121.16,35.296 C121.282667,35.264 121.376,35.2186667 121.44,35.16 C121.504,35.1013333 121.546667,35.0186667 121.568,34.912 C121.589333,34.8053333 121.6,34.6613333 121.6,34.48 L121.6,34.032 L116.608,34.032 L116.608,36.432 L115.472,36.432 L115.472,29.232 Z M116.608,30.208 L116.608,31.232 L121.6,31.232 L121.6,30.208 L116.608,30.208 Z M113.008,30.64 L113.44,30.752 C113.386667,31.1253333 113.304,31.5626667 113.192,32.064 C113.08,32.5653333 112.957333,33.08 112.824,33.608 C112.690667,34.136 112.546667,34.6453333 112.392,35.136 C112.237333,35.6266667 112.096,36.0373333 111.968,36.368 L110.816,36.048 C110.944,35.728 111.085333,35.3253333 111.24,34.84 C111.394667,34.3546667 111.541333,33.848 111.68,33.32 C111.818667,32.792 111.946667,32.2773333 112.064,31.776 C112.181333,31.2746667 112.266667,30.8426667 112.32,30.48 L113.008,30.64 Z M121.6,33.12 L121.6,32.128 L116.608,32.128 L116.608,33.12 L121.6,33.12 Z" id="形状"></path>
                            <path d="M129.424,36.8 C129.136,36.8 128.864,36.7573333 128.608,36.672 C128.352,36.5866667 128.125333,36.4613333 127.928,36.296 C127.730667,36.1306667 127.576,35.9226667 127.464,35.672 C127.352,35.4213333 127.296,35.1253333 127.296,34.784 C127.296,34.4533333 127.352,34.16 127.464,33.904 C127.576,33.648 127.730667,33.4373333 127.928,33.272 C128.125333,33.1066667 128.352,32.9813333 128.608,32.896 C128.864,32.8106667 129.136,32.768 129.424,32.768 C129.712,32.768 129.984,32.8106667 130.24,32.896 C130.496,32.9813333 130.722667,33.1066667 130.92,33.272 C131.117333,33.4373333 131.272,33.648 131.384,33.904 C131.496,34.16 131.552,34.4533333 131.552,34.784 C131.552,35.1253333 131.493333,35.4213333 131.376,35.672 C131.258667,35.9226667 131.104,36.1306667 130.912,36.296 C130.72,36.4613333 130.496,36.5866667 130.24,36.672 C129.984,36.7573333 129.712,36.8 129.424,36.8 Z M129.424,35.952 C129.765333,35.952 130.050667,35.8533333 130.28,35.656 C130.509333,35.4586667 130.624,35.168 130.624,34.784 C130.624,34.4 130.509333,34.1093333 130.28,33.912 C130.050667,33.7146667 129.765333,33.616 129.424,33.616 C129.082667,33.616 128.797333,33.7146667 128.568,33.912 C128.338667,34.1093333 128.224,34.4 128.224,34.784 C128.224,35.168 128.338667,35.4586667 128.568,35.656 C128.797333,35.8533333 129.082667,35.952 129.424,35.952 Z" id="形状"></path>
                        </g>
                    </g>
                    <g id="编组-19" mask="url(#mask-2)" fill-rule="nonzero">
                        <g transform="translate(380, 28)">
                            <path d="M324,0 L324,64 L269.110816,64 C197.789317,64 171.926418,71.4260489 145.852344,85.3706163 C119.77827,99.3151837 99.3151837,119.77827 85.3706163,145.852344 L84.5417717,147.4169 C71.1319774,172.979117 64,199.215747 64,269.110816 L64,324 L0,324 L0,269.110816 C0,194.423745 7.45054566,155.841653 28.9345716,115.670017 C48.8439262,78.4427604 78.4427604,48.8439262 115.670017,28.9345716 C155.841653,7.45054566 194.423745,0 269.110816,0 L324,0 Z" id="路径" stroke="none" fill="#03706C"></path>
                            <path d="M85.3706163,145.852344 L84.5417717,147.4169 C71.1319774,172.979117 64,199.215747 64,269.110816" id="路径" stroke="url(#linearGradient-4)" stroke-width="1" fill="none"></path>
                            <path d="M2.84217094e-14,269.110816 C2.84217094e-14,194.423745 7.45054566,155.841653 28.9345716,115.670017" id="路径" stroke="url(#linearGradient-5)" stroke-width="1" fill="none"></path>
                            <path d="M115.670017,28.9345716 C155.841653,7.45054566 194.423745,1.22568622e-13 269.110816,1.22568622e-13" id="形状" stroke="url(#linearGradient-6)" stroke-width="1" fill="none"></path>
                        </g>
                    </g>
                </g>
            </g>
        </g>
    </g>
</svg>